<svg xmlns="http://www.w3.org/2000/svg" width="78.794" height="55.519" viewBox="0 0 78.794 55.519">
  <g id="basic-motorcycle-svgrepo-com" transform="translate(0)">
    <path id="Path_2992" data-name="Path 2992" d="M44.431,45.344a8.192,8.192,0,1,1,8.059-8.191A8.126,8.126,0,0,1,44.431,45.344Zm0,5.461A13.654,13.654,0,1,1,57.862,37.152,13.543,13.543,0,0,1,44.431,50.8Z" transform="translate(20.933 4.715)" fill="#222" fill-rule="evenodd"/>
    <path id="Path_2993" data-name="Path 2993" d="M35.073,9.067A1.789,1.789,0,0,0,33.442,8h-9.4a1.821,1.821,0,0,0,0,3.641h8.249L49.72,50.62a1.779,1.779,0,0,0,2.371.9,1.833,1.833,0,0,0,.889-2.41Z" transform="translate(14.013 -8)" fill="#222" fill-rule="evenodd"/>
    <path id="Path_2994" data-name="Path 2994" d="M15.431,45.344a8.192,8.192,0,1,1,8.059-8.191A8.126,8.126,0,0,1,15.431,45.344Zm0,5.461a13.654,13.654,0,0,1,0-27.3,13.654,13.654,0,0,1,0,27.3Z" transform="translate(-2 4.715)" fill="#222" fill-rule="evenodd"/>
    <path id="Path_2995" data-name="Path 2995" d="M53.528,20.928a1.771,1.771,0,0,0-2.523.22L37.215,37.793H10.291a1.821,1.821,0,0,0,0,3.641H38.048a1.779,1.779,0,0,0,1.37-.648L53.744,23.493A1.841,1.841,0,0,0,53.528,20.928Z" transform="translate(3.14 2.254)" fill="#222" fill-rule="evenodd"/>
    <path id="Path_2996" data-name="Path 2996" d="M27.315,35.868l-8.059-9.1,2.662-2.435,8.059,9.1Z" transform="translate(11.646 5.396)" fill="#222" fill-rule="evenodd"/>
    <path id="Path_2997" data-name="Path 2997" d="M35.83,16.006A1.788,1.788,0,0,0,34.229,15h-2.02c-6.3,0-12.755,2.363-14.6,8.487a.474.474,0,0,0,.448.615H36.915a1.819,1.819,0,0,0,1.6-2.634Z" transform="translate(10.329 -2.258)" fill="#222"/>
    <path id="Path_2998" data-name="Path 2998" d="M6,17.82A1.806,1.806,0,0,1,7.791,16h8.059a1.781,1.781,0,0,1,1.433.728l2.686,3.641a1.823,1.823,0,0,1-1.433,2.912H7.791A1.806,1.806,0,0,1,6,21.461Z" transform="translate(1.163 -1.438)" fill="#222"/>
    <path id="Path_2999" data-name="Path 2999" d="M35.433,18.958a1.83,1.83,0,0,1,1.02-2.375l7.9-3.088a1.789,1.789,0,0,1,2.409,1.4l1.023,6.241a1.806,1.806,0,0,1-2.039,2.1l-8.184-1.28a1.8,1.8,0,0,1-1.391-1.123Z" transform="translate(24.337 -3.593)" fill="#222"/>
    <path id="Path_3000" data-name="Path 3000" d="M34.408,24.32a1.806,1.806,0,0,0-1.791-1.82H20.082c-1.978,0-3.582,1.175-3.582,3.186s1.6,3.186,3.582,3.186H30.826c1.978,0,3.582-1.175,3.582-3.186Z" transform="translate(9.466 3.894)" fill="#222"/>
    <path id="Path_3001" data-name="Path 3001" d="M69.446,15.455a.894.894,0,0,0-1.2-.7l-7.9,3.088a.915.915,0,0,0-.51,1.187L60.57,20.9a.9.9,0,0,0,.7.562l8.184,1.28A.9.9,0,0,0,70.469,21.7Zm-1.848-2.4a2.683,2.683,0,0,1,3.614,2.1l1.023,6.24a2.709,2.709,0,0,1-3.058,3.148l-8.184-1.28a2.7,2.7,0,0,1-2.086-1.685l-.737-1.873a2.745,2.745,0,0,1,1.53-3.563Zm-41.28,11.91c2.02-6.721,9.036-9.131,15.453-9.131h2.02a2.682,2.682,0,0,1,2.4,1.509l2.686,5.461a2.729,2.729,0,0,1-2.4,3.952H27.622A1.382,1.382,0,0,1,26.318,24.966Zm1.9-.029H46.477a.91.91,0,0,0,.8-1.317l-2.686-5.461a.894.894,0,0,0-.8-.5H41.77C35.8,17.655,30.1,19.813,28.218,24.937ZM5.5,20.386a2.709,2.709,0,0,1,2.686-2.73h8.059a2.672,2.672,0,0,1,2.149,1.092l2.686,3.641a2.734,2.734,0,0,1-2.149,4.369H8.186A2.709,2.709,0,0,1,5.5,24.026Zm2.686-.91a.9.9,0,0,0-.9.91v3.641a.9.9,0,0,0,.9.91H18.931a.911.911,0,0,0,.716-1.456L16.961,19.84a.89.89,0,0,0-.716-.364ZM25.677,30.535a4.791,4.791,0,0,1,3.1-1.048H41.316A2.709,2.709,0,0,1,44,32.218v1.365a3.882,3.882,0,0,1-1.374,3.048,4.791,4.791,0,0,1-3.1,1.048H28.78a4.791,4.791,0,0,1-3.1-1.048,4.069,4.069,0,0,1,0-6.1Zm1.141,1.4a2.231,2.231,0,0,0,0,3.291,3.03,3.03,0,0,0,1.962.63H39.525a3.03,3.03,0,0,0,1.962-.63,2.052,2.052,0,0,0,.724-1.646V32.218a.9.9,0,0,0-.9-.91H28.78A3.03,3.03,0,0,0,26.818,31.938Z" transform="translate(0.768 -4.003)" fill="#222" fill-rule="evenodd"/>
  </g>
</svg>
