<svg xmlns="http://www.w3.org/2000/svg" width="74.302" height="64.198" viewBox="0 0 74.302 64.198">
  <g id="bike-svgrepo-com" transform="translate(0)">
    <path id="Path_2989" data-name="Path 2989" d="M31.48,299.469A15.737,15.737,0,1,0,16,283.735a15.609,15.609,0,0,0,15.48,15.735Zm0-26.434a10.7,10.7,0,1,1-10.526,10.7,10.614,10.614,0,0,1,10.526-10.7Z" transform="translate(-16 -235.272)" fill="#222"/>
    <path id="Path_2990" data-name="Path 2990" d="M296,283.735A15.482,15.482,0,1,0,311.48,268,15.609,15.609,0,0,0,296,283.735Zm15.479-10.7a10.7,10.7,0,1,1-10.526,10.7A10.614,10.614,0,0,1,311.48,273.035Z" transform="translate(-252.657 -235.272)" fill="#222"/>
    <ellipse id="Ellipse_13" data-name="Ellipse 13" cx="5.277" cy="5.364" rx="5.277" ry="5.364" transform="translate(41.458)" fill="#222"/>
    <path id="Path_2991" data-name="Path 2991" d="M152.431,134.068l7.592,7.614v14.053h4.953V141.155a3.832,3.832,0,0,0-1.106-2.688l-7.937-7.96,10.287-10.456,9,9.37a3.707,3.707,0,0,0,2.658,1.137h4.432v-5.035H178.4l-14.317-14.9-.074.073-1.3-1.322L145.376,127l7.005,7.121Z" transform="translate(-125.349 -101.607)" fill="#222"/>
  </g>
</svg>
