<svg xmlns="http://www.w3.org/2000/svg" xmlns:xlink="http://www.w3.org/1999/xlink" width="388.098" height="295.797" viewBox="0 0 388.098 295.797">
  <defs>
    <clipPath id="clip-path">
      <path id="Path_4963" data-name="Path 4963" d="M1018.406,2178.12c-30.028-3.942-39.3-5.869-45.017-41.564-5.546-34.635-30.8-60.268-71.162-65.252-22.874-2.826-61.809,12.181-79.568,51.76-23.472-2.062-53.35,6.356-74.66,21.519-22.86,16.269-57.162,74.958-22.6,98.4,22.6,15.326,54.753-2.874,77.926,10.989,20.891,12.5,20.741,43.508,34.044,62.1,53.281,74.463,171.724-4.942,206.18-58.181C1066.784,2222,1066.391,2184.422,1018.406,2178.12Z" transform="translate(-710.716 -2070.971)"/>
    </clipPath>
  </defs>
  <g id="Group_10479" data-name="Group 10479" transform="translate(9 -262.067)">
    <path id="Path_4956" data-name="Path 4956" d="M1018.406,2178.12c-30.028-3.942-39.3-5.869-45.017-41.564-5.546-34.635-30.8-60.268-71.162-65.252-22.874-2.826-61.809,12.181-79.568,51.76-23.472-2.062-53.35,6.356-74.66,21.519-22.86,16.269-57.162,74.958-22.6,98.4,22.6,15.326,54.753-2.874,77.926,10.989,20.891,12.5,20.741,43.508,34.044,62.1,53.281,74.463,171.724-4.942,206.18-58.181C1066.784,2222,1066.391,2184.422,1018.406,2178.12Z" transform="translate(-679.465 -1808.904)" fill="#aedef8"/>
    <g id="Group_9947" data-name="Group 9947" transform="translate(111.049 299.827)">
      <circle id="Ellipse_80" data-name="Ellipse 80" cx="28.45" cy="28.45" r="28.45" transform="translate(2.765 59.564) rotate(-86.721)" fill="#f9b361"/>
      <circle id="Ellipse_81" data-name="Ellipse 81" cx="23.222" cy="23.222" r="23.222" transform="translate(0 34.332) rotate(-47.663)" fill="#fff"/>
      <g id="Group_9945" data-name="Group 9945" transform="translate(12.057 12.078)">
        <g id="Group_9941" data-name="Group 9941" transform="translate(9.708 1.204)">
          <path id="Path_4546" data-name="Path 4546" d="M358.965,188.361h0a.628.628,0,0,1-.247-.853l1.436-2.6a.628.628,0,0,1,.853-.247h0a.628.628,0,0,1,.247.853l-1.436,2.6A.638.638,0,0,1,358.965,188.361Z" transform="translate(-339.255 -184.58)" fill="#fd4932"/>
          <path id="Path_4547" data-name="Path 4547" d="M341.685,219.731h0a.628.628,0,0,1-.247-.853l1.436-2.6a.628.628,0,0,1,.853-.247h0a.628.628,0,0,1,.247.853l-1.436,2.6A.628.628,0,0,1,341.685,219.731Z" transform="translate(-341.36 -180.758)" fill="#fd4932"/>
        </g>
        <g id="Group_9942" data-name="Group 9942" transform="translate(1.227 9.685)">
          <path id="Path_4548" data-name="Path 4548" d="M365.249,209.745h0a.628.628,0,0,1,.853-.247l2.6,1.436a.628.628,0,0,1,.247.853h0a.628.628,0,0,1-.853.247l-2.6-1.436A.628.628,0,0,1,365.249,209.745Z" transform="translate(-329.978 -190.035)" fill="#fd4932"/>
          <path id="Path_4549" data-name="Path 4549" d="M333.879,192.465h0a.628.628,0,0,1,.853-.247l2.6,1.436a.628.628,0,0,1,.247.853h0a.628.628,0,0,1-.853.247l-2.6-1.436A.628.628,0,0,1,333.879,192.465Z" transform="translate(-333.8 -192.14)" fill="#fd4932"/>
        </g>
        <g id="Group_9943" data-name="Group 9943" transform="translate(0 14.281)">
          <path id="Path_4550" data-name="Path 4550" d="M367.283,197.452h0a.621.621,0,0,1,.426-.774l1.458-.415a.621.621,0,0,1,.774.426h0a.621.621,0,0,1-.426.774l-1.458.415A.617.617,0,0,1,367.283,197.452Z" transform="translate(-328.497 -196.237)" fill="#fd4932"/>
          <path id="Path_4551" data-name="Path 4551" d="M332.733,207.473h0a.621.621,0,0,1,.426-.774l1.806-.516a.621.621,0,0,1,.774.426h0a.621.621,0,0,1-.426.774l-1.806.516A.622.622,0,0,1,332.733,207.473Z" transform="translate(-332.707 -195.028)" fill="#fd4932"/>
        </g>
        <g id="Group_9944" data-name="Group 9944" transform="translate(14.292)">
          <path id="Path_4552" data-name="Path 4552" d="M355.909,218.073h0a.621.621,0,0,1,.774.426l.415,1.458a.621.621,0,0,1-.426.774h0a.621.621,0,0,1-.774-.426l-.415-1.458A.622.622,0,0,1,355.909,218.073Z" transform="translate(-344.226 -179.298)" fill="#fd4932"/>
          <path id="Path_4553" data-name="Path 4553" d="M345.9,183.533h0a.621.621,0,0,1,.774.426l.516,1.806a.621.621,0,0,1-.426.774h0a.621.621,0,0,1-.774-.426l-.516-1.806A.612.612,0,0,1,345.9,183.533Z" transform="translate(-345.446 -183.507)" fill="#fd4932"/>
        </g>
      </g>
      <g id="Group_9946" data-name="Group 9946" transform="translate(28.785 19.831)">
        <path id="Path_4554" data-name="Path 4554" d="M351.794,203.31h0a.694.694,0,0,1-.853-.471l-3.3-11.544a.694.694,0,0,1,.471-.853h0a.694.694,0,0,1,.853.471l3.3,11.544A.676.676,0,0,1,351.794,203.31Z" transform="translate(-347.618 -190.418)" fill="#fd4932"/>
        <path id="Path_4555" data-name="Path 4555" d="M350.883,202.924h0a.694.694,0,0,1,.471-.853L361,199.323a.694.694,0,0,1,.853.471h0a.693.693,0,0,1-.471.853l-9.648,2.749A.694.694,0,0,1,350.883,202.924Z" transform="translate(-347.223 -189.336)" fill="#fd4932"/>
      </g>
      <path id="Path_4556" data-name="Path 4556" d="M353.671,203.475a2.508,2.508,0,1,1-.976-3.41A2.507,2.507,0,0,1,353.671,203.475Z" transform="translate(-318.668 -169.449)" fill="#f9b361"/>
    </g>
    <g id="Group_10138" data-name="Group 10138" transform="translate(31.252 262.067)" clip-path="url(#clip-path)">
      <g id="Group_10137" data-name="Group 10137" transform="translate(-10.588 44.805)">
        <rect id="Rectangle_17482" data-name="Rectangle 17482" width="41.647" height="160.485" transform="translate(231.615 20.78)" fill="#81cff4"/>
        <rect id="Rectangle_17483" data-name="Rectangle 17483" width="41.648" height="181.265" transform="translate(148.437)" fill="#81cff4"/>
        <rect id="Rectangle_17484" data-name="Rectangle 17484" width="68.528" height="101.837" transform="translate(268.835 79.428)" fill="#81cff4"/>
        <rect id="Rectangle_17485" data-name="Rectangle 17485" width="68.526" height="113.939" transform="translate(183.613 67.327)" fill="#81cff4"/>
        <path id="Path_4957" data-name="Path 4957" d="M2232.1,2709.8H2156.05l38.026-14.188Z" transform="translate(-1890.977 -2630.433)" fill="#81cff4"/>
        <rect id="Rectangle_17486" data-name="Rectangle 17486" width="68.528" height="94.71" transform="translate(311.917 86.556)" fill="#81cff4"/>
        <path id="Path_4958" data-name="Path 4958" d="M2476.783,2750.27H2400.73l38.026-14.19Z" transform="translate(-2092.576 -2663.778)" fill="#81cff4"/>
        <rect id="Rectangle_17487" data-name="Rectangle 17487" width="68.528" height="94.71" transform="translate(3.763 86.556)" fill="#81cff4"/>
        <path id="Path_4959" data-name="Path 4959" d="M726.633,2750.27H650.58l38.026-14.19Z" transform="translate(-650.58 -2663.778)" fill="#81cff4"/>
        <rect id="Rectangle_17488" data-name="Rectangle 17488" width="68.526" height="101.837" transform="translate(96.97 79.428)" fill="#81cff4"/>
        <path id="Path_4960" data-name="Path 4960" d="M1255.995,2709.8H1179.94l38.028-14.188Z" transform="translate(-1086.734 -2630.433)" fill="#61c2d7"/>
        <rect id="Rectangle_17489" data-name="Rectangle 17489" width="68.528" height="128.898" transform="translate(66.989 52.368)" fill="#81cff4"/>
        <path id="Path_4961" data-name="Path 4961" d="M1085.715,2556.09H1009.66l38.026-14.19Z" transform="translate(-946.436 -2503.787)" fill="#81cff4"/>
        <rect id="Rectangle_17490" data-name="Rectangle 17490" width="43.027" height="39.56" transform="translate(196.362 48.165)" fill="#81cff4"/>
        <path id="Path_4962" data-name="Path 4962" d="M1800.143,2573.051H1752.39l23.875-5.511Z" transform="translate(-1558.391 -2524.913)" fill="#81cff4"/>
      </g>
      <rect id="Rectangle_17491" data-name="Rectangle 17491" width="376.682" height="54.919" transform="translate(-6.826 226.071)" fill="#81cff4"/>
    </g>
    <path id="Path_4964" data-name="Path 4964" d="M1773.748,3357.563a2.077,2.077,0,0,1-.82-.169l-13.5-5.8a2.081,2.081,0,1,1,1.643-3.825l13.5,5.8a2.08,2.08,0,0,1-.824,3.991Z" transform="translate(-1542.488 -2860.752)" fill="#383639"/>
    <g id="Group_10140" data-name="Group 10140" transform="translate(208.816 473.428)">
      <path id="Path_4965" data-name="Path 4965" d="M1746.51,3291.936c.5-1.215-.329-3.613-1.843-5.332l-11.454-12.348c-3.15-1.3-3.442-1.567-6.591-2.866-4.5,1.6-7.469,5.553-7.434,9.531l27.1,11.551C1746.362,3292.3,1746.432,3292.121,1746.51,3291.936Z" transform="translate(-1719.188 -3271.39)" fill="#2c6764"/>
      <path id="Path_4966" data-name="Path 4966" d="M1719.19,3325.52a7.691,7.691,0,0,0,.291,2.076c9.256,3.814,16.868,7.333,26.12,11.144,0,0,.3-.715.689-1.671Z" transform="translate(-1719.19 -3315.989)" fill="#d7d6d6"/>
    </g>
    <g id="Group_10141" data-name="Group 10141" transform="translate(185.604 403.901)">
      <path id="Path_4967" data-name="Path 4967" d="M1636.166,2908.309c-15.93-.574-25.3-15-19-26.15-4.261-1.592-9.017-3.375-14.66-5.648l-15.16,25.646c8.659,5.163,29.622,6.536,42.382,6.8a23.208,23.208,0,0,0-7.036,8.542C1624.646,2914.141,1628.537,2910.578,1636.166,2908.309Z" transform="translate(-1587.35 -2876.51)" fill="#b67d4d"/>
      <path id="Path_4968" data-name="Path 4968" d="M1770.09,2919.964c-9.006-5.121-16.112-7.752-25.8-11.374-6.305,11.149,3.067,25.576,19,26.151-7.629,2.27-11.522,5.833-13.47,9.187-3.273,6.177-6.08,15.458-8.184,29.094l12.95,4.238a160.522,160.522,0,0,1,16.736-33.124C1776.219,2936.555,1778.847,2924.947,1770.09,2919.964Z" transform="translate(-1714.465 -2902.941)" fill="#d28d58"/>
    </g>
    <path id="Path_4969" data-name="Path 4969" d="M1987.7,2933.675a3.837,3.837,0,0,1-2.449-.783,3.588,3.588,0,0,1-1.2-3.442,6.373,6.373,0,0,1,4.281-4.694l17.658-7.1-.389-.97,2.961-1.19a5.538,5.538,0,0,1,2.768-.362,2.657,2.657,0,0,0,.6-2.766,2.493,2.493,0,0,0-1.507-1.4,3.354,3.354,0,0,0-2.393.067l-2.962,1.19-.776-1.931,2.962-1.19a5.409,5.409,0,0,1,3.881-.09,4.548,4.548,0,0,1,2.729,2.579,4.642,4.642,0,0,1-.479,4.272,4.44,4.44,0,0,1,1.787,2.124,5.009,5.009,0,0,1-3.048,6.37l-21.727,8.731A7.265,7.265,0,0,1,1987.7,2933.675Zm24.152-16.262a5.718,5.718,0,0,1-1.044.553l-21.729,8.73a4.274,4.274,0,0,0-2.977,3.082,1.529,1.529,0,0,0,.447,1.488c.6.475,1.713.438,3.065-.106l21.728-8.731a2.935,2.935,0,0,0,1.893-3.662A2.473,2.473,0,0,0,2011.849,2917.413Z" transform="translate(-1728.549 -2499.131)" fill="#f6a841"/>
    <path id="Path_4970" data-name="Path 4970" d="M2087.833,2905.836a3.706,3.706,0,1,1-3.707-3.707A3.705,3.705,0,0,1,2087.833,2905.836Z" transform="translate(-1808 -2493.718)" fill="#424853"/>
    <path id="Path_4971" data-name="Path 4971" d="M2068.948,2894.67a10.61,10.61,0,0,0,.472-2.967,7.63,7.63,0,0,0-1.108-4.308,7.234,7.234,0,0,0-1.866-1.868,8.892,8.892,0,0,0-4.893-1.048c-4.932-.029-6.853,3.107-6.244,5.841a11.425,11.425,0,0,0,1.622,3.945,7.057,7.057,0,0,0,1.833,1.893,6.08,6.08,0,0,0,3.527,1.063,9.174,9.174,0,0,0,2.669-.429,1.041,1.041,0,0,0-.607-1.992,3.619,3.619,0,0,1-3.548-.628,3.016,3.016,0,0,1-.571-.847,2.82,2.82,0,0,1,.654-3.293,3.067,3.067,0,0,1,4.057-.433,4.512,4.512,0,0,1,2.092,4.083,11.084,11.084,0,0,1-.8,2.226,1.04,1.04,0,0,0,.479,1.391,1.051,1.051,0,0,0,1.391-.479A14.117,14.117,0,0,0,2068.948,2894.67Z" transform="translate(-1787.221 -2479.176)" fill="#f18e7f"/>
    <path id="Path_4972" data-name="Path 4972" d="M1741.873,2650.148c-18.239-10.184-41.638-24.842-55.313-44.527-3.731-5.374-10.386-10.642-15.769-5.927-6.656,5.828-.2,14.973,4.428,19.116,17.933,16.061,40.189,29.989,63.45,35.54Z" transform="translate(-1468.143 -2243.025)" fill="#f18e7f"/>
    <g id="Group_10143" data-name="Group 10143" transform="translate(248.076 470.486)">
      <g id="Group_10142" data-name="Group 10142" transform="translate(0 0)">
        <rect id="Rectangle_17492" data-name="Rectangle 17492" width="0.734" height="82.184" transform="translate(40.153)" fill="#c4c4c5"/>
        <rect id="Rectangle_17493" data-name="Rectangle 17493" width="0.734" height="82.184" transform="translate(26.111 2.619) rotate(-19.999)" fill="#c4c4c5"/>
        <rect id="Rectangle_17494" data-name="Rectangle 17494" width="0.734" height="82.186" transform="translate(13.817 9.816) rotate(-40.002)" fill="#c4c4c5"/>
        <path id="Path_4973" data-name="Path 4973" d="M2040.314,3411.29,1969.14,3370.2l.366-.636,71.176,41.094Z" transform="translate(-1964.39 -3349.333)" fill="#c4c4c5"/>
        <rect id="Rectangle_17495" data-name="Rectangle 17495" width="0.734" height="82.186" transform="translate(0 34.34) rotate(-79.997)" fill="#c4c4c5"/>
        <rect id="Rectangle_17496" data-name="Rectangle 17496" width="82.186" height="0.734" transform="translate(0.01 47.872) rotate(-10.009)" fill="#c4c4c5"/>
        <rect id="Rectangle_17497" data-name="Rectangle 17497" width="82.186" height="0.734" transform="translate(4.75 61.359) rotate(-30.026)" fill="#c4c4c5"/>
        <rect id="Rectangle_17498" data-name="Rectangle 17498" width="82.186" height="0.734" transform="translate(13.804 72.341) rotate(-49.998)" fill="#c4c4c5"/>
        <rect id="Rectangle_17499" data-name="Rectangle 17499" width="82.187" height="0.734" transform="translate(26.103 79.59) rotate(-70.007)" fill="#c4c4c5"/>
      </g>
    </g>
    <g id="Group_10144" data-name="Group 10144" transform="translate(108.688 470.486)">
      <rect id="Rectangle_17500" data-name="Rectangle 17500" width="0.734" height="82.184" transform="translate(40.162 0)" fill="#c4c4c5"/>
      <rect id="Rectangle_17501" data-name="Rectangle 17501" width="0.734" height="82.184" transform="translate(26.12 2.615) rotate(-19.999)" fill="#c4c4c5"/>
      <rect id="Rectangle_17502" data-name="Rectangle 17502" width="0.734" height="82.184" transform="translate(13.832 9.819) rotate(-40.002)" fill="#c4c4c5"/>
      <rect id="Rectangle_17503" data-name="Rectangle 17503" width="0.734" height="82.186" transform="matrix(0.5, -0.866, 0.866, 0.5, 4.747, 20.86)" fill="#c4c4c5"/>
      <rect id="Rectangle_17504" data-name="Rectangle 17504" width="0.734" height="82.186" transform="translate(0.005 34.341) rotate(-79.997)" fill="#c4c4c5"/>
      <rect id="Rectangle_17505" data-name="Rectangle 17505" width="82.186" height="0.734" transform="translate(0 47.905) rotate(-10.014)" fill="#c4c4c5"/>
      <rect id="Rectangle_17506" data-name="Rectangle 17506" width="82.186" height="0.734" transform="matrix(0.865, -0.501, 0.501, 0.865, 4.8, 61.328)" fill="#c4c4c5"/>
      <rect id="Rectangle_17507" data-name="Rectangle 17507" width="82.186" height="0.734" transform="translate(13.827 72.342) rotate(-50.006)" fill="#c4c4c5"/>
      <rect id="Rectangle_17508" data-name="Rectangle 17508" width="82.187" height="0.734" transform="translate(26.168 79.572) rotate(-70.05)" fill="#c4c4c5"/>
    </g>
    <path id="Path_4974" data-name="Path 4974" d="M1164.1,3225.19a46.285,46.285,0,1,0,46.286,46.284A46.284,46.284,0,0,0,1164.1,3225.19Zm0,85.57a39.285,39.285,0,1,1,39.286-39.286A39.285,39.285,0,0,1,1164.1,3310.76Z" transform="translate(-1014.889 -2759.896)" fill="#424853"/>
    <path id="Path_4975" data-name="Path 4975" d="M1444.042,3520.913l-63.582-7.293.083-.731,63.582,7.295Z" transform="translate(-1231.285 -2996.94)" fill="#383639"/>
    <rect id="Rectangle_17509" data-name="Rectangle 17509" width="63.981" height="0.734" transform="translate(149.17 506.331) rotate(-6.396)" fill="#383639"/>
    <path id="Path_4976" data-name="Path 4976" d="M1361.547,3463.713a5.2,5.2,0,1,1-5.2-5.2A5.2,5.2,0,0,1,1361.547,3463.713Z" transform="translate(-1207.127 -2952.135)" fill="#424853"/>
    <path id="Path_4977" data-name="Path 4977" d="M1442.725,3484.231h-66.785a1.041,1.041,0,1,1,0-2.081h66.785a1.041,1.041,0,0,1,0,2.081Z" transform="translate(-1226.703 -2971.612)" fill="#f6a841"/>
    <path id="Path_4978" data-name="Path 4978" d="M1370.946,3214.078a2.083,2.083,0,0,1-1.636-3.369l44.763-56.914a2.081,2.081,0,0,1,3.273,2.572l-44.765,56.916A2.065,2.065,0,0,1,1370.946,3214.078Z" transform="translate(-1221.73 -2700.418)" fill="#f6a841"/>
    <path id="Path_4979" data-name="Path 4979" d="M1649.442,3213.384l-3.491-.637-22.041-56.914,1.94-2.833h72.986l1.551,3.47Zm-20.553-56.222,19.717,50.915,45.575-50.915Z" transform="translate(-1431.869 -2700.417)" fill="#f6a841"/>
    <path id="Path_4980" data-name="Path 4980" d="M1530.033,2992.814c0,1.48-1.8,3.2-4.009,3.81l-28.681,8a4.286,4.286,0,0,1-5.217-2.866l-2.315-7.652a2.922,2.922,0,0,1,2.958-3.985h33.1C1528.16,2990.12,1530.033,2991.331,1530.033,2992.814Z" transform="translate(-1321.24 -2566.216)" fill="#2c6764"/>
    <path id="Path_4981" data-name="Path 4981" d="M1955.7,3225.19a46.285,46.285,0,1,0,46.286,46.284A46.284,46.284,0,0,0,1955.7,3225.19Zm0,85.57a39.285,39.285,0,1,1,39.286-39.286A39.285,39.285,0,0,1,1955.7,3310.76Z" transform="translate(-1667.107 -2759.896)" fill="#424853"/>
    <g id="Group_10145" data-name="Group 10145" transform="translate(245.039 467.203)">
      <path id="Path_4982" data-name="Path 4982" d="M2168.331,3273.707a1.56,1.56,0,0,1-1.53-1.259,41.24,41.24,0,0,0-48.425-32.505,1.561,1.561,0,1,1-.6-3.063,44.36,44.36,0,0,1,52.091,34.965,1.559,1.559,0,0,1-1.23,1.833A1.515,1.515,0,0,1,2168.331,3273.707Z" transform="translate(-2082.777 -3236.031)" fill="#606169"/>
      <path id="Path_4983" data-name="Path 4983" d="M1968.453,3563.782a44.437,44.437,0,0,1-43.513-35.806,1.561,1.561,0,1,1,3.064-.6,41.286,41.286,0,0,0,48.425,32.5,1.561,1.561,0,1,1,.6,3.063A44.37,44.37,0,0,1,1968.453,3563.782Z" transform="translate(-1924.91 -3475.037)" fill="#606169"/>
    </g>
    <g id="Group_10146" data-name="Group 10146" transform="translate(235.123 458.103)">
      <path id="Path_4984" data-name="Path 4984" d="M2464.029,3428.86a.522.522,0,0,1-.522-.52,52.7,52.7,0,0,0-1.394-11.825.52.52,0,0,1,1.013-.238,53.787,53.787,0,0,1,1.424,12.059.524.524,0,0,1-.52.523Z" transform="translate(-2357.598 -3375.111)" fill="#ffd96f"/>
      <path id="Path_4985" data-name="Path 4985" d="M2389.628,3290.145a.522.522,0,0,1-.5-.368,52.107,52.107,0,0,0-14.357-22.81.52.52,0,0,1,.71-.76,53.137,53.137,0,0,1,14.644,23.266.522.522,0,0,1-.345.652A.6.6,0,0,1,2389.628,3290.145Z" transform="translate(-2285.511 -3251.679)" fill="#ffd96f"/>
      <path id="Path_4986" data-name="Path 4986" d="M2201.887,3197.2a.52.52,0,0,1-.326-.116,52.681,52.681,0,0,0-32.845-11.695,1.329,1.329,0,0,1-.238,0,.52.52,0,0,1,0-1.041h.241a53.72,53.72,0,0,1,33.5,11.924.52.52,0,0,1,.079.732A.532.532,0,0,1,2201.887,3197.2Z" transform="translate(-2115.249 -3184.35)" fill="#ffd96f"/>
      <path id="Path_4987" data-name="Path 4987" d="M1877.181,3515.33a.52.52,0,0,1-.442-.247,53.55,53.55,0,0,1-8.149-28.061.521.521,0,0,1,.518-.523h0a.519.519,0,0,1,.519.518,52.542,52.542,0,0,0,7.992,27.517.521.521,0,0,1-.166.716A.528.528,0,0,1,1877.181,3515.33Z" transform="translate(-1868.59 -3433.3)" fill="#ffd96f"/>
      <path id="Path_4988" data-name="Path 4988" d="M1935.527,3671.477a.521.521,0,0,1-.319-.111,53.241,53.241,0,0,1-10.767-11.278.52.52,0,1,1,.849-.6,52.2,52.2,0,0,0,10.556,11.057.523.523,0,0,1-.319.934Z" transform="translate(-1914.528 -3575.647)" fill="#ffd96f"/>
    </g>
    <g id="Group_10147" data-name="Group 10147" transform="translate(95.74 458.103)">
      <path id="Path_4989" data-name="Path 4989" d="M1077.491,3428.861h0a.523.523,0,0,1-.521-.523,53.862,53.862,0,0,1,1.423-12.059.52.52,0,1,1,1.012.238,52.823,52.823,0,0,0-1.395,11.825A.518.518,0,0,1,1077.491,3428.861Z" transform="translate(-1076.97 -3375.111)" fill="#ffd96f"/>
      <path id="Path_4990" data-name="Path 4990" d="M1090.633,3290.14a.521.521,0,0,1-.5-.674,53.14,53.14,0,0,1,14.644-23.267.52.52,0,0,1,.708.761,52.1,52.1,0,0,0-14.357,22.811A.52.52,0,0,1,1090.633,3290.14Z" transform="translate(-1087.799 -3251.674)" fill="#ffd96f"/>
      <path id="Path_4991" data-name="Path 4991" d="M1189.91,3197.2a.522.522,0,0,1-.328-.928,53.715,53.715,0,0,1,33.5-11.924h.241a.52.52,0,0,1,0,1.041c-.067,0-.158,0-.238,0a52.669,52.669,0,0,0-32.845,11.695A.513.513,0,0,1,1189.91,3197.2Z" transform="translate(-1169.595 -3184.35)" fill="#ffd96f"/>
      <path id="Path_4992" data-name="Path 4992" d="M1562.7,3671.479a.525.525,0,0,1-.412-.2.519.519,0,0,1,.091-.729,52.181,52.181,0,0,0,10.556-11.057.52.52,0,0,1,.849.6,53.179,53.179,0,0,1-10.767,11.278A.523.523,0,0,1,1562.7,3671.479Z" transform="translate(-1476.746 -3575.65)" fill="#ffd96f"/>
    </g>
    <g id="Group_10148" data-name="Group 10148" transform="translate(107.973 467.214)">
      <path id="Path_4993" data-name="Path 4993" d="M1298.322,3600.2a44.306,44.306,0,0,1-16.632-3.257,1.561,1.561,0,0,1,1.169-2.895,41.238,41.238,0,0,0,53.69-22.778,1.561,1.561,0,1,1,2.895,1.169,44.451,44.451,0,0,1-41.122,27.761Z" transform="translate(-1257.073 -3511.448)" fill="#606169"/>
      <path id="Path_4994" data-name="Path 4994" d="M1148.009,3265.982a1.561,1.561,0,0,1-1.446-2.146,44.409,44.409,0,0,1,57.754-24.5,1.561,1.561,0,1,1-1.171,2.894,41.289,41.289,0,0,0-53.688,22.781A1.565,1.565,0,0,1,1148.009,3265.982Z" transform="translate(-1146.449 -3236.097)" fill="#606169"/>
    </g>
    <path id="Path_4995" data-name="Path 4995" d="M2153.147,3463.713a5.2,5.2,0,1,1-5.2-5.2A5.2,5.2,0,0,1,2153.147,3463.713Z" transform="translate(-1859.346 -2952.135)" fill="#424853"/>
    <path id="Path_4996" data-name="Path 4996" d="M2018.391,3107.99a2.083,2.083,0,0,1-1.942-1.33l-30.809-79.585a2.082,2.082,0,0,1,3.882-1.5l30.811,79.585a2.08,2.08,0,0,1-1.942,2.833Z" transform="translate(-1729.791 -2594.331)" fill="#f6a841"/>
    <g id="Group_10149" data-name="Group 10149" transform="translate(183.662 432.288)">
      <rect id="Rectangle_17510" data-name="Rectangle 17510" width="4.164" height="84.253" transform="translate(0 1.503) rotate(-21.161)" fill="#f6a841"/>
    </g>
    <rect id="Rectangle_17511" data-name="Rectangle 17511" width="42.994" height="0.734" transform="translate(207.168 531.191) rotate(-66.604)" fill="#383639"/>
    <g id="Group_10151" data-name="Group 10151" transform="translate(203.568 499.126)">
      <path id="Path_4997" data-name="Path 4997" d="M1701.832,3417.34a12.453,12.453,0,1,0,12.454,12.452A12.451,12.451,0,0,0,1701.832,3417.34Zm0,22.245a9.794,9.794,0,1,1,9.793-9.795A9.794,9.794,0,0,1,1701.832,3439.585Z" transform="translate(-1689.38 -3417.34)" fill="#424853"/>
      <g id="Group_10150" data-name="Group 10150" transform="translate(2.532 1.225)">
        <rect id="Rectangle_17512" data-name="Rectangle 17512" width="0.734" height="22.455" transform="translate(9.553)" fill="#383639"/>
        <rect id="Rectangle_17513" data-name="Rectangle 17513" width="0.734" height="22.456" transform="matrix(0.5, -0.866, 0.866, 0.5, 0, 5.936)" fill="#383639"/>
        <rect id="Rectangle_17514" data-name="Rectangle 17514" width="22.455" height="0.732" transform="translate(0.056 16.537) rotate(-30.031)" fill="#383639"/>
        <path id="Path_4998" data-name="Path 4998" d="M1748.244,3472.982a3.222,3.222,0,1,1-3.222-3.222A3.22,3.22,0,0,1,1748.244,3472.982Z" transform="translate(-1735.102 -3461.756)" fill="#424853"/>
      </g>
    </g>
    <path id="Path_4999" data-name="Path 4999" d="M1668.043,3588.555c-.044,0-.088,0-.132,0l-14.663-.917a2.082,2.082,0,0,1,.259-4.155l14.663.917a2.082,2.082,0,0,1-.127,4.159Z" transform="translate(-1454.434 -3055.096)" fill="#383639"/>
    <path id="Path_5000" data-name="Path 5000" d="M2095.272,2942.156a3.706,3.706,0,1,1-3.706-3.707A3.708,3.708,0,0,1,2095.272,2942.156Z" transform="translate(-1814.131 -2523.643)" fill="#424853"/>
    <path id="Path_5001" data-name="Path 5001" d="M1983.683,3018.724a3.706,3.706,0,1,1-3.706-3.7A3.705,3.705,0,0,1,1983.683,3018.724Z" transform="translate(-1722.188 -2586.731)" fill="#424853"/>
    <g id="Group_10152" data-name="Group 10152" transform="translate(193.563 516.456)">
      <path id="Path_5002" data-name="Path 5002" d="M1662.489,3528.423c.063-1.31-1.525-3.293-3.528-4.4l-14.936-7.779c-3.4-.164-3.768-.322-7.172-.484-3.7,3.015-5.17,7.74-3.8,11.475l29.406,1.77C1662.469,3528.816,1662.478,3528.626,1662.489,3528.423Z" transform="translate(-1632.549 -3515.76)" fill="#31716e"/>
      <path id="Path_5003" data-name="Path 5003" d="M1635.41,3580.93a7.6,7.6,0,0,0,.974,1.855c10,.483,18.349,1.238,28.346,1.719,0,0,.037-.771.086-1.8Z" transform="translate(-1634.906 -3569.455)" fill="#d7d6d6"/>
    </g>
    <path id="Path_5004" data-name="Path 5004" d="M1533.922,2834.34c.026-.4.044-.8.044-1.2a18.32,18.32,0,1,0-29.788,14.288c2.71,14.769,10.542,28.563,15.091,43.115-3.2,18.239-4.682,33.341,2.342,51.13l13.54-2.361c-.076-17.812,1.655-32.641,1.21-48.769C1535.917,2874.541,1533.847,2836.374,1533.922,2834.34Z" transform="translate(-1327.568 -2421.773)" fill="#d28d58"/>
    <g id="Group_10153" data-name="Group 10153" transform="translate(166.781 345.949)">
      <path id="Path_5005" data-name="Path 5005" d="M1506.053,2576a27.178,27.178,0,0,0-4.544,4.493c-10.788,13.5-17.709,43.782-20.229,60.677,9.862-11.49,13.024-27.386,16.775-42.2C1499.959,2591.44,1501.4,2582.576,1506.053,2576Z" transform="translate(-1481.132 -2570.96)" fill="#fcc551"/>
      <path id="Path_5006" data-name="Path 5006" d="M1521.155,2561.068c4.574-.057,10.272,6.81,14.5,11.042.836-8.633-1.3-15.947-6.847-21.076-5.981-5.527-15.817-4.574-23.451,1.379-4.652,6.576-6.092,15.44-8,22.969-3.752,14.815-6.914,30.711-16.774,42.2-.049.331-.1.669-.146.991,8.848,3.5,19.623,3.162,28.457,1.592,5.3-.942,13.265-3.936,18.231-9.756a20.862,20.862,0,0,1-.278-3c-1.322-8.932-7.173-16.373-10.241-21.877C1509.309,2572.437,1509,2561.218,1521.155,2561.068Z" transform="translate(-1480.44 -2547.374)" fill="#ffd96f"/>
      <path id="Path_5007" data-name="Path 5007" d="M1681,2636.2c-4.233-4.233-9.929-11.1-14.5-11.041-12.158.15-11.846,11.369-4.546,24.469,3.067,5.5,8.918,12.943,10.24,21.876-.142-5.447,1.483-12.195,4.233-18.633A57.244,57.244,0,0,0,1681,2636.2Z" transform="translate(-1625.783 -2611.463)" fill="#fcc551"/>
    </g>
    <path id="Path_5008" data-name="Path 5008" d="M1676.225,2467.838a6.248,6.248,0,0,1-5.817-8.515l5.317-13.635a6.245,6.245,0,1,1,11.637,4.538l-5.317,13.635A6.248,6.248,0,0,1,1676.225,2467.838Z" transform="translate(-1469.826 -2114.366)" fill="#f5ae8b"/>
    <g id="Group_10154" data-name="Group 10154" transform="translate(168.871 355.521)">
      <path id="Path_5009" data-name="Path 5009" d="M1560.512,2611.791l-2.062,6.978c17.757-18.384,32.684-13.649,34.935-5.358C1596.012,2603.181,1578.864,2594.041,1560.512,2611.791Z" transform="translate(-1546.806 -2601.741)" fill="#2c6764"/>
      <path id="Path_5010" data-name="Path 5010" d="M1538.9,2668.02a10.2,10.2,0,0,1-1.474,3.185c-9.74,14.315-34.535,29.362-43.626,36.351l-1.477,5c9.093-6.99,35.361-22.59,45.1-36.906A9.134,9.134,0,0,0,1538.9,2668.02Z" transform="translate(-1492.32 -2656.35)" fill="#2c6764"/>
    </g>
    <path id="Path_5011" data-name="Path 5011" d="M1728.57,2679.3c-18.239-10.184-41.64-24.844-55.313-44.529-3.731-5.372-10.386-10.64-15.771-5.925-6.654,5.826-.2,14.972,4.428,19.116,17.933,16.061,39.926,29.939,63.189,35.491Z" transform="translate(-1457.182 -2267.042)" fill="#f5ae8b"/>
    <path id="Path_5012" data-name="Path 5012" d="M1669.569,2637.067l-14.523,13.149q-4.382-4.839-8.767-9.68c-8.767-9.682,5.756-22.831,14.522-13.149Q1665.187,2632.225,1669.569,2637.067Z" transform="translate(-1448.064 -2264.555)" fill="#ffd96f"/>
    <g id="Group_10155" data-name="Group 10155" transform="translate(191.924 302.504)">
      <path id="Path_5013" data-name="Path 5013" d="M1701.294,2491.314c2.456,2.356,3.321,5.442,1.932,6.892s-4.509.713-6.967-1.646-3.321-5.439-1.932-6.89S1698.836,2488.959,1701.294,2491.314Z" transform="translate(-1681.264 -2455.774)" fill="#f18e7f"/>
      <path id="Path_5014" data-name="Path 5014" d="M1672.12,2345c3.806,9.274.569,19.389-7.23,22.59s-17.213-1.718-21.019-10.992-.573-19.389,7.231-22.594S1668.313,2335.73,1672.12,2345Z" transform="translate(-1638.923 -2327.326)" fill="#f5ae8b"/>
      <path id="Path_5015" data-name="Path 5015" d="M1666.918,2336.992c-2.4,3.859-8.981,1.942-9.839,5.847-2.666,12.151-7.693,2.043-9.029,5.942-2.56,7.467-3.469,12.382-10.3,6.746-5.671-4.675-7.346-22.847,4.659-28.276,9.029-4.084,16.248-.456,20.636,2.893C1666.536,2332.814,1668.369,2334.656,1666.918,2336.992Z" transform="translate(-1631.612 -2321.07)" fill="#b44822"/>
      <path id="Path_5016" data-name="Path 5016" d="M1790.59,2344.583c8.638-2.229,16.607-2.877,17.8-1.448s-4.847,4.393-13.487,6.622Z" transform="translate(-1761.124 -2335.026)" fill="#2c6764"/>
      <path id="Path_5017" data-name="Path 5017" d="M1708.2,2439.9c1.395,2.287,1.3,4.893-.222,5.819s-3.881-.179-5.277-2.467-1.294-4.9.224-5.82S1706.806,2437.617,1708.2,2439.9Z" transform="translate(-1687.901 -2413.079)" fill="#f5ae8b"/>
      <path id="Path_5018" data-name="Path 5018" d="M1779.71,2418.095a.368.368,0,0,1-.307-.569,4.744,4.744,0,0,1,4.589-2.238.368.368,0,0,1,.3.428.376.376,0,0,1-.426.3,3.989,3.989,0,0,0-3.844,1.917A.366.366,0,0,1,1779.71,2418.095Z" transform="translate(-1751.857 -2395.05)" fill="#b44822"/>
      <path id="Path_5019" data-name="Path 5019" d="M1795.3,2429.727c.111.873-.162,1.625-.611,1.685s-.9-.6-1.014-1.476.164-1.625.613-1.683S1795.191,2428.855,1795.3,2429.727Z" transform="translate(-1763.646 -2405.779)" fill="#b44822"/>
      <path id="Path_5020" data-name="Path 5020" d="M1783.81,2477.5c.525,3.111,3.713,2.2,4.86.284Z" transform="translate(-1755.538 -2446.357)" fill="#fff"/>
      <path id="Path_5021" data-name="Path 5021" d="M1813.4,2433.26s3.47,3.432,2.69,4.41a3.088,3.088,0,0,1-2.888.946Z" transform="translate(-1779.753 -2409.907)" fill="#f5ae8b"/>
      <path id="Path_5022" data-name="Path 5022" d="M1623.92,2323.9c-2.638-10.222,2.636-20.421,11.774-22.781s18.687,4.018,21.324,14.241Z" transform="translate(-1623.24 -2300.63)" fill="#55b9a1"/>
    </g>
    <path id="Path_5023" data-name="Path 5023" d="M2059.711,2913.924c-3.166-2.106-9.57-.7-12.128.5a4.9,4.9,0,0,0-2.574,6.408,4.614,4.614,0,0,0,3.06,2.424c2.53.555,4.464-.856,6.17-2.1a9.628,9.628,0,0,1,3.361-1.85,1.441,1.441,0,0,1,1.53.583,1.97,1.97,0,0,1-.385,2.236,1.041,1.041,0,0,0,.217,1.456,1.029,1.029,0,0,0,.618.2,1.291,1.291,0,0,0,.164-.018c-.078.181-.157.359-.243.533a1.041,1.041,0,1,0,1.87.914C2063.239,2921.39,2063.451,2916.412,2059.711,2913.924Z" transform="translate(-1778.504 -2502.542)" fill="#f5ae8b"/>
    <path id="Path_5024" data-name="Path 5024" d="M575.463,2572.175a19.237,19.237,0,0,1-9.51-2.257,20.115,20.115,0,0,0-18.123,0,21.153,21.153,0,0,1-19.016,0,20.107,20.107,0,0,0-18.12,0,21.145,21.145,0,0,1-19.012,0,18.126,18.126,0,0,0-9.061-2.157.52.52,0,1,1,0-1.041,19.2,19.2,0,0,1,9.506,2.257,20.122,20.122,0,0,0,18.12,0,21.149,21.149,0,0,1,19.014,0,20.122,20.122,0,0,0,18.12,0,21.153,21.153,0,0,1,19.016,0,20.133,20.133,0,0,0,18.125,0,19.219,19.219,0,0,1,9.51-2.257.52.52,0,1,1,0,1.041,18.128,18.128,0,0,0-9.062,2.157A19.222,19.222,0,0,1,575.463,2572.175Z" transform="translate(-491.1 -2217.365)" fill="#ffd96f"/>
    <path id="Path_5025" data-name="Path 5025" d="M657.353,2658.513a19.232,19.232,0,0,1-9.508-2.257,20.113,20.113,0,0,0-18.123,0,21.153,21.153,0,0,1-19.016,0,20.105,20.105,0,0,0-18.12,0,21.149,21.149,0,0,1-19.014,0,18.139,18.139,0,0,0-9.061-2.157.519.519,0,1,1,0-1.039,19.255,19.255,0,0,1,9.508,2.256,20.107,20.107,0,0,0,18.12,0,21.161,21.161,0,0,1,19.014,0,20.111,20.111,0,0,0,18.121,0,21.165,21.165,0,0,1,19.016,0,20.118,20.118,0,0,0,18.125,0,19.258,19.258,0,0,1,9.51-2.256.519.519,0,1,1,0,1.039,18.128,18.128,0,0,0-9.062,2.157A19.258,19.258,0,0,1,657.353,2658.513Z" transform="translate(-558.572 -2288.503)" fill="#ffd96f"/>
    <path id="Path_5026" data-name="Path 5026" d="M817.011,3050.386a19.192,19.192,0,0,1-9.508-2.26,20.131,20.131,0,0,0-18.123,0,21.13,21.13,0,0,1-19.014,0,20.124,20.124,0,0,0-18.12,0,21.134,21.134,0,0,1-19.016,0,18.136,18.136,0,0,0-9.059-2.155.521.521,0,0,1,0-1.042,19.23,19.23,0,0,1,9.506,2.257,20.121,20.121,0,0,0,18.121,0,21.151,21.151,0,0,1,19.014,0,20.121,20.121,0,0,0,18.121,0,21.155,21.155,0,0,1,19.016,0,20.121,20.121,0,0,0,18.121,0,19.224,19.224,0,0,1,9.51-2.257.521.521,0,1,1,0,1.042,18.122,18.122,0,0,0-9.061,2.155A19.2,19.2,0,0,1,817.011,3050.386Z" transform="translate(-690.119 -2611.375)" fill="#ffd96f"/>
    <path id="Path_5027" data-name="Path 5027" d="M898.911,3136.716a19.251,19.251,0,0,1-9.51-2.257,20.111,20.111,0,0,0-18.121,0,21.153,21.153,0,0,1-19.016,0,20.107,20.107,0,0,0-18.12,0,21.149,21.149,0,0,1-19.014,0,18.121,18.121,0,0,0-9.061-2.157.521.521,0,0,1,0-1.042,19.229,19.229,0,0,1,9.508,2.257,20.122,20.122,0,0,0,18.12,0,21.149,21.149,0,0,1,19.014,0,20.125,20.125,0,0,0,18.121,0,21.153,21.153,0,0,1,19.016,0,20.133,20.133,0,0,0,18.125,0,19.237,19.237,0,0,1,9.51-2.257.521.521,0,0,1,0,1.042,18.128,18.128,0,0,0-9.063,2.157A19.245,19.245,0,0,1,898.911,3136.716Z" transform="translate(-757.6 -2682.504)" fill="#ffd96f"/>
    <g id="Group_10157" data-name="Group 10157" transform="translate(135.082 336.571)">
      <path id="Path_5028" data-name="Path 5028" d="M1420.646,2523.125a3.925,3.925,0,0,1-4.858,2.65l-24.64-7.249a3.926,3.926,0,0,1-2.65-4.858l4.928-16.75a3.924,3.924,0,0,1,4.858-2.649l24.64,7.249a3.926,3.926,0,0,1,2.65,4.858Z" transform="translate(-1372.858 -2494.11)" fill="#55b9a1"/>
      <path id="Path_5029" data-name="Path 5029" d="M1322.522,2706.877a2.943,2.943,0,0,1-3.643,1.986l-16.364-4.814a2.945,2.945,0,0,1-1.988-3.643l8.76-29.778a2.943,2.943,0,0,1,3.643-1.986l16.364,4.814a2.945,2.945,0,0,1,1.988,3.643Z" transform="translate(-1300.408 -2637.814)" fill="#55b9a1"/>
      <path id="Path_5030" data-name="Path 5030" d="M1351.949,2595.176a3.433,3.433,0,0,1-4.25,2.317l-23.476-6.906a3.435,3.435,0,0,1-2.319-4.25l17.488-59.448a3.434,3.434,0,0,1,4.25-2.319l23.476,6.906a3.435,3.435,0,0,1,2.319,4.25Z" transform="translate(-1318.005 -2519.093)" fill="#2c6764"/>
      <g id="Group_10156" data-name="Group 10156" transform="translate(16.939 15.019)">
        <path id="Path_5031" data-name="Path 5031" d="M1396.61,2844.444l.938-3.19a4.655,4.655,0,0,1,1.032-1.893,3.405,3.405,0,0,1,1.63-1,3.9,3.9,0,0,1,3.693,1.086,3.4,3.4,0,0,1,.828,1.726,4.649,4.649,0,0,1-.158,2.15l-.939,3.19Zm6.6-1.437a2.461,2.461,0,0,0-.094-1.854,2.429,2.429,0,0,0-3.18-.937,2.461,2.461,0,0,0-1.081,1.509l-.436,1.484,4.354,1.282Z" transform="translate(-1396.61 -2792.67)" fill="#b1dcde"/>
        <path id="Path_5032" data-name="Path 5032" d="M1417.77,2797.8l1.3.384-1.6,5.439-7.023-2.065,1.562-5.309,1.3.384-1.087,3.692,1.525.449.96-3.26,1.264.371-.959,3.261,1.625.477Z" transform="translate(-1408.013 -2758.07)" fill="#b1dcde"/>
        <path id="Path_5033" data-name="Path 5033" d="M1421.7,2771.91l.477-1.625,5.7,1.677,1.037-3.521,1.324.389-1.514,5.146Z" transform="translate(-1417.282 -2735.157)" fill="#b1dcde"/>
        <path id="Path_5034" data-name="Path 5034" d="M1431.83,2746.125l.479-1.625,7.023,2.067-.479,1.625Z" transform="translate(-1425.629 -2715.432)" fill="#b1dcde"/>
        <path id="Path_5035" data-name="Path 5035" d="M1437.969,2696.91l6.129,5.106-.472,1.606-7.916.965.516-1.756,5.647-.66-4.381-3.645Z" transform="translate(-1428.826 -2676.221)" fill="#b1dcde"/>
        <path id="Path_5036" data-name="Path 5036" d="M1456.839,2665.013l1.3.384-1.6,5.439-7.023-2.067,1.562-5.308,1.3.384-1.086,3.692,1.525.449.96-3.26,1.264.371-.96,3.261,1.625.479Z" transform="translate(-1440.204 -2648.661)" fill="#b1dcde"/>
        <path id="Path_5037" data-name="Path 5037" d="M1469.1,2627.385l-2.356.778-.023.081-.417,1.416,1.956.574-.479,1.625-7.023-2.067.894-3.041a4.084,4.084,0,0,1,.787-1.528,2.617,2.617,0,0,1,3.9,0,2.484,2.484,0,0,1,.553,1.324l2.72-.912Zm-5.506-1.173a1.789,1.789,0,0,0-.644,1.021l-.389,1.324,2.447.72.389-1.324a1.756,1.756,0,0,0,.007-1.208,1.321,1.321,0,0,0-1.81-.534Z" transform="translate(-1449.465 -2616.419)" fill="#b1dcde"/>
        <path id="Path_5038" data-name="Path 5038" d="M1477.1,2583.472l2.488.732-.479,1.625-2.509-.738-5.316,1.391.507-1.726,3.673-.958-2.569-2.795.468-1.595Z" transform="translate(-1458.133 -2579.409)" fill="#b1dcde"/>
      </g>
    </g>
    <path id="Location_Pin" data-name="Location Pin" d="M21.261,0A17.76,17.76,0,0,0,3,18.09C3,33.236,19.916,47.247,20.627,47.824a.961.961,0,0,0,1.249,0c.75-.673,17.644-16.088,17.644-29.734A17.76,17.76,0,0,0,21.261,0Zm0,26.909a8.649,8.649,0,1,1,8.649-8.649,8.649,8.649,0,0,1-8.649,8.649Z" transform="translate(247.408 279.289)" fill="#25b58a"/>
  </g>
</svg>
