<svg xmlns="http://www.w3.org/2000/svg" width="363.501" height="442.745" viewBox="0 0 363.501 442.745">
  <g id="Group_10193" data-name="Group 10193" transform="translate(-25 -136.797)">
    <g id="Group_9867" data-name="Group 9867" transform="translate(139.777 411.068)">
      <g id="Group_9866" data-name="Group 9866" transform="translate(0 0)">
        <path id="Path_4465" data-name="Path 4465" d="M108.128,208.913a.834.834,0,1,1-.834-.823A.827.827,0,0,1,108.128,208.913Z" transform="translate(-100.031 -157.819)" fill="#f9b361"/>
        <path id="Path_4466" data-name="Path 4466" d="M138.008,163.373a.818.818,0,0,1-.834.813.818.818,0,1,1,.834-.813Z" transform="translate(-98.368 -160.354)" fill="#f9b361"/>
        <path id="Path_4467" data-name="Path 4467" d="M116.778,275.743a.834.834,0,0,1-1.668,0,.834.834,0,0,1,1.668,0Z" transform="translate(-99.55 -154.099)" fill="#f9b361"/>
        <path id="Path_4468" data-name="Path 4468" d="M218.488,278.013a.818.818,0,0,1-.834.813.818.818,0,1,1,0-1.636A.848.848,0,0,1,218.488,278.013Z" transform="translate(-93.889 -153.973)" fill="#f9b361"/>
        <path id="Path_4469" data-name="Path 4469" d="M257.278,278.543a.834.834,0,0,1-1.668,0,.834.834,0,0,1,1.668,0Z" transform="translate(-91.73 -153.943)" fill="#f9b361"/>
        <path id="Path_4470" data-name="Path 4470" d="M209.138,166.343a.818.818,0,0,1-.834.813.818.818,0,1,1,0-1.636A.848.848,0,0,1,209.138,166.343Z" transform="translate(-94.409 -160.189)" fill="#f9b361"/>
        <path id="Path_4471" data-name="Path 4471" d="M102.038,161.283a.834.834,0,0,1-1.668,0,.834.834,0,0,1,1.668,0Z" transform="translate(-100.37 -160.47)" fill="#f9b361"/>
        <path id="Path_4472" data-name="Path 4472" d="M249.418,239.223a.818.818,0,0,1-.834.813.818.818,0,1,1,.834-.813Z" transform="translate(-92.167 -156.132)" fill="#f9b361"/>
        <path id="Path_4473" data-name="Path 4473" d="M223.153,210.152a.419.419,0,0,1-.412.412.406.406,0,0,1-.412-.412.419.419,0,0,1,.412-.412A.412.412,0,0,1,223.153,210.152Z" transform="translate(-93.582 -157.728)" fill="#f9b361"/>
        <path id="Path_4474" data-name="Path 4474" d="M262.963,216.3a.419.419,0,0,1-.412.412.406.406,0,0,1-.412-.412.419.419,0,0,1,.412-.412A.427.427,0,0,1,262.963,216.3Z" transform="translate(-91.366 -157.385)" fill="#f9b361"/>
        <path id="Path_4475" data-name="Path 4475" d="M254.218,195.883a.834.834,0,0,1-1.668,0,.834.834,0,0,1,1.668,0Z" transform="translate(-91.9 -158.544)" fill="#f9b361"/>
        <path id="Path_4476" data-name="Path 4476" d="M143.4,218.991a.593.593,0,0,1-.6.591.6.6,0,0,1-.6-.591.593.593,0,0,1,.6-.591A.6.6,0,0,1,143.4,218.991Z" transform="translate(-98.042 -157.246)" fill="#f9b361"/>
        <path id="Path_4477" data-name="Path 4477" d="M110.373,240.261a.593.593,0,0,1-.6.591.6.6,0,0,1-.6-.591.593.593,0,0,1,.6-.591A.6.6,0,0,1,110.373,240.261Z" transform="translate(-99.88 -156.062)" fill="#f9b361"/>
      </g>
    </g>
    <g id="Group_9827" data-name="Group 9827" transform="translate(25.5 225.263)">
      <g id="Group_9826" data-name="Group 9826" transform="translate(0.001 0)">
        <g id="Group_9825" data-name="Group 9825">
          <g id="Group_9824" data-name="Group 9824">
            <g id="Group_9821" data-name="Group 9821">
              <g id="Group_9820" data-name="Group 9820">
                <g id="Group_9819" data-name="Group 9819" opacity="0.61">
                  <g id="Group_9818" data-name="Group 9818">
                    <g id="Group_9811" data-name="Group 9811">
                      <g id="Group_9808" data-name="Group 9808" transform="translate(0 167.153)" opacity="0.41">
                        <path id="Path_4333" data-name="Path 4333" d="M96.109,263.131c-2.429-2.892-2.539-7.264-.265-9.8s7.683-4,10.09-1.126c2.429,2.892-1.016,7-1.855,10.62C102.953,267.856,98.537,266.023,96.109,263.131Z" transform="translate(-94.21 -250.626)" fill="#ff9455"/>
                      </g>
                      <g id="Group_9809" data-name="Group 9809" transform="translate(349.252 135.057)" opacity="0.41">
                        <path id="Path_4334" data-name="Path 4334" d="M263.4,238.145a9.176,9.176,0,0,1,1.391,11.37c-2.252,3.6-8.125,6.844-11.15,4.151-3.025-2.672.353-8.456.861-12.894C255.23,234.568,260.375,235.451,263.4,238.145Z" transform="translate(-252.397 -236.089)" fill="#ff9455"/>
                      </g>
                      <g id="Group_9810" data-name="Group 9810" transform="translate(183.081)" opacity="0.41">
                        <path id="Path_4335" data-name="Path 4335" d="M179.445,178.941c3.223-4.085,9.715-5.255,14.506-2.605s9.361,9.935,6.138,14.02-10.885.155-16.625-.177C175.426,189.694,176.2,183,179.445,178.941Z" transform="translate(-177.133 -174.917)" fill="#ff9455"/>
                      </g>
                    </g>
                    <g id="Group_9814" data-name="Group 9814" transform="translate(17.732 11.756)" opacity="0.28">
                      <g id="Group_9813" data-name="Group 9813">
                        <g id="Group_9812" data-name="Group 9812">
                          <path id="Path_4336" data-name="Path 4336" d="M107.891,407.712c-3.444-20.334,2.075-37.688,3.466-57.625,1.3-18.877-4.349-34.752-7.485-52.723-2.782-16.007-1.855-34.133,1.634-49.853,4.769-21.46,15.786-41.353,31.638-53.474,24.706-18.877,57.669-16.669,84.958-3.665,11.437,5.431,22.5,12.673,34.752,14.506,17.861,2.671,35.237-6.469,52.635-11.944,23.69-7.463,49.677-8.014,72.02,3.753,25.324,13.357,43.34,43.495,41.243,76.7-.949,15.035-5.829,29.894-4.107,44.841,1.744,15.146,9.339,27.841,13.357,42.1a120.734,120.734,0,0,1,2.981,46.321A24.919,24.919,0,0,1,410.277,428.2H132.42a24.739,24.739,0,0,1-24.507-20.29A.612.612,0,0,0,107.891,407.712Z" transform="translate(-102.241 -180.242)" fill="#ff9455"/>
                        </g>
                      </g>
                    </g>
                    <g id="Group_9817" data-name="Group 9817" transform="translate(59.934 79.839)" opacity="0.66">
                      <g id="Group_9816" data-name="Group 9816">
                        <g id="Group_9815" data-name="Group 9815" opacity="0.47">
                          <path id="Path_4337" data-name="Path 4337" d="M364.78,291.182c-1.192-14.55-6.933-29.144-16.868-39.565-15.477-16.228-38.924-20.334-59.435-16.581-8.611,1.568-17.133,4.349-25.942,3.488-12.85-1.281-24.154-10.046-35.855-16.471-15.919-8.743-34.155-13.446-51.09-9.648a47.425,47.425,0,0,0-36.8,42.236c-.861,9.8,7.794,27.068,5.056,36.341-2.76,9.427-22.962,38.262-22.476,60.208.42,18.7,3.886,26.384,9.008,35.171a9.226,9.226,0,0,0,7.97,4.614H341.222a9.188,9.188,0,0,0,8.743-6.314c2.826-8.633,4.151-16.8.287-28.724-3.82-11.812,6.579-21.549,10.6-32.544C364.471,313.592,365.663,301.824,364.78,291.182Z" transform="translate(-121.356 -211.079)" fill="#ff9455"/>
                        </g>
                      </g>
                    </g>
                  </g>
                </g>
              </g>
            </g>
            <g id="Group_9823" data-name="Group 9823" transform="translate(357.296 66.241)">
              <g id="Group_9822" data-name="Group 9822">
                <path id="Path_4338" data-name="Path 4338" d="M256.04,204.92" transform="translate(-256.04 -204.92)" fill="#fff" stroke="#fca97c" stroke-width="0.5"/>
              </g>
            </g>
          </g>
        </g>
      </g>
    </g>
    <g id="Group_9895" data-name="Group 9895" transform="translate(162.348 350.723)">
      <g id="Group_9871" data-name="Group 9871" transform="translate(6.676 54.589)">
        <g id="Group_9870" data-name="Group 9870">
          <g id="Group_9868" data-name="Group 9868" transform="translate(63.356 2.356)">
            <path id="Path_4478" data-name="Path 4478" d="M193.09,220.29c.116.042.253.1.4.148C193.343,220.385,193.206,220.332,193.09,220.29Z" transform="translate(-193.09 -220.29)" fill="#ffac79"/>
            <path id="Path_4479" data-name="Path 4479" d="M200.91,226.16c.074.074.137.148.211.232C201.047,226.308,200.984,226.234,200.91,226.16Z" transform="translate(-192.655 -219.963)" fill="#ffac79"/>
            <path id="Path_4480" data-name="Path 4480" d="M198.88,224.14c.032.032.074.063.106.1A.953.953,0,0,0,198.88,224.14Z" transform="translate(-192.768 -220.076)" fill="#ffac79"/>
            <path id="Path_4481" data-name="Path 4481" d="M203.22,228.84c.074.1.158.19.232.3C203.368,229.041,203.294,228.935,203.22,228.84Z" transform="translate(-192.526 -219.814)" fill="#ffac79"/>
            <path id="Path_4482" data-name="Path 4482" d="M200.24,225.46c.063.063.127.137.19.2A1.708,1.708,0,0,0,200.24,225.46Z" transform="translate(-192.692 -220.002)" fill="#ffac79"/>
            <path id="Path_4483" data-name="Path 4483" d="M199.61,224.82a.684.684,0,0,0,.1.084A.684.684,0,0,1,199.61,224.82Z" transform="translate(-192.727 -220.038)" fill="#ffac79"/>
            <path id="Path_4484" data-name="Path 4484" d="M202.5,227.97a.74.74,0,0,1,.084.106A.413.413,0,0,0,202.5,227.97Z" transform="translate(-192.566 -219.863)" fill="#ffac79"/>
            <path id="Path_4485" data-name="Path 4485" d="M207.33,234.65c.1.158.2.306.3.465C207.531,234.967,207.436,234.808,207.33,234.65Z" transform="translate(-192.297 -219.491)" fill="#ffac79"/>
            <path id="Path_4486" data-name="Path 4486" d="M208.19,236.03c.084.148.179.285.264.433C208.359,236.315,208.274,236.178,208.19,236.03Z" transform="translate(-192.25 -219.414)" fill="#ffac79"/>
            <path id="Path_4487" data-name="Path 4487" d="M206.52,233.41c.084.137.179.274.264.4C206.7,233.674,206.615,233.537,206.52,233.41Z" transform="translate(-192.343 -219.56)" fill="#ffac79"/>
            <path id="Path_4488" data-name="Path 4488" d="M203.96,229.79c.084.116.169.222.264.338A4.132,4.132,0,0,1,203.96,229.79Z" transform="translate(-192.485 -219.761)" fill="#ffac79"/>
            <path id="Path_4489" data-name="Path 4489" d="M204.76,230.86c.074.106.148.2.222.306C204.908,231.061,204.834,230.966,204.76,230.86Z" transform="translate(-192.44 -219.702)" fill="#ffac79"/>
            <path id="Path_4490" data-name="Path 4490" d="M205.74,232.25c.021.042.053.074.074.116A1.119,1.119,0,0,0,205.74,232.25Z" transform="translate(-192.386 -219.624)" fill="#ffac79"/>
            <path id="Path_4491" data-name="Path 4491" d="M201.64,226.97c.053.063.106.116.158.179C201.746,227.086,201.693,227.023,201.64,226.97Z" transform="translate(-192.614 -219.918)" fill="#ffac79"/>
            <path id="Path_4492" data-name="Path 4492" d="M195.96,221.81c.053.032.106.074.158.106C196.066,221.884,196.013,221.842,195.96,221.81Z" transform="translate(-192.93 -220.205)" fill="#ffac79"/>
            <path id="Path_4493" data-name="Path 4493" d="M195.07,221.25c.042.021.084.053.127.074C195.154,221.3,195.112,221.271,195.07,221.25Z" transform="translate(-192.98 -220.237)" fill="#ffac79"/>
            <path id="Path_4494" data-name="Path 4494" d="M195.5,221.51a1.374,1.374,0,0,1,.158.106A1.376,1.376,0,0,0,195.5,221.51Z" transform="translate(-192.956 -220.222)" fill="#ffac79"/>
            <path id="Path_4495" data-name="Path 4495" d="M194.58,220.97c.042.021.074.042.116.063C194.654,221.012,194.622,220.991,194.58,220.97Z" transform="translate(-193.007 -220.252)" fill="#ffac79"/>
            <path id="Path_4496" data-name="Path 4496" d="M194.17,220.76c.053.032.106.053.158.084C194.276,220.813,194.223,220.792,194.17,220.76Z" transform="translate(-193.03 -220.264)" fill="#ffac79"/>
            <path id="Path_4497" data-name="Path 4497" d="M193.54,220.47c.053.021.116.053.169.074C193.646,220.512,193.593,220.491,193.54,220.47Z" transform="translate(-193.065 -220.28)" fill="#ffac79"/>
            <path id="Path_4498" data-name="Path 4498" d="M193.83,220.6c.053.021.116.053.169.074C193.946,220.653,193.893,220.621,193.83,220.6Z" transform="translate(-193.049 -220.273)" fill="#ffac79"/>
            <path id="Path_4499" data-name="Path 4499" d="M196.51,222.19l.1.063Z" transform="translate(-192.9 -220.184)" fill="#ffac79"/>
            <path id="Path_4500" data-name="Path 4500" d="M199.1,234l4.18,11.116a74.692,74.692,0,0,0,6.893-6.3c-.3-.507-.591-1-.876-1.488-.084-.148-.179-.3-.264-.433q-.3-.507-.6-.982c-.1-.158-.2-.317-.3-.464-.2-.306-.391-.612-.591-.908-.084-.137-.179-.274-.264-.4-.253-.38-.507-.75-.75-1.108-.021-.042-.053-.074-.074-.116-.274-.4-.549-.781-.813-1.161-.074-.106-.148-.2-.222-.306-.19-.264-.391-.528-.581-.781a4.136,4.136,0,0,0-.264-.338c-.19-.243-.369-.486-.549-.718l-.232-.3c-.222-.285-.443-.549-.665-.813a.74.74,0,0,1-.084-.106c-.253-.306-.507-.591-.75-.876-.053-.063-.106-.116-.158-.179l-.559-.623c-.074-.074-.137-.148-.211-.232l-.507-.538c-.063-.063-.127-.137-.19-.2l-.581-.581a.684.684,0,0,0-.1-.084c-.222-.222-.443-.422-.665-.623-.032-.032-.074-.063-.106-.1-.179-.158-.348-.317-.517-.464-.063-.053-.116-.106-.169-.148-.148-.127-.3-.253-.443-.369l-.169-.137c-.158-.127-.317-.253-.464-.369-.032-.032-.074-.053-.106-.084-.19-.148-.369-.285-.549-.412l-.1-.063c-.148-.106-.285-.2-.422-.3a1.376,1.376,0,0,0-.158-.106c-.116-.074-.222-.148-.327-.222a1.375,1.375,0,0,1-.158-.106c-.106-.074-.222-.137-.317-.2-.042-.021-.084-.053-.127-.074-.137-.084-.274-.158-.4-.232-.042-.021-.074-.042-.116-.063-.1-.053-.179-.1-.264-.137-.053-.032-.106-.053-.158-.084l-.19-.1a1.173,1.173,0,0,0-.169-.074c-.053-.021-.1-.042-.148-.063s-.116-.053-.169-.074a.515.515,0,0,1-.074-.032c-.148-.063-.274-.106-.4-.148h0C196.995,222.632,199.043,226.9,199.1,234Z" transform="translate(-193.089 -220.289)" fill="#364cc9"/>
          </g>
          <g id="Group_9869" data-name="Group 9869">
            <path id="Path_4501" data-name="Path 4501" d="M209.151,251.978l-2.534-6.725-4.18-11.116a26.693,26.693,0,0,0-.633-5.859,11.712,11.712,0,0,0-5.384-7.854h0c-2.893-1.731-6.809-2.407-11.707-2.365l-25.135.2a12.486,12.486,0,0,0-7.506,2.586,13.905,13.905,0,0,0-4.318,5.553L133.46,250.532a2.748,2.748,0,0,0,1.647,4.054l10.535,2.861,1.383,39.123,55.886-.011,1.858-27.711,1.457-2.249,1.657-2.544A13.594,13.594,0,0,0,209.151,251.978Z" transform="translate(-133.074 -218.058)" fill="#4d5dda"/>
          </g>
        </g>
        <path id="Path_4502" data-name="Path 4502" d="M161.694,244.62l.876,19.994-6.07-5Z" transform="translate(-131.77 -216.58)" fill="#353535" opacity="0.27"/>
      </g>
      <g id="Group_9887" data-name="Group 9887" transform="translate(19.139 0)">
        <path id="Path_4503" data-name="Path 4503" d="M210.626,211.48a13.95,13.95,0,0,0-3.42-5.437,10.961,10.961,0,0,0-1.763-11.253l-3.927-4.054c0-.992-.011-1.985-.1-2.988a18.951,18.951,0,0,0-.665-3.515l-.644-4.159c-1.383-8.941-7.844-15.085-18.907-13.386l-1.309.137a20.439,20.439,0,0,0-3.389-.464,12.957,12.957,0,0,0-11.749,5.542,10.689,10.689,0,1,0-11.232,15.951,18.055,18.055,0,0,0-5.067,5.4,11.814,11.814,0,0,0-.792,9.3c.771,2.185,2.217,4.37,1.657,6.608a11.5,11.5,0,0,1-1.942,3.346,4.169,4.169,0,0,0-.813,3.653c.623,1.6,2.65,2.059,4.37,2.175,2.586.169,5.183.1,7.77.011,8.656-.274,17.3-.581,25.937-1.045,2.27,2.312,10.873,5.511,10.873,5.511l5.606-1.108c2.259-.169,1.436-2.639,1.256-5.595q2.819-.238,5.637-.507a3.918,3.918,0,0,0,1.742-.454C210.922,214.467,211.006,212.789,210.626,211.48Z" transform="translate(-144.88 -166.347)" fill="#390028"/>
        <g id="Group_9886" data-name="Group 9886" transform="translate(15.324 16.988)">
          <g id="Group_9875" data-name="Group 9875">
            <g id="Group_9874" data-name="Group 9874">
              <g id="Group_9873" data-name="Group 9873">
                <g id="Group_9872" data-name="Group 9872">
                  <path id="Path_4504" data-name="Path 4504" d="M194.944,185.121a2.653,2.653,0,0,1-2.206-.728l-1.911-1.953c-.686.106-.042,3.3-.718,3.357a22.133,22.133,0,0,1-13.692-3.325c-.327,4.993-2.607,8.889-5.88,9.343l-3.99.718-2.217.253a5.587,5.587,0,0,0-4.9,6.165h0a5.587,5.587,0,0,0,6.165,4.9l.148-.021v20.3a8.387,8.387,0,0,0,8.361,8.361h3.579a8.387,8.387,0,0,0,8.361-8.361v-6.64A13.032,13.032,0,0,0,197,203.131Z" transform="translate(-159.396 -182.44)" fill="#ffac79"/>
                </g>
                <path id="Path_4505" data-name="Path 4505" d="M185.929,214.533l-2.9.338a12.932,12.932,0,0,1-14.315-11.38l-.137-1.151-1.214.137.327,2.84a12.968,12.968,0,0,0,3.515,7.5,7.229,7.229,0,0,0,13.9,3.631A13.064,13.064,0,0,0,196,207.5,12.868,12.868,0,0,1,185.929,214.533Z" transform="translate(-158.952 -181.332)" fill="#ff755f" opacity="0.32"/>
              </g>
            </g>
          </g>
          <g id="Group_9885" data-name="Group 9885" transform="translate(3.127 5.095)">
            <path id="Path_4506" data-name="Path 4506" d="M163.078,199.6a.551.551,0,0,1-.443-.232.526.526,0,0,1,.148-.728l1.552-1.045-1.837-2.006a.53.53,0,1,1,.781-.718l2.259,2.449a.517.517,0,0,1,.137.422.56.56,0,0,1-.232.38l-2.069,1.383A.494.494,0,0,1,163.078,199.6Z" transform="translate(-162.358 -186.853)" fill="#ff755f"/>
            <g id="Group_9882" data-name="Group 9882" transform="translate(13.196)">
              <g id="Group_9877" data-name="Group 9877" transform="translate(5.859 2.673)">
                <g id="Group_9876" data-name="Group 9876" transform="translate(0 22.102)">
                  <path id="Path_4507" data-name="Path 4507" d="M184.337,212.651a.536.536,0,0,1-.38-.158,2.516,2.516,0,0,0-2.787-.454.534.534,0,0,1-.464-.961,3.573,3.573,0,0,1,4,.665.532.532,0,0,1-.011.75A.473.473,0,0,1,184.337,212.651Z" transform="translate(-180.409 -210.735)" fill="#ff755f"/>
                </g>
                <path id="Path_4508" data-name="Path 4508" d="M184.251,200.631a.385.385,0,0,1-.391-.369.393.393,0,0,1,.369-.422l1.594-.106a3.682,3.682,0,0,0,2.3-.971,2.463,2.463,0,0,0,.813-1.953.553.553,0,0,0-.179-.348.95.95,0,0,0-.633-.2,1.99,1.99,0,0,1-2.2-1.6l-.528-4.413a.394.394,0,0,1,.348-.443.4.4,0,0,1,.443.348l.528,4.413a1.224,1.224,0,0,0,1.362.908,1.693,1.693,0,0,1,1.2.391,1.3,1.3,0,0,1,.454.887,3.251,3.251,0,0,1-1.056,2.576,4.476,4.476,0,0,1-2.8,1.193l-1.594.106A.08.08,0,0,1,184.251,200.631Z" transform="translate(-180.217 -189.798)" fill="#ff755f"/>
              </g>
              <g id="Group_9881" data-name="Group 9881">
                <g id="Group_9880" data-name="Group 9880">
                  <g id="Group_9878" data-name="Group 9878">
                    <path id="Path_4509" data-name="Path 4509" d="M180.624,187.291a3.4,3.4,0,0,0-1.383.179c-.475.127-.961.243-1.383.338s-.918.169-1.4.243a3.439,3.439,0,0,0-1.341.38c-.338.232-.391.707.158,1.161a3.867,3.867,0,0,0,3.1.517,3.71,3.71,0,0,0,2.607-1.7C181.278,187.777,181.025,187.365,180.624,187.291Z" transform="translate(-174.859 -187.266)" fill="#390028"/>
                  </g>
                  <g id="Group_9879" data-name="Group 9879" transform="translate(15.016 0.839)">
                    <path id="Path_4510" data-name="Path 4510" d="M189.365,188.535a2.993,2.993,0,0,1,1.182-.19c.433-.011.855-.032,1.225-.063s.8-.084,1.225-.148a2.9,2.9,0,0,1,1.2-.011c.327.106.5.486.158.992a3.337,3.337,0,0,1-2.439,1.193,3.212,3.212,0,0,1-2.576-.76C188.943,189.094,189.048,188.693,189.365,188.535Z" transform="translate(-189.083 -188.062)" fill="#390028"/>
                  </g>
                </g>
              </g>
            </g>
            <path id="Path_4511" data-name="Path 4511" d="M166.135,200.546a1.283,1.283,0,1,1-1.309-1.256A1.278,1.278,0,0,1,166.135,200.546Z" transform="translate(-162.291 -186.597)" fill="#fff"/>
            <path id="Path_4512" data-name="Path 4512" d="M184.51,204.576c-2.059,0-3.494-.464-4.286-1.383a2.688,2.688,0,0,1-.591-2.249.365.365,0,1,1,.707.179,1.88,1.88,0,0,0,.443,1.6c.57.655,1.942,1.362,5.278,1.035a.374.374,0,0,1,.4.327.367.367,0,0,1-.327.4A14.855,14.855,0,0,1,184.51,204.576Z" transform="translate(-161.399 -186.52)" fill="#ff755f"/>
            <g id="Group_9883" data-name="Group 9883" transform="translate(28.048 4)">
              <path id="Path_4513" data-name="Path 4513" d="M195.422,193.868a3.133,3.133,0,0,0-2.819-2.8,3.279,3.279,0,0,0-.918.042,4.08,4.08,0,0,0-2.629,2.333,1.2,1.2,0,0,0,.169,1.33,2.136,2.136,0,0,1,4.233.148c0,.1-.011.179-.011.264.591-.063,1.087-.137,1.446-.211a.733.733,0,0,0,.57-.823C195.454,194.058,195.433,193.963,195.422,193.868Z" transform="translate(-188.927 -191.056)" fill="#fff"/>
              <path id="Path_4514" data-name="Path 4514" d="M191.185,192.89a2.1,2.1,0,0,0-1.985,1.784,1.05,1.05,0,0,0,.644.369,14.611,14.611,0,0,0,3.579.042,1.085,1.085,0,0,0,.011-.264A2.1,2.1,0,0,0,191.185,192.89Z" transform="translate(-188.912 -190.954)" fill="#390028"/>
            </g>
            <g id="Group_9884" data-name="Group 9884" transform="translate(13.838 4.098)">
              <path id="Path_4515" data-name="Path 4515" d="M183.989,194.75a3.949,3.949,0,0,0-3.568-3.568,4.136,4.136,0,0,0-1.2.021,5.289,5.289,0,0,0-3.558,2.787,1.426,1.426,0,0,0,.982,2.122c.253.042.5.074.75.106a2,2,0,0,1-.084-.56,2.812,2.812,0,0,1,5.595-.137,2.274,2.274,0,0,1-.084.655c.158-.021.306-.042.433-.053a.924.924,0,0,0,.792-1C184.021,195,184.01,194.877,183.989,194.75Z" transform="translate(-175.467 -191.148)" fill="#fff"/>
              <path id="Path_4516" data-name="Path 4516" d="M179.934,192.94a2.683,2.683,0,0,0-2.734,2.607,2.471,2.471,0,0,0,.084.559,22.523,22.523,0,0,0,5.416-.042,2.228,2.228,0,0,0,.084-.654A2.667,2.667,0,0,0,179.934,192.94Z" transform="translate(-175.371 -191.048)" fill="#390028"/>
            </g>
          </g>
        </g>
      </g>
      <g id="Group_9888" data-name="Group 9888" transform="translate(72.729 34.397)">
        <path id="Path_4517" data-name="Path 4517" d="M230.276,258.4,226.9,245.485l-9.332-31.891c-.042-.148-.084-.306-.127-.454l-.253-.866-.042.021a12.934,12.934,0,0,0-5.394-6.408l-7.252-4.37-3.674-1.71c-1.087-.507-3.98-1.731-5.067.084-.676,1.816,1.9,2.893,2.861,3.357l5.183,2.491a8.078,8.078,0,0,0-4.444.813,3.732,3.732,0,0,0-1.689,4.012l.127.57.19-.137a6.037,6.037,0,0,1,3.98-1.14l1.626.116s-5.616-.4-6.239,2.3.591,2.8.591,2.8,2.808-1.647,5.215-.391c0,0-7.506-1.045-7.02,3.346.306,2.724,3.4,4.328,5.711,5.162l4.043,20.818c-.887.8-1.837,1.6-2.755,2.312l2.534,6.725a13.559,13.559,0,0,1-1.277,12.077l-1.657,2.544,13.766,3.114a10.292,10.292,0,0,0,1.256.285l.855.19.032-.084a10.2,10.2,0,0,0,5.057-.929A10.421,10.421,0,0,0,230.276,258.4ZM203.6,220.159l-.253.148-.707-.876Z" transform="translate(-195.644 -198.93)" fill="#ffac79"/>
        <path id="Path_4518" data-name="Path 4518" d="M202.633,227.669l8.055-4.645-9.068-.845" transform="translate(-195.312 -197.636)" fill="#ff8970" opacity="0.51"/>
        <path id="Path_4519" data-name="Path 4519" d="M204.247,214.773a4.911,4.911,0,0,0-1.488-.676,6.239,6.239,0,0,0-1.647-.211,7.4,7.4,0,0,0-1.657.243,8.622,8.622,0,0,0-1.573.6l-.021.011a.4.4,0,0,1-.338-.718h.011a9.916,9.916,0,0,1,1.731-.612,7.673,7.673,0,0,1,1.837-.222,6.8,6.8,0,0,1,1.837.285,5.482,5.482,0,0,1,1.689.834.3.3,0,0,1,.063.422.3.3,0,0,1-.412.063Z" transform="translate(-195.553 -198.137)" fill="#ff755f"/>
        <path id="Path_4520" data-name="Path 4520" d="M204.043,209.806a4.679,4.679,0,0,0-1.626-.306,6.374,6.374,0,0,0-1.668.19,7.37,7.37,0,0,0-1.552.633,8.3,8.3,0,0,0-1.383.961l-.011.011a.4.4,0,0,1-.5-.623l.011-.011a9.906,9.906,0,0,1,1.562-.971,7.356,7.356,0,0,1,1.731-.612,6.709,6.709,0,0,1,1.837-.127,5.44,5.44,0,0,1,1.805.433.232.232,0,0,1,.116.306.22.22,0,0,1-.3.116Z" transform="translate(-195.56 -198.374)" fill="#ff755f"/>
        <path id="Path_4521" data-name="Path 4521" d="M205.382,241.59l4.022,14.42-5.2-13.322Z" transform="translate(-195.168 -196.556)" fill="#ff755f" opacity="0.32"/>
      </g>
      <g id="Group_9894" data-name="Group 9894" transform="translate(0 71.407)">
        <g id="Group_9892" data-name="Group 9892" transform="translate(49.742)">
          <g id="Group_9891" data-name="Group 9891">
            <g id="Group_9890" data-name="Group 9890">
              <path id="Path_4522" data-name="Path 4522" d="M176.045,270.917l14.462,1.4a2.4,2.4,0,0,0,2.629-2.164l3.146-32.124a2.4,2.4,0,0,0-2.164-2.629L179.655,234a2.4,2.4,0,0,0-2.629,2.164l-3.146,32.124A2.4,2.4,0,0,0,176.045,270.917Z" transform="translate(-173.869 -233.989)" fill="#390028"/>
              <g id="Group_9889" data-name="Group 9889" transform="translate(14.151 3.406)">
                <path id="Path_4523" data-name="Path 4523" d="M188.188,239.237l4.223.422a1.017,1.017,0,0,0,1.108-.908h0a1.017,1.017,0,0,0-.908-1.108l-4.223-.422a1.017,1.017,0,0,0-1.108.908h0A1.015,1.015,0,0,0,188.188,239.237Z" transform="translate(-187.274 -237.216)" fill="#e1e2fe" opacity="0.47"/>
                <path id="Path_4524" data-name="Path 4524" d="M191.66,238.537a.535.535,0,0,0,.433.612.527.527,0,0,0,.549-.507.535.535,0,0,0-.433-.612A.527.527,0,0,0,191.66,238.537Z" transform="translate(-187.03 -237.171)" fill="#390028"/>
              </g>
            </g>
          </g>
        </g>
        <path id="Path_4525" data-name="Path 4525" d="M201.807,256.637a1.546,1.546,0,0,0-1.858-.94l1.372-.612a1.944,1.944,0,0,0,.792-2.523,2.14,2.14,0,0,0-.866-1.024h0a1.908,1.908,0,0,0,.845-2.491,1.78,1.78,0,0,0-2.249-1.2l-.792.327a1.908,1.908,0,0,0,.845-2.491,1.78,1.78,0,0,0-2.249-1.2l-13.217,5.468c-.3.127-5.479-.011-6.007-3.853l-.94,1.415c-1.013.559-1.647,2.249-2.333,3.969a19.273,19.273,0,0,0-.866,2.819l-15.782,4.93L136.62,253.47l-9.036,20.353c-2.724,7.2,1.446,15.434,9.29,18.4a13.583,13.583,0,0,0,11.148-.581,15.652,15.652,0,0,0,2.924-1.562l27.574-18.928-.021-.106c7.675.866,19.171-9.321,20.86-11.137l1.847-.982A1.755,1.755,0,0,0,201.807,256.637Z" transform="translate(-126.75 -233.412)" fill="#ffac79"/>
        <g id="Group_9893" data-name="Group 9893" transform="translate(65.546 13.818)">
          <path id="Path_4526" data-name="Path 4526" d="M189.3,250.923a.536.536,0,0,1-.137-1.024l6.7-2.776a.531.531,0,0,1,.7.285.536.536,0,0,1-.285.7l-6.7,2.776A.517.517,0,0,1,189.3,250.923Z" transform="translate(-188.841 -247.079)" fill="#ff755f"/>
          <path id="Path_4527" data-name="Path 4527" d="M190.254,254.583a.536.536,0,0,1-.137-1.024l6.7-2.776a.532.532,0,0,1,.412.982l-6.7,2.776A.488.488,0,0,1,190.254,254.583Z" transform="translate(-188.788 -246.876)" fill="#ff755f"/>
          <path id="Path_4528" data-name="Path 4528" d="M190.254,258.525a.527.527,0,0,1-.148-1l6.608-3.019a.537.537,0,0,1,.707.264.53.53,0,0,1-.264.7l-6.608,3.019A.594.594,0,0,1,190.254,258.525Z" transform="translate(-188.787 -246.669)" fill="#ff755f"/>
        </g>
        <path id="Path_4529" data-name="Path 4529" d="M157.726,258.493l-4.571-1.2-12.615,6.672Z" transform="translate(-125.983 -232.693)" fill="#ff755f" opacity="0.28"/>
      </g>
    </g>
    <path id="Path_4743" data-name="Path 4743" d="M366.178,241.688c28.665,6.34,83.568-24.61,128.489,6.038,48.4,33.023,28.23,86.377,16.268,109.5-21.4,41.382-46.758,57.519-41.282,107.173,6.255,56.7-14.016,118.176-64.5,143.115-61.481,30.372-147.17-58.637-185.517-66.994-58.509-12.755-68.817-102.316-35.96-142.512,22.572-27.613,30.405-61.665,20.806-101.73-9.606-40.1,10.96-103.039,80.645-97.937C313.374,200.416,324.239,232.415,366.178,241.688Z" transform="translate(-140.188 -61.257)" fill="#aedef8"/>
    <path id="Path_4744" data-name="Path 4744" d="M570.929,1875.835c0,13.611-71.4,24.645-159.484,24.645s-159.484-11.034-159.484-24.645,71.4-24.645,159.484-24.645S570.929,1862.224,570.929,1875.835Z" transform="translate(-206.307 -1320.939)" fill="#81bba4"/>
    <path id="Path_4745" data-name="Path 4745" d="M636.225,763.727a11.288,11.288,0,0,1-11.253,11.258H480.365a11.29,11.29,0,0,1-11.255-11.258V438.758A11.29,11.29,0,0,1,480.365,427.5H624.974a11.288,11.288,0,0,1,11.253,11.258V763.727Z" transform="translate(-371.773 -236.094)" fill="#424853"/>
    <path id="Path_4746" data-name="Path 4746" d="M503.52,819.16A10.794,10.794,0,0,1,492.76,808.4V522.573a10.794,10.794,0,0,1,10.76-10.763H637.859a10.792,10.792,0,0,1,10.76,10.763V808.4a10.792,10.792,0,0,1-10.76,10.763H503.52Z" transform="translate(-389.795 -300.338)" fill="#fff"/>
    <path id="Path_4747" data-name="Path 4747" d="M665.631,657.985a3.76,3.76,0,0,1-3.749,3.749h-132.9a3.76,3.76,0,0,1-3.749-3.749V633.959a3.76,3.76,0,0,1,3.749-3.749h132.9a3.76,3.76,0,0,1,3.749,3.749Z" transform="translate(-414.537 -390.558)" fill="#31716e"/>
    <g id="Group_10093" data-name="Group 10093" transform="translate(127.678 249.153)">
      <path id="Path_4748" data-name="Path 4748" d="M599.516,680.712a5.454,5.454,0,0,1-2.142-2.025,5.819,5.819,0,0,1,0-5.8,5.448,5.448,0,0,1,2.142-2.023,6.767,6.767,0,0,1,6.136,0,5.58,5.58,0,0,1,0,9.846,6.767,6.767,0,0,1-6.136,0Zm4.824-1.868a3.209,3.209,0,0,0,1.228-1.242,3.918,3.918,0,0,0,0-3.627,3.21,3.21,0,0,0-1.228-1.242,3.67,3.67,0,0,0-3.5,0,3.209,3.209,0,0,0-1.228,1.242,3.918,3.918,0,0,0,0,3.627,3.209,3.209,0,0,0,1.228,1.242,3.67,3.67,0,0,0,3.5,0Z" transform="translate(-596.6 -670.13)" fill="#b1dcde"/>
      <path id="Path_4749" data-name="Path 4749" d="M661.9,681.853l-2.111-3.049h-2.33v3.049H654.93V670.91h4.736a6.073,6.073,0,0,1,2.525.486,3.747,3.747,0,0,1,1.649,1.376,3.792,3.792,0,0,1,.578,2.111,3.561,3.561,0,0,1-2.252,3.453l2.454,3.518Zm-.643-8.387a2.664,2.664,0,0,0-1.735-.493h-2.063v3.815h2.063a2.628,2.628,0,0,0,1.735-.5,1.971,1.971,0,0,0,0-2.823Z" transform="translate(-641.047 -670.724)" fill="#b1dcde"/>
      <path id="Path_4750" data-name="Path 4750" d="M703.21,670.91h4.972a6.984,6.984,0,0,1,3.151.681,5.1,5.1,0,0,1,2.125,1.916,5.849,5.849,0,0,1,0,5.755,5.1,5.1,0,0,1-2.125,1.916,6.969,6.969,0,0,1-3.151.681H703.21Zm4.846,8.866a3.678,3.678,0,0,0,2.618-.914,3.627,3.627,0,0,0,0-4.955,3.678,3.678,0,0,0-2.618-.914h-2.313v6.786h2.313Z" transform="translate(-677.836 -670.724)" fill="#b1dcde"/>
      <path id="Path_4751" data-name="Path 4751" d="M765.933,679.821v2.033H757.46V670.91h8.271v2.033h-5.753v2.375h5.081v1.971h-5.081v2.532Z" transform="translate(-719.175 -670.724)" fill="#b1dcde"/>
      <path id="Path_4752" data-name="Path 4752" d="M808.5,681.853l-2.111-3.049h-2.33v3.049H801.53V670.91h4.736a6.073,6.073,0,0,1,2.525.486,3.748,3.748,0,0,1,1.649,1.376,3.793,3.793,0,0,1,.578,2.111,3.563,3.563,0,0,1-2.249,3.453l2.454,3.518Zm-.64-8.387a2.664,2.664,0,0,0-1.735-.493h-2.063v3.815h2.063a2.628,2.628,0,0,0,1.735-.5,1.971,1.971,0,0,0,0-2.823Z" transform="translate(-752.756 -670.724)" fill="#b1dcde"/>
      <path id="Path_4753" data-name="Path 4753" d="M878.437,670.91v10.943h-2.08l-5.455-6.645v6.645h-2.5V670.91h2.094l5.441,6.645V670.91Z" transform="translate(-803.71 -670.724)" fill="#b1dcde"/>
      <path id="Path_4754" data-name="Path 4754" d="M921.5,680.712a5.453,5.453,0,0,1-2.142-2.025,5.819,5.819,0,0,1,0-5.8,5.432,5.432,0,0,1,2.142-2.023,6.767,6.767,0,0,1,6.136,0,5.58,5.58,0,0,1,0,9.846,6.767,6.767,0,0,1-6.136,0Zm4.822-1.868a3.208,3.208,0,0,0,1.228-1.242,3.918,3.918,0,0,0,0-3.627,3.209,3.209,0,0,0-1.228-1.242,3.67,3.67,0,0,0-3.5,0,3.209,3.209,0,0,0-1.228,1.242,3.918,3.918,0,0,0,0,3.627,3.209,3.209,0,0,0,1.228,1.242,3.67,3.67,0,0,0,3.5,0Z" transform="translate(-841.947 -670.13)" fill="#b1dcde"/>
      <path id="Path_4755" data-name="Path 4755" d="M988.883,670.91l-3.58,10.943h-2.72l-2.409-7.409-2.485,7.409h-2.7l-3.6-10.943h2.628l2.47,7.692,2.58-7.692h2.344l2.5,7.754,2.549-7.754Z" transform="translate(-882.188 -670.724)" fill="#b1dcde"/>
    </g>
    <g id="Group_10098" data-name="Group 10098" transform="translate(114.756 398.401)">
      <g id="Group_10094" data-name="Group 10094" transform="translate(0 0)">
        <path id="Path_4756" data-name="Path 4756" d="M651.668,1473.609,542.3,1448.569c24.676-47.449,9.977-103.911,34.656-151.359q54.683,12.52,109.37,25.043C661.647,1369.7,676.344,1426.161,651.668,1473.609Z" transform="translate(-542.3 -1297.21)" fill="#ebf3e2"/>
        <path id="Path_4757" data-name="Path 4757" d="M821.26,1377.984,761.1,1364.21q1.492-4.448,3.325-8.82,30.081,6.887,60.16,13.776Q822.743,1373.532,821.26,1377.984Z" transform="translate(-709.025 -1341.543)" fill="#55b9a1"/>
        <path id="Path_4758" data-name="Path 4758" d="M773.609,1446.344q-44.28-10.139-88.559-20.276.407-1.782.857-3.549l88.559,20.278Q774.02,1444.565,773.609,1446.344Z" transform="translate(-651.075 -1392.695)" fill="#55b9a1"/>
        <path id="Path_4759" data-name="Path 4759" d="M767.942,1473.118l-88.562-20.278q.346-1.792.726-3.579l88.562,20.278Q768.285,1471.326,767.942,1473.118Z" transform="translate(-646.754 -1413.071)" fill="#55b9a1"/>
        <path id="Path_4760" data-name="Path 4760" d="M763.149,1500.121q-44.276-10.139-88.559-20.276.293-1.807.614-3.606,44.28,10.139,88.561,20.278Q763.444,1498.314,763.149,1500.121Z" transform="translate(-643.104 -1433.63)" fill="#55b9a1"/>
        <path id="Path_4761" data-name="Path 4761" d="M648.527,1875.842l-34.877-7.985q.607-1.735,1.169-3.477,17.44,3.991,34.875,7.985Q649.133,1874.111,648.527,1875.842Z" transform="translate(-596.668 -1729.391)" fill="#55b9a1"/>
        <path id="Path_4762" data-name="Path 4762" d="M723.68,1561.369q-30.078-6.887-60.16-13.776c.326-3.111.671-6.217,1.054-9.313l60.16,13.773C724.352,1555.152,724.006,1558.26,723.68,1561.369Z" transform="translate(-634.669 -1480.904)" fill="#55b9a1"/>
        <path id="Path_4763" data-name="Path 4763" d="M715.94,1640.26l-60.16-13.773q.464-4.67.907-9.346l60.158,13.773C716.545,1634.031,716.25,1637.147,715.94,1640.26Z" transform="translate(-628.771 -1540.995)" fill="#55b9a1"/>
        <path id="Path_4764" data-name="Path 4764" d="M706.8,1719.14q-30.081-6.887-60.16-13.776.65-4.627,1.173-9.285l60.161,13.773Q707.442,1714.509,706.8,1719.14Z" transform="translate(-621.807 -1601.147)" fill="#55b9a1"/>
        <path id="Path_4765" data-name="Path 4765" d="M692.8,1797.2q-30.081-6.887-60.16-13.776,1.039-4.538,1.854-9.13,30.081,6.89,60.16,13.776C694.1,1791.124,693.493,1794.168,692.8,1797.2Z" transform="translate(-611.139 -1660.743)" fill="#55b9a1"/>
        <path id="Path_4766" data-name="Path 4766" d="M960.556,1615.6q-11.72-2.685-23.446-5.369.486-4.666,1.052-9.313,11.724,2.685,23.448,5.37C961.227,1609.388,960.882,1612.492,960.556,1615.6Z" transform="translate(-843.143 -1528.635)" fill="#55b9a1"/>
        <path id="Path_4767" data-name="Path 4767" d="M952.813,1694.5l-23.443-5.367c.309-3.113.6-6.231.9-9.347l23.448,5.367Q953.269,1689.83,952.813,1694.5Z" transform="translate(-837.246 -1588.734)" fill="#55b9a1"/>
        <path id="Path_4768" data-name="Path 4768" d="M943.676,1773.364q-11.721-2.681-23.446-5.369.65-4.631,1.173-9.285,11.724,2.681,23.446,5.367Q944.317,1768.736,943.676,1773.364Z" transform="translate(-830.281 -1648.871)" fill="#55b9a1"/>
        <path id="Path_4769" data-name="Path 4769" d="M929.673,1851.429l-23.443-5.369q1.039-4.537,1.852-9.13,11.724,2.688,23.448,5.369C930.98,1845.36,930.368,1848.4,929.673,1851.429Z" transform="translate(-819.613 -1708.474)" fill="#55b9a1"/>
      </g>
      <g id="Group_10097" data-name="Group 10097" transform="translate(69.336 130.106)">
        <path id="Path_4770" data-name="Path 4770" d="M850.5,1875.608a15.889,15.889,0,1,1,14.873-16.841A15.9,15.9,0,0,1,850.5,1875.608Zm-1.93-31.133a15.3,15.3,0,1,0,16.22,14.328A15.321,15.321,0,0,0,848.565,1844.475Z" transform="translate(-833.621 -1843.861)" fill="#31716e"/>
        <path id="Path_4771" data-name="Path 4771" d="M875.592,1893.231a7.9,7.9,0,1,1,7.392-8.368A7.906,7.906,0,0,1,875.592,1893.231Zm-.94-15.177a7.309,7.309,0,1,0,7.749,6.84A7.316,7.316,0,0,0,874.652,1878.054Z" transform="translate(-859.213 -1869.46)" fill="#31716e"/>
        <g id="Group_10095" data-name="Group 10095" transform="translate(10.132 10.315)">
          <path id="Path_4772" data-name="Path 4772" d="M902,1898.338a5.564,5.564,0,0,1,.5-1.269A3.829,3.829,0,0,0,902.9,1896a.617.617,0,0,1,1.233.05,4.356,4.356,0,0,1-.531,1.557c-.29.6.721.588,1.045.409a3.168,3.168,0,0,0,1.083-3.051c-.109-.467-.226-.921-.345-1.357a.616.616,0,1,1,1.19-.321,20.905,20.905,0,0,1,.778,3.913,9.233,9.233,0,0,1,.021,1.119,5.331,5.331,0,0,1-1.559,3.5,2.453,2.453,0,0,1-1.526.564,2.046,2.046,0,0,1-1.754-.883A4.33,4.33,0,0,1,902,1898.338Z" transform="translate(-895.791 -1891.488)" fill="#31716e"/>
          <path id="Path_4773" data-name="Path 4773" d="M881.665,1900.215a5.419,5.419,0,0,0-.647-1.2,3.824,3.824,0,0,1-.538-1.011.617.617,0,0,0-1.219.2,4.279,4.279,0,0,0,.721,1.48c.359.557-.643.671-.988.533a3.164,3.164,0,0,1-1.452-2.894c.052-.474.114-.943.176-1.39a.617.617,0,1,0-1.221-.174,21.064,21.064,0,0,0-.29,3.979,9.165,9.165,0,0,0,.119,1.114,5.334,5.334,0,0,0,1.98,3.277,2.448,2.448,0,0,0,1.585.371,2.042,2.042,0,0,0,1.633-1.093A4.323,4.323,0,0,0,881.665,1900.215Z" transform="translate(-876.194 -1893.321)" fill="#31716e"/>
          <path id="Path_4774" data-name="Path 4774" d="M883.441,1889.853c0,.012,0,.026-.007.041a4.48,4.48,0,0,0,1.147,2.361c-.01-.043-.021-.086-.029-.128a.835.835,0,0,1,1.647-.271,4.027,4.027,0,0,0,.509.933,5.553,5.553,0,0,1,.666,1.245,4.877,4.877,0,0,1,.138.526l.067.036.04-.029a4.836,4.836,0,0,1,.071-.554,5.536,5.536,0,0,1,.509-1.316,3.949,3.949,0,0,0,.39-.992.835.835,0,0,1,1.668.069,1.485,1.485,0,0,1-.017.171,4.6,4.6,0,0,0,.873-2.437c-.012-.043-.021-.083-.033-.126a.813.813,0,0,1-.007-.393,22.005,22.005,0,0,1-5.6-1.575,2.2,2.2,0,0,0-2.061,2.1A.872.872,0,0,1,883.441,1889.853Z" transform="translate(-881.7 -1887.202)" fill="#31716e"/>
        </g>
        <g id="Group_10096" data-name="Group 10096" transform="translate(2.108 2.105)">
          <path id="Path_4775" data-name="Path 4775" d="M849.043,1873.779a10.264,10.264,0,1,1,15.282-.95l2.642,2.335a13.783,13.783,0,1,0-20.257,1.257Z" transform="translate(-842.478 -1852.707)" fill="#31716e"/>
          <path id="Path_4776" data-name="Path 4776" d="M879.908,1940.95a10.238,10.238,0,0,1-13.626.845l-2.332,2.642a13.755,13.755,0,0,0,18.6-1.152Z" transform="translate(-858.84 -1919.948)" fill="#31716e"/>
        </g>
      </g>
    </g>
    <g id="Group_10104" data-name="Group 10104" transform="translate(183.59 242.193)">
      <g id="Group_10099" data-name="Group 10099" transform="translate(0 21.978)">
        <path id="Path_4777" data-name="Path 4777" d="M844.351,764.712a1.41,1.41,0,0,1-1.254-.324c-1.3-1.173-2.656-2.3-3.965-3.384a74.579,74.579,0,0,1-7.238-6.586,1.406,1.406,0,0,1,2.063-1.911,71.833,71.833,0,0,0,6.974,6.336c1.328,1.1,2.7,2.244,4.046,3.453a1.408,1.408,0,0,1,.107,1.987A1.432,1.432,0,0,1,844.351,764.712Z" transform="translate(-831.521 -747.576)" fill="#f5ae8b"/>
        <path id="Path_4778" data-name="Path 4778" d="M863.56,746.41a1.3,1.3,0,0,1-1.28-.424c-1.073-1.264-2.192-2.485-3.273-3.668a72.741,72.741,0,0,1-5.907-7.038,1.3,1.3,0,0,1,2.121-1.5,69.24,69.24,0,0,0,5.7,6.786c1.1,1.2,2.23,2.437,3.337,3.739a1.3,1.3,0,0,1-.7,2.106Z" transform="translate(-847.781 -733.232)" fill="#f5ae8b"/>
        <path id="Path_4779" data-name="Path 4779" d="M881.856,751.452a1.3,1.3,0,0,1-1.271-.417c-.69-.8-1.4-1.557-2.1-2.309a45.179,45.179,0,0,1-3.868-4.527,1.3,1.3,0,0,1,2.111-1.511,42.731,42.731,0,0,0,3.653,4.265c.726.776,1.457,1.559,2.171,2.382a1.3,1.3,0,0,1-.131,1.833A1.324,1.324,0,0,1,881.856,751.452Z" transform="translate(-864.173 -740.023)" fill="#f5ae8b"/>
        <path id="Path_4780" data-name="Path 4780" d="M848.153,748.851a1.294,1.294,0,0,1-1.226-.366c-1.392-1.447-2.842-2.842-4.241-4.189a84.9,84.9,0,0,1-7.673-8.08,1.3,1.3,0,1,1,2.03-1.621,82.142,82.142,0,0,0,7.445,7.828c1.418,1.364,2.885,2.777,4.31,4.26a1.3,1.3,0,0,1-.036,1.837A1.251,1.251,0,0,1,848.153,748.851Z" transform="translate(-833.966 -733.897)" fill="#f5ae8b"/>
        <path id="Path_4781" data-name="Path 4781" d="M855.306,800.691c-5.993,1.371-10.391-4.025-12.429-6.524a12.96,12.96,0,0,0-.914-1.062,1.3,1.3,0,0,1,1.726-1.942,12.858,12.858,0,0,1,1.2,1.361c3.37,4.137,7.173,7.569,12.086,4.715a1.3,1.3,0,0,1,1.3,2.247A10.575,10.575,0,0,1,855.306,800.691Z" transform="translate(-839.146 -777.126)" fill="#f5ae8b"/>
        <path id="Path_4782" data-name="Path 4782" d="M857.369,768.164c2.171,2.687.509,5.7-2.349,2.494l4.408,6.571c2.2.743,4.482,1.514,6.826,1.128,3.737-.619,7.521-3.327,6.645-7.483-.85-4.025-4.474-7.242-7.676-9.534Z" transform="translate(-849.427 -754.65)" fill="#f5ae8b"/>
      </g>
      <path id="Path_4783" data-name="Path 4783" d="M985.107,832.368c-36.06.107-68.35-21.456-86.517-42.7l2.592-11.955c5.96,8.054,18.3,17.034,26.426,22.187,15.927,10.108,36,12.526,54.617,10.839Z" transform="translate(-882.627 -745.146)" fill="#f5ae8b"/>
      <path id="Path_4784" data-name="Path 4784" d="M912.05,800.707c-.547-4.66-5.95-3.549-4.132.845-.84-2.568-5.367-3.665-5.169-.845.1,1.366,1.913,2.363,3.108,3.146-3.356-2.8-7.4,1.566-2.535,2.851-2.478-.714-6.414-.307-5.322,3.075.935,2.9,6.257,2.43,8.613,2.111Z" transform="translate(-882.035 -760.374)" fill="#eaf6fd"/>
      <path id="Path_4785" data-name="Path 4785" d="M933.638,807.028c-4.9-3.408-14.7,4.746-12.291,13.235,5.505,19.388,51.576,38.462,86.741,39.485,17.655.078,17.772-26.4.117-26.48C988.344,832.725,954.43,821.473,933.638,807.028Z" transform="translate(-899.682 -766.881)" fill="#27a499"/>
      <g id="Group_10100" data-name="Group 10100" transform="translate(72.853 304.191)">
        <path id="Path_4786" data-name="Path 4786" d="M1137.772,1933.925c.024-1.773,2.33-4.313,5.127-5.641l20.8-9.244c4.605.064,5.11-.114,9.715-.052,4.739,4.377,6.324,10.877,4.163,15.8l-39.821-.078C1137.765,1934.458,1137.77,1934.2,1137.772,1933.925Z" transform="translate(-1137.727 -1918.974)" fill="#e5a344"/>
        <path id="Path_4787" data-name="Path 4787" d="M1177.476,1985.168a10.392,10.392,0,0,1-1.468,2.423c-13.528-.191-24.86.128-38.388-.06l.033-2.442Z" transform="translate(-1137.62 -1969.354)" fill="#d7d6d6"/>
      </g>
      <path id="Path_4788" data-name="Path 4788" d="M1233.282,1265.321,1191,1257.41c-11.684,61.029,11.013,107.992,7.566,158.918l14.768.655c9.125-31.479,7.945-58.637-1.366-73.977C1220.678,1318.539,1229.289,1289.536,1233.282,1265.321Z" transform="translate(-1102.873 -1110.675)" fill="#f18e7f"/>
      <g id="Group_10101" data-name="Group 10101" transform="translate(126.77 296.054)">
        <path id="Path_4789" data-name="Path 4789" d="M1364.252,1909.343c-.488-1.707.992-4.8,3.289-6.878l17.27-14.832c4.429-1.261,4.863-1.578,9.292-2.842,5.8,2.83,9.185,8.6,8.528,13.938l-38.161,11.37C1364.395,1909.854,1364.323,1909.6,1364.252,1909.343Z" transform="translate(-1364.159 -1884.79)" fill="#f3c252"/>
        <path id="Path_4790" data-name="Path 4790" d="M1403.619,1943.35a10.345,10.345,0,0,1-.709,2.742c-13.012,3.708-23.772,7.271-36.781,10.977,0,0-.29-1-.669-2.349Z" transform="translate(-1365.15 -1929.412)" fill="#d7d6d6"/>
      </g>
      <g id="Group_10102" data-name="Group 10102" transform="translate(90.509 129.543)">
        <path id="Path_4791" data-name="Path 4791" d="M1260.5,1204.99a24.581,24.581,0,0,0-48.348,8.878C1225.625,1215.257,1247.655,1210.959,1260.5,1204.99Z" transform="translate(-1211.803 -1185.174)" fill="#e51f5c"/>
        <path id="Path_4792" data-name="Path 4792" d="M1262.767,1349.927c-.914-22.141.431-43.483-3.606-65.123.355-.659.671-1.34.962-2.03a24.6,24.6,0,0,0,1.495-14.268c0-.024-.012-.05-.019-.076-12.843,5.969-34.875,10.265-48.348,8.878.033.2.062.4.1.6.29,1.485,3.737,13.4,4.02,14.409,15.192,54.187,34.713,81.807,50.75,127.111l12.988-3.142C1278.9,1388.218,1274.593,1364.117,1262.767,1349.927Z" transform="translate(-1212.906 -1248.615)" fill="#f5ae8b"/>
      </g>
      <path id="Path_4793" data-name="Path 4793" d="M1186.99,1666.229c.126,6.6,1.818,13.531,7.935,4.891.652,6.586,7.995,7.335,10.858,1.847.428,6.233,9.461,7.088,9.708.319,2.992,5.855,13.014,4.772,14.328-1.847,1.547,8.216,13.811,4.555,13.107-2.877.535,7.552,10.434,4.175,9.57-2.858,3.056,9.161,12.345,4.377,11.843-3.853.174,3.677,3.1,6.659,5.681,3.084,3.246-4.5-4.482-15.4-5.36-19.8Z" transform="translate(-1102.387 -1406.116)" fill="#eaf6fd"/>
      <g id="Group_10103" data-name="Group 10103" transform="translate(75.817 57.241)">
        <path id="Path_4794" data-name="Path 4794" d="M1211.431,953.7c-7.545-17.262-5.017-22.551-4.56-43.186.5-22.827-14-31.074-27.182-28.734-14.925,2.649-26.9,26.19-28.768,33.863a26.072,26.072,0,0,0,.866,15.932c7.057-2.647,13.1-9.206,15.92-21.128,4.063-17.179,26.928-14.682,26.314,2.963-1.059,30.519-19.259,67.158-36.677,82.207-2.392,16.727-.89,62.231,1.54,89.485,20.438,3.525,70.464-1.076,80.61-13.681C1235.682,1021,1221.037,975.67,1211.431,953.7Z" transform="translate(-1150.072 -881.393)" fill="#56b99f"/>
        <path id="Path_4795" data-name="Path 4795" d="M1199.514,969.082c.614-17.643-22.251-20.142-26.314-2.963-2.82,11.922-8.863,18.481-15.92,21.128,2.4,6.6,6.721,12.417,8.939,20.483,2.806,10.2-.552,23.8-3.38,43.557C1180.255,1036.24,1198.455,999.6,1199.514,969.082Z" transform="translate(-1155.564 -937.071)" fill="#27a499"/>
      </g>
      <path id="Path_4796" data-name="Path 4796" d="M1105.03,1030.213c-6.738,35.427-34.037,63.038-58.344,76.842l-11.246-4.812c9.039-4.322,20.195-14.735,26.8-21.735,12.945-13.719,19.128-32.964,21.006-51.568Z" transform="translate(-986.906 -936.582)" fill="#f5ae8b"/>
      <path id="Path_4797" data-name="Path 4797" d="M982.2,1345.159a1.446,1.446,0,0,1-.283-.029,1.406,1.406,0,0,1-1.1-1.659c1.7-8.323,8.478-15.611,17.277-18.564a1.407,1.407,0,1,1,.895,2.668c-7.864,2.639-13.914,9.1-15.416,16.458A1.406,1.406,0,0,1,982.2,1345.159Z" transform="translate(-945.263 -1162.052)" fill="#f5ae8b"/>
      <path id="Path_4798" data-name="Path 4798" d="M995.6,1362.824a1.406,1.406,0,0,1-1.4-1.361c-.2-6.39,2.632-13.29,7.583-18.46a1.406,1.406,0,1,1,2.03,1.947c-4.439,4.634-6.981,10.775-6.8,16.422a1.409,1.409,0,0,1-1.361,1.452Z" transform="translate(-955.472 -1175.566)" fill="#f5ae8b"/>
      <path id="Path_4799" data-name="Path 4799" d="M1011.263,1369.911a1.405,1.405,0,0,1-1.388-1.19c-.916-5.848,1.461-12.369,3.777-16.177a1.407,1.407,0,0,1,2.4,1.461c-2.068,3.4-4.2,9.182-3.4,14.278a1.408,1.408,0,0,1-1.173,1.609A1.192,1.192,0,0,1,1011.263,1369.911Z" transform="translate(-967.273 -1182.651)" fill="#f5ae8b"/>
      <path id="Path_4800" data-name="Path 4800" d="M1024.87,1373.693a1.408,1.408,0,0,1-1.138-.581c-2.647-3.641-2.463-9.261-1.5-12.964a1.406,1.406,0,0,1,2.723.7c-.871,3.358-.883,7.942,1.054,10.605a1.406,1.406,0,0,1-.312,1.966A1.37,1.37,0,0,1,1024.87,1373.693Z" transform="translate(-976.346 -1188.156)" fill="#f5ae8b"/>
      <path id="Path_4801" data-name="Path 4801" d="M1038.085,1326.939c1.925,3.6-.174,8.471-4.686,10.882s-9.73,1.445-11.653-2.154.176-8.473,4.686-10.881S1036.162,1323.34,1038.085,1326.939Z" transform="translate(-975.928 -1161.004)" fill="#f5ae8b"/>
      <path id="Path_4802" data-name="Path 4802" d="M1072.14,1300.52c-1.59.088-5.719,1.109-5.046,2.751.6,1.473,1.6,1.533,3.594,1.281.231,0,.226-.01-.017-.024-2.28,2.149-1.062,3.87,1.823,2.932-.752,3.239,1.711,5.048,3.6,2-.7,2.287-.9,5.524,1.985,4.946,2.63-.526,3.239-3.706,4.384-6.017Z" transform="translate(-1010.971 -1143.525)" fill="#eaf6fd"/>
      <path id="Path_4803" data-name="Path 4803" d="M1083.721,1019.245c-3.915,4.51,3.137,15.125,11.838,13.642,19.869-3.389,43.779-47.144,48.577-81.995,1.975-17.543-24.341-20.506-26.316-2.963C1115.148,967.619,1100.315,1000.126,1083.721,1019.245Z" transform="translate(-1022.852 -865.884)" fill="#56b99f"/>
      <path id="Path_4804" data-name="Path 4804" d="M1234.965,868.724c.769,1.219-3.3,5.165-9.08,8.811s-11.1,5.615-11.865,4.394,3.3-5.165,9.08-8.811S1234.194,867.505,1234.965,868.724Z" transform="translate(-1122.913 -814.223)" fill="#eaf6fd"/>
      <path id="Path_4805" data-name="Path 4805" d="M1250.135,874.85c2.566,3.334-.145,9.725-6.055,14.273s-12.781,5.531-15.349,2.2.145-9.725,6.055-14.273S1247.569,871.516,1250.135,874.85Z" transform="translate(-1133.456 -817.659)" fill="#eaf6fd"/>
      <path id="Path_4806" data-name="Path 4806" d="M1248.15,807.424c-5.267.683-8.44-1.709-8.44-6.371V781.27a8.441,8.441,0,0,1,16.882,0v19.783C1256.592,805.715,1253.417,806.741,1248.15,807.424Z" transform="translate(-1142.559 -741.427)" fill="#f5ae8b"/>
      <path id="Path_4807" data-name="Path 4807" d="M1243.545,824.52c-3.537,2.939-5,7.019-3.268,9.106s6.01,1.395,9.549-1.547,5-7.016,3.268-9.1S1247.084,821.579,1243.545,824.52Z" transform="translate(-1142.436 -778.718)" fill="#f18e7f"/>
      <path id="Path_4808" data-name="Path 4808" d="M1179.418,679.913c-6.026,12.138-2.635,26.088,7.573,31.157s23.372-.662,29.4-12.8,2.635-26.088-7.576-31.157S1185.444,667.775,1179.418,679.913Z" transform="translate(-1094.343 -659.466)" fill="#f5ae8b"/>
      <path id="Path_4809" data-name="Path 4809" d="M1198.08,745.847a.492.492,0,0,1-.433-.255,5.4,5.4,0,0,0-5-2.956.5.5,0,0,1-.107-.988,6.418,6.418,0,0,1,5.971,3.458.494.494,0,0,1-.19.676A.482.482,0,0,1,1198.08,745.847Z" transform="translate(-1106.279 -717.646)" fill="#dfe9f0"/>
      <path id="Path_4810" data-name="Path 4810" d="M1194.912,756.863c-.236,1.166.064,2.209.664,2.33s1.276-.726,1.511-1.892-.064-2.206-.664-2.328S1195.146,755.7,1194.912,756.863Z" transform="translate(-1108.362 -727.811)" fill="#86371b"/>
      <path id="Path_4811" data-name="Path 4811" d="M1192.786,801.82c-.9,4.748-6.276,6.921-6.276,1.975Z" transform="translate(-1102.021 -763.517)" fill="#fff"/>
      <path id="Path_4812" data-name="Path 4812" d="M1167.558,758.77c-1.316,4.565-5.155,4.589-4.2,5.981a6.052,6.052,0,0,0,3.841,2.237Z" transform="translate(-1084.264 -730.714)" fill="#f5ae8b"/>
      <path id="Path_4813" data-name="Path 4813" d="M1182.287,749.105a6.5,6.5,0,1,1,6.5-6.5A6.506,6.506,0,0,1,1182.287,749.105Zm0-12.055a5.56,5.56,0,1,0,5.56,5.56A5.566,5.566,0,0,0,1182.287,737.05Z" transform="translate(-1093.852 -713.447)" fill="#86371b"/>
      <path id="Path_4814" data-name="Path 4814" d="M1242.08,768.5a.479.479,0,0,1-.26-.078.468.468,0,0,1-.131-.65l.2-.3c.721-1.071,1.619-2.4,1.283-3.6-.407-1.442-2.33-2.09-3.96-2.494a25.9,25.9,0,0,0-9.665-.59.468.468,0,0,1-.141-.926,26.833,26.833,0,0,1,10.03.607c1.878.464,4.1,1.242,4.636,3.149.455,1.614-.578,3.146-1.407,4.379l-.2.3A.463.463,0,0,1,1242.08,768.5Z" transform="translate(-1134.404 -731.372)" fill="#86371b"/>
      <path id="Path_4815" data-name="Path 4815" d="M1242.91,691.269c-.281-5.524-3.7-8.521-8.916-9.306,1.721-3.549,3.263-8.2.883-11.807-2.068-3.137-6.474-3.875-8.464-7.05-2.113-3.37-.876-5.691-.7-9,.328-6.431-9.582-12.557-15.97-10.053-1.123-3.035-4.251-3.365-8-3.087-6.281.469-13.55,4.927-18.367,9.042-2.025,1.733-5.488,5.139-4.346,8.2,1.583,4.229,10.363,4.853,14.1,4.27.143,2.544.8,4.413,3.092,5.691,1.842,1.031,5.841.857,6.743,3.1.859,2.142-1.906,5.191-2.282,7.262-.6,3.28,1.019,3.242,2.62,5.334,1.345,1.754.957,1.652-.326,3.813-1.411,2.382-2.808,4.81-2.373,7.7,1.694,11.224,19.961,14.821,28.615,12.6C1236.772,706.035,1243.329,699.483,1242.91,691.269Z" transform="translate(-1096.147 -640.888)" fill="#dfe9f0"/>
      <path id="Path_4816" data-name="Path 4816" d="M1269.793,755.792c-3.661,0-6.759-1.2-7.516-6.257-.533-3.565.236-7.019,2.421-10.874,1.281-2.256,1.661-3.763,1.2-4.743-.659-1.411-3.213-1.875-6.448-2.463-1.785-.324-2.785-.859-3.144-1.683-.493-1.128.378-2.5,1.3-3.946a15.712,15.712,0,0,0,1.388-2.492,3.317,3.317,0,0,0,.109-2.763c-.809-1.659-3.556-2.456-6.212-3.225-3.02-.876-6.145-1.783-7-4.039-.533-1.4-.133-3.135,1.226-5.3a.34.34,0,1,1,.576.362c-1.238,1.968-1.619,3.5-1.166,4.691.738,1.94,3.7,2.8,6.559,3.63,2.927.85,5.693,1.652,6.633,3.58a3.951,3.951,0,0,1-.09,3.315,16.463,16.463,0,0,1-1.445,2.6c-.823,1.292-1.6,2.511-1.252,3.308.255.581,1.143,1.014,2.642,1.285,3.561.647,6.131,1.114,6.94,2.844.569,1.214.19,2.87-1.228,5.367-2.106,3.715-2.849,7.031-2.34,10.439.8,5.341,4.327,6.069,9.377,5.522a.34.34,0,0,1,.071.676A24.417,24.417,0,0,1,1269.793,755.792Z" transform="translate(-1147.095 -691.913)" fill="#a2afbb"/>
      <path id="Path_4817" data-name="Path 4817" d="M1297.035,843.008a8.376,8.376,0,0,1-5.533-1.956,5.077,5.077,0,0,1-1.609-5.024,14.6,14.6,0,0,1,2.866-5.46,19.735,19.735,0,0,0,2.316-3.77.34.34,0,0,1,.628.262,20.208,20.208,0,0,1-2.39,3.906,13.846,13.846,0,0,0-2.751,5.2,4.432,4.432,0,0,0,1.4,4.386,8.156,8.156,0,0,0,7.462,1.428.34.34,0,0,1,.2.65A8.725,8.725,0,0,1,1297.035,843.008Z" transform="translate(-1180.701 -782.39)" fill="#a2afbb"/>
      <path id="Path_4818" data-name="Path 4818" d="M1322.2,735.081a.338.338,0,0,1-.2-.067.341.341,0,0,1-.071-.476c1.866-2.516,4.584-7.045,1.821-9.125a8.049,8.049,0,0,0-3.02-1.083c-2.118-.471-4.52-1-4.565-4.058a8.4,8.4,0,0,1,.7-3.089c.335-.9.6-1.609.319-2.052s-1.123-.716-2.589-.847c-.4-.036-1.016-.026-1.733-.017-2.6.036-6.167.083-7.3-1.59a2.574,2.574,0,0,1-.036-2.528.34.34,0,0,1,.628.262,1.929,1.929,0,0,0-.029,1.885c.926,1.371,4.417,1.323,6.726,1.292.735-.01,1.371-.019,1.8.019,1.737.155,2.7.514,3.1,1.161.459.728.126,1.618-.257,2.651a7.8,7.8,0,0,0-.657,2.844c.038,2.516,1.89,2.927,4.032,3.4a8.536,8.536,0,0,1,3.282,1.2c2.43,1.83,1.849,5.312-1.683,10.072A.331.331,0,0,1,1322.2,735.081Z" transform="translate(-1192.471 -693.506)" fill="#a2afbb"/>
      <path id="Path_4819" data-name="Path 4819" d="M1367.217,822.266a7.44,7.44,0,0,1-4.939-1.7,3.434,3.434,0,0,1-1.3-3.72c.569-1.709,2.709-3.139,4.977-3.325a.339.339,0,0,1,.057.676c-2.013.167-3.9,1.4-4.386,2.863a2.769,2.769,0,0,0,1.1,3,7.526,7.526,0,0,0,7.15,1.119,6.051,6.051,0,0,0,4.367-4.182c1.3-5.484-3.813-7.4-8.325-9.1-.664-.25-1.3-.49-1.895-.733-1.973-.812-3.085-1.814-3.4-3.068-.478-1.885.983-4.013,2.475-5.845a.34.34,0,1,1,.528.428c-1.964,2.413-2.663,3.984-2.342,5.25.262,1.028,1.245,1.883,3,2.606.583.24,1.216.478,1.875.723,4.3,1.614,10.184,3.822,8.747,9.889a6.806,6.806,0,0,1-4.824,4.674A9.533,9.533,0,0,1,1367.217,822.266Z" transform="translate(-1234.625 -760.699)" fill="#a2afbb"/>
      <path id="Path_4820" data-name="Path 4820" d="M1212.174,685.723h-.026a.339.339,0,0,1-.314-.364,1.734,1.734,0,0,0-.478-1.452c-1.24-1.209-4.529-.883-6.7-.669-.624.062-1.161.114-1.552.121-4.313.079-8.649-.238-11.11-3.039a4.367,4.367,0,0,1-.878-4.772c1.252-3.075,5.593-5.636,8.642-5.872a.339.339,0,1,1,.052.676c-2.792.217-6.923,2.644-8.064,5.45a3.682,3.682,0,0,0,.762,4.068c2.278,2.594,6.433,2.882,10.589,2.808.364-.007.888-.06,1.5-.119,2.3-.226,5.781-.571,7.245.859a2.4,2.4,0,0,1,.683,1.987A.35.35,0,0,1,1212.174,685.723Z" transform="translate(-1105.253 -662.824)" fill="#a2afbb"/>
      <path id="Path_4821" data-name="Path 4821" d="M1242.183,680.784a.322.322,0,0,1-.083-.012.342.342,0,0,1-.245-.414,1.037,1.037,0,0,0-.121-.971c-.707-.84-3.4-.631-5.781-.445-2.677.207-5.205.4-6.3-.519a3.1,3.1,0,0,1-1.169-3.177c.483-2.185,3.123-4.325,5.186-4.882a.342.342,0,0,1,.417.24.338.338,0,0,1-.24.417c-1.873.5-4.282,2.482-4.7,4.372a2.433,2.433,0,0,0,.943,2.511c.885.745,3.392.55,5.812.362,2.789-.217,5.424-.421,6.355.685a1.68,1.68,0,0,1,.26,1.578A.338.338,0,0,1,1242.183,680.784Z" transform="translate(-1133.941 -663.34)" fill="#a2afbb"/>
      <path id="Path_4822" data-name="Path 4822" d="M1313.5,681.189a.331.331,0,0,1-.209-.074,5.571,5.571,0,0,0-3.734-.919c-1.159,0-2.251,0-2.994-.776-.638-.662-.9-1.783-.843-3.532a10.418,10.418,0,0,1,.276-1.733c.307-1.435.624-2.92-.321-3.839-1.211-1.178-4.517-.678-6.445-.055a.34.34,0,0,1-.209-.647c1.792-.581,5.588-1.283,7.128.214,1.214,1.181.84,2.925.512,4.467a10.065,10.065,0,0,0-.262,1.616c-.055,1.53.16,2.525.655,3.037.543.564,1.454.566,2.509.569a6.214,6.214,0,0,1,4.156,1.064.343.343,0,0,1,.057.478A.368.368,0,0,1,1313.5,681.189Z" transform="translate(-1187.571 -662.258)" fill="#a2afbb"/>
      <path id="Path_4823" data-name="Path 4823" d="M1246.445,762.768c-2.1,2.949-2.221,6.474-.262,7.868s5.25.133,7.35-2.82,2.221-6.471.262-7.869S1248.544,759.815,1246.445,762.768Z" transform="translate(-1146.429 -731.177)" fill="#f5ae8b"/>
    </g>
    <g id="Group_10119" data-name="Group 10119" transform="translate(112.619 278.773)">
      <rect id="Rectangle_17472" data-name="Rectangle 17472" width="52.675" height="5.65" transform="translate(0 111.943)" fill="#55b9a1"/>
      <rect id="Rectangle_17473" data-name="Rectangle 17473" width="5.65" height="5.65" transform="translate(58.654 111.943)" fill="#55b9a1"/>
    </g>
  </g>
</svg>
