<svg xmlns="http://www.w3.org/2000/svg" xmlns:xlink="http://www.w3.org/1999/xlink" width="374.107" height="319.855" viewBox="0 0 374.107 319.855">
  <defs>
    <clipPath id="clip-path">
      <rect id="Rectangle_17518" data-name="Rectangle 17518" width="112.432" height="232.005"/>
    </clipPath>
  </defs>
  <g id="Group_10480" data-name="Group 10480" transform="translate(-19.947 -225.924)">
    <g id="Group_10192" data-name="Group 10192">
      <g id="Group_9867" data-name="Group 9867" transform="translate(139.777 411.068)">
        <g id="Group_9866" data-name="Group 9866" transform="translate(0 0)">
          <path id="Path_4465" data-name="Path 4465" d="M108.128,208.913a.834.834,0,1,1-.834-.823A.827.827,0,0,1,108.128,208.913Z" transform="translate(-100.031 -157.819)" fill="#f9b361"/>
          <path id="Path_4466" data-name="Path 4466" d="M138.008,163.373a.818.818,0,0,1-.834.813.818.818,0,1,1,.834-.813Z" transform="translate(-98.368 -160.354)" fill="#f9b361"/>
          <path id="Path_4467" data-name="Path 4467" d="M116.778,275.743a.834.834,0,0,1-1.668,0,.834.834,0,0,1,1.668,0Z" transform="translate(-99.55 -154.099)" fill="#f9b361"/>
          <path id="Path_4468" data-name="Path 4468" d="M218.488,278.013a.818.818,0,0,1-.834.813.818.818,0,1,1,0-1.636A.848.848,0,0,1,218.488,278.013Z" transform="translate(-93.889 -153.973)" fill="#f9b361"/>
          <path id="Path_4469" data-name="Path 4469" d="M257.278,278.543a.834.834,0,0,1-1.668,0,.834.834,0,0,1,1.668,0Z" transform="translate(-91.73 -153.943)" fill="#f9b361"/>
          <path id="Path_4470" data-name="Path 4470" d="M209.138,166.343a.818.818,0,0,1-.834.813.818.818,0,1,1,0-1.636A.848.848,0,0,1,209.138,166.343Z" transform="translate(-94.409 -160.189)" fill="#f9b361"/>
          <path id="Path_4471" data-name="Path 4471" d="M102.038,161.283a.834.834,0,0,1-1.668,0,.834.834,0,0,1,1.668,0Z" transform="translate(-100.37 -160.47)" fill="#f9b361"/>
          <path id="Path_4472" data-name="Path 4472" d="M249.418,239.223a.818.818,0,0,1-.834.813.818.818,0,1,1,.834-.813Z" transform="translate(-92.167 -156.132)" fill="#f9b361"/>
          <path id="Path_4473" data-name="Path 4473" d="M223.153,210.152a.419.419,0,0,1-.412.412.406.406,0,0,1-.412-.412.419.419,0,0,1,.412-.412A.412.412,0,0,1,223.153,210.152Z" transform="translate(-93.582 -157.728)" fill="#f9b361"/>
          <path id="Path_4474" data-name="Path 4474" d="M262.963,216.3a.419.419,0,0,1-.412.412.406.406,0,0,1-.412-.412.419.419,0,0,1,.412-.412A.427.427,0,0,1,262.963,216.3Z" transform="translate(-91.366 -157.385)" fill="#f9b361"/>
          <path id="Path_4475" data-name="Path 4475" d="M254.218,195.883a.834.834,0,0,1-1.668,0,.834.834,0,0,1,1.668,0Z" transform="translate(-91.9 -158.544)" fill="#f9b361"/>
          <path id="Path_4476" data-name="Path 4476" d="M143.4,218.991a.593.593,0,0,1-.6.591.6.6,0,0,1-.6-.591.593.593,0,0,1,.6-.591A.6.6,0,0,1,143.4,218.991Z" transform="translate(-98.042 -157.246)" fill="#f9b361"/>
          <path id="Path_4477" data-name="Path 4477" d="M110.373,240.261a.593.593,0,0,1-.6.591.6.6,0,0,1-.6-.591.593.593,0,0,1,.6-.591A.6.6,0,0,1,110.373,240.261Z" transform="translate(-99.88 -156.062)" fill="#f9b361"/>
        </g>
      </g>
      <path id="Path_5039" data-name="Path 5039" d="M3104.718,2322.9c33.189,44.3,117.089,87.73,170.908,89.571,109.1,3.731,126.7-31.546,148.34-65.069,30.97-47.978,18.76-126,6.569-169.639-12.093-43.29-45.5-74.339-89-73.146-38.827,1.067-50.214,28.259-85.919,42.482-29.911,11.919-55.561,6.056-85.417,1.437-30.554-4.725-62.631,8.179-80.365,40.441C3064.364,2235.3,3077.488,2286.549,3104.718,2322.9Z" transform="translate(-3049.449 -1878.66)" fill="#aedef8"/>
      <path id="Path_5040" data-name="Path 5040" d="M4025.8,2674.743c21.208-3.1,46.692-7.246,55.28-30.961,2.345-6.473,7.481-13.509,13.62-9.815,7.589,4.566,3.5,15.6.04,21-13.423,20.907-41.166,28.576-68.888,28.369Z" transform="translate(-3820.043 -2307.407)" fill="#f18e7f"/>
      <path id="Path_5041" data-name="Path 5041" d="M4047.448,2835.257c-1.073-.662-2.8-1.378-3.109-.006-.271,1.22.336,1.712,1.725,2.441-2.423.375-2.4,2.033-.109,2.725-1.955,1.767-1.171,4.057,1.438,2.93-1.49,1.171-3.963,3.265-1.714,4.96,2.3,1.734,4.551-1.791,6.34-2.775Z" transform="translate(-3835.006 -2470.936)" fill="#eaf6fd"/>
      <path id="Path_5042" data-name="Path 5042" d="M4062.178,2652.412c-4.532,1.751-1.817,15.056,5.006,17.3,15.583,5.124,50.763-12.305,61.6-38.987,8.1-11.868-9.7-24.016-17.8-12.147C4096.15,2645.395,4081.394,2644.976,4062.178,2652.412Z" transform="translate(-3847.75 -2291.805)" fill="#27a499"/>
      <ellipse id="Ellipse_93" data-name="Ellipse 93" cx="180.075" cy="19.996" rx="180.075" ry="19.996" transform="translate(19.947 505.788)" fill="#81bba4"/>
      <rect id="Rectangle_17515" data-name="Rectangle 17515" width="134.723" height="254.293" transform="translate(254.508 257.645)" fill="#945d3a"/>
      <g id="Group_10160" data-name="Group 10160" transform="translate(265.652 268.789)">
        <rect id="Rectangle_17516" data-name="Rectangle 17516" width="112.432" height="232.005" transform="translate(0 0)" fill="#99cead"/>
        <g id="Group_10159" data-name="Group 10159" transform="translate(0 0)" clip-path="url(#clip-path)">
          <rect id="Rectangle_17517" data-name="Rectangle 17517" width="112.432" height="49.926" transform="translate(0 182.077)" fill="#b67d4d"/>
        </g>
      </g>
      <path id="Path_5043" data-name="Path 5043" d="M4707.646,2527.123l-47.293,20.963h-9.133V2293.8l56.426-20.965Z" transform="translate(-4327.551 -2015.186)" fill="#945d3a"/>
      <path id="Path_5044" data-name="Path 5044" d="M4756.089,2527.123l-56.429,20.963V2293.8l56.429-20.965Z" transform="translate(-4366.857 -2015.186)" fill="#c78f5f"/>
      <g id="Group_10161" data-name="Group 10161" transform="translate(340.643 404.622)">
        <path id="Path_5045" data-name="Path 5045" d="M4747.09,3077.38c0-2.728-1.307-4.94-2.92-4.94s-2.92,2.211-2.92,4.94,1.309,4.939,2.92,4.939S4747.09,3080.108,4747.09,3077.38Z" transform="translate(-4741.25 -3068.663)" fill="#f3c252"/>
        <path id="Path_5046" data-name="Path 5046" d="M4779.431,3063.353a2.23,2.23,0,0,1-.809-4.308l16.636-6.484a2.229,2.229,0,0,1,1.62,4.153l-16.64,6.484A2.122,2.122,0,0,1,4779.431,3063.353Z" transform="translate(-4770.422 -3052.408)" fill="#ffd96f"/>
        <path id="Path_5047" data-name="Path 5047" d="M4758.178,3091.269h-4.939a2.229,2.229,0,0,1,0-4.459h4.939a2.229,2.229,0,0,1,0,4.459Z" transform="translate(-4749.169 -3080.324)" fill="#ffd96f"/>
      </g>
      <path id="Path_5048" data-name="Path 5048" d="M3526.257,2711.287c-21.272-2.623-46.845-6.184-55.97-29.7-2.49-6.418-7.785-13.335-13.84-9.5-7.483,4.738-3.147,15.68.439,21,13.895,20.6,41.805,27.632,69.514,26.794Z" transform="translate(-3354.695 -2338.276)" fill="#f18e7f"/>
      <g id="Group_10163" data-name="Group 10163" transform="translate(146.184 331.567)">
        <rect id="Rectangle_17519" data-name="Rectangle 17519" width="74.575" height="85.555" transform="translate(0 21.81)" fill="#efefef"/>
        <path id="Path_5049" data-name="Path 5049" d="M3853.521,2686.73h-2.091c0-10.873-6.4-19.719-14.278-19.719s-14.281,8.846-14.281,19.719h-2.091c0-12.027,7.344-21.81,16.372-21.81S3853.521,2674.7,3853.521,2686.73Z" transform="translate(-3799.86 -2664.92)" fill="#efefef"/>
      </g>
      <path id="Path_5071" data-name="Path 5071" d="M3463.119,2683.922l-19.287,8.245-5.5-12.858c-5.5-12.862,13.793-21.106,19.289-8.245Q3460.372,2677.495,3463.119,2683.922Z" transform="translate(-3342.545 -2333.1)" fill="#e73861"/>
      <g id="Group_10171" data-name="Group 10171" transform="translate(127.605 516.365)">
        <path id="Path_5072" data-name="Path 5072" d="M3643.565,3656.942c-.019-1.406-1.848-3.416-4.061-4.468l-16.482-7.321c-3.646.051-4.048-.092-7.7-.042-3.754,3.465-5.009,8.616-3.3,12.517l31.543-.062C3643.573,3657.365,3643.569,3657.158,3643.565,3656.942Z" transform="translate(-3611.276 -3645.101)" fill="#2c6764"/>
        <path id="Path_5073" data-name="Path 5073" d="M3615.27,3711.264a8.264,8.264,0,0,0,1.165,1.917c10.717-.149,19.693.1,30.407-.045,0,0-.01-.829-.028-1.936Z" transform="translate(-3614.517 -3698.738)" fill="#d7d6d6"/>
      </g>
      <path id="Path_5074" data-name="Path 5074" d="M3443.158,3028.94l-32.827,9.129c5.288,20.737,14.144,38.192,23.3,57.034-.486,19.826,4.057,37.141,14.333,54.86l13.959-4.661C3455.731,3105.347,3454.69,3077.427,3443.158,3028.94Z" transform="translate(-3320.611 -2628.743)" fill="#b67d4d"/>
      <g id="Group_10172" data-name="Group 10172" transform="translate(75.859 518.346)">
        <path id="Path_5075" data-name="Path 5075" d="M3369.1,3667.455c-.019-1.407-1.848-3.418-4.063-4.468l-16.48-7.323c-3.648.051-4.048-.093-7.7-.042-3.756,3.467-5.009,8.614-3.3,12.515l31.544-.064C3369.109,3667.876,3369.106,3667.669,3369.1,3667.455Z" transform="translate(-3336.814 -3655.611)" fill="#31716e"/>
        <path id="Path_5076" data-name="Path 5076" d="M3340.81,3721.784a8.258,8.258,0,0,0,1.163,1.917c10.716-.149,19.692.1,30.407-.045,0,0-.01-.828-.027-1.936Z" transform="translate(-3340.057 -3709.256)" fill="#d7d6d6"/>
      </g>
      <path id="Path_5077" data-name="Path 5077" d="M3342.951,3035.45c-.424,3.723-.7,7.386-.871,11.016-.818,17.1.858,33.368,2.4,50.583-7.494,18.358-9.4,36.155-6.088,56.365l14.706.6c7.879-37.1,16.237-62.69,22.561-106.509q.628-4.344,1.225-8.933Z" transform="translate(-3260.965 -2634.026)" fill="#d28d58"/>
      <g id="Group_10173" data-name="Group 10173" transform="translate(78.363 322.633)">
        <path id="Path_5078" data-name="Path 5078" d="M3423.987,2731.926c-3.937-7.315-21.753-3.186-19.289,8.245,2.351,10.9,9.01,29.264,36.823,35.345-.264-4-.494-8.28-.571-12.522-.055-2.968-.032-5.912.106-8.733C3434.149,2750.927,3427.5,2738.448,3423.987,2731.926Z" transform="translate(-3394.215 -2707.393)" fill="#fcc551"/>
        <path id="Path_5079" data-name="Path 5079" d="M3397.4,2685.654c-27.812-6.082-34.471-24.445-36.823-35.344-2.464-11.431,15.352-15.56,19.289-8.245,3.51,6.521,10.162,19,17.066,22.335.057-1.184.132-2.349.232-3.48,1.638-18.322-2.425-34.585-13.463-41.289-9.052-5.5-22.034.234-28.129,12.125-8.61,16.793-4.757,55.755-3.718,73.766,7.345,1.092,35.394,3.844,46.628-2.868-.011-1.949-.2-4.734-.435-8.035C3397.851,2691.923,3397.615,2688.878,3397.4,2685.654Z" transform="translate(-3350.097 -2617.531)" fill="#ffd96f"/>
      </g>
      <g id="Group_10174" data-name="Group 10174" transform="translate(80.455 333.419)">
        <path id="Path_5080" data-name="Path 5080" d="M3361.81,2689l.33,7.692c9.663-23.148,23.412-19.636,27.85-10.66C3388.591,2674.552,3372.055,2666.6,3361.81,2689Z" transform="translate(-3361.693 -2674.745)" fill="#2c6764"/>
        <path id="Path_5081" data-name="Path 5081" d="M3389.487,2734.62a12.85,12.85,0,0,1-.251,4.534c-4.076,17.179-22.313,38.712-28.046,48.2l.238,5.507c5.733-9.491,25.075-31.97,29.153-49.151A13.543,13.543,0,0,0,3389.487,2734.62Z" transform="translate(-3361.19 -2723.332)" fill="#2c6764"/>
      </g>
      <path id="Path_5082" data-name="Path 5082" d="M3460.656,2546.115a6.687,6.687,0,0,1-6.685-6.687v-15.671a6.686,6.686,0,1,1,13.373,0v15.671A6.687,6.687,0,0,1,3460.656,2546.115Z" transform="translate(-3356.023 -2213.378)" fill="#f5ae8b"/>
      <path id="Path_5083" data-name="Path 5083" d="M3473.237,2567.882c2.8,2.328,3.963,5.562,2.589,7.215s-4.76,1.1-7.566-1.227-3.963-5.558-2.588-7.211S3470.433,2565.552,3473.237,2567.882Z" transform="translate(-3365.049 -2252.842)" fill="#f18e7f"/>
      <path id="Path_5084" data-name="Path 5084" d="M3439.437,2420.8c4.774,9.615,2.085,20.665-6,24.681s-18.516-.522-23.288-10.137-2.089-20.665,6-24.681S3434.663,2411.187,3439.437,2420.8Z" transform="translate(-3318.547 -2125.847)" fill="#f5ae8b"/>
      <path id="Path_5085" data-name="Path 5085" d="M3434.57,2412.047c-2.266,4.306-9.444,2.76-10.062,7-1.921,13.18-8.062,2.769-9.189,7.036-2.165,8.171-2.762,13.488-10.49,7.99-6.414-4.561-9.587-23.842,2.82-30.556,9.331-5.049,17.317-1.727,22.259,1.518C3433.846,2407.615,3435.945,2409.441,3434.57,2412.047Z" transform="translate(-3311.564 -2119.126)" fill="#b44822"/>
      <path id="Path_5086" data-name="Path 5086" d="M3551.23,2411.233c9.055-3.039,17.519-4.34,18.9-2.905s-4.842,5.062-13.9,8.1Z" transform="translate(-3434.947 -2124.663)" fill="#2c6764"/>
      <path id="Path_5087" data-name="Path 5087" d="M3545.709,2488.9a.377.377,0,0,1-.19-.051.4.4,0,0,1-.153-.535,5.084,5.084,0,0,1,4.732-2.737.394.394,0,0,1,.349.433.4.4,0,0,1-.434.349,4.269,4.269,0,0,0-3.961,2.342A.392.392,0,0,1,3545.709,2488.9Z" transform="translate(-3430.146 -2187.805)" fill="#b44822"/>
      <path id="Path_5088" data-name="Path 5088" d="M3561.777,2500.393c.187.924-.051,1.75-.526,1.844s-1.01-.575-1.2-1.5.051-1.748.524-1.844S3561.592,2499.469,3561.777,2500.393Z" transform="translate(-3442.057 -2198.62)" fill="#b44822"/>
      <path id="Path_5089" data-name="Path 5089" d="M3553.21,2548.718c.8,3.281,4.134,2.07,5.211-.068Z" transform="translate(-3436.553 -2239.004)" fill="#fff"/>
      <path id="Path_5090" data-name="Path 5090" d="M3580.49,2502.7s3.967,3.4,3.209,4.506a3.3,3.3,0,0,1-3.011,1.231Z" transform="translate(-3458.689 -2201.717)" fill="#f5ae8b"/>
      <path id="Path_5091" data-name="Path 5091" d="M3388.6,2403.288c-3.6-10.718,1.256-22.014,10.839-25.228s20.265,2.866,23.861,13.582Z" transform="translate(-3302.016 -2099.879)" fill="#25b58a"/>
      <path id="Path_5092" data-name="Path 5092" d="M3475.209,2529.784l-.222-.13a22.192,22.192,0,0,1-4.044-3.021c-1.748-1.651-2.674-3.614-2.476-5.249a3.646,3.646,0,0,1,1.974-2.749,3.6,3.6,0,0,1,1.789-.366,23.24,23.24,0,0,1,3.84.5c1.047.194,2.131.392,3.084.473l.307.024-.055.3a30.142,30.142,0,0,1-4.048,10Zm-2.981-10.959a3.043,3.043,0,0,0-3.209,2.625c-.173,1.44.711,3.271,2.306,4.781a21.471,21.471,0,0,0,3.718,2.809,30.034,30.034,0,0,0,3.757-9.27c-.9-.094-1.88-.275-2.832-.449A22.642,22.642,0,0,0,3472.228,2518.824Z" transform="translate(-3367.766 -2214.352)" fill="#fff"/>
      <path id="Path_5093" data-name="Path 5093" d="M3519.248,2507.007a.276.276,0,0,0-.39.028c-1.063,1.226-5.513,3.021-10.779,3.069l-.1,0c-.362,0-.766-.021-1.237-.059a.264.264,0,0,0-.3.229,29.486,29.486,0,0,1-3.959,9.785.28.28,0,0,0,.089.4c4.25,2.492,9.052,3.561,13.608,4.348.015,0,.032,0,.047,0a.28.28,0,0,0,.221-.108c2.251-2.909,4.985-7.4,5.211-12.283A5.724,5.724,0,0,0,3519.248,2507.007Z" transform="translate(-3395.35 -2205.157)" fill="#fff"/>
      <path id="Path_5094" data-name="Path 5094" d="M3472.728,2512.638c1.665,2.336,1.759,5.128.206,6.233s-4.159.1-5.822-2.234-1.757-5.126-.208-6.233S3471.065,2510.3,3472.728,2512.638Z" transform="translate(-3365.621 -2207.604)" fill="#f5ae8b"/>
      <path id="Path_5095" data-name="Path 5095" d="M3489.417,2760.1c-21.272-2.62-46.845-6.184-55.97-29.7-2.49-6.418-7.785-13.335-13.84-9.5-7.482,4.738-3.146,15.68.439,21,13.9,20.6,41.806,27.632,69.515,26.8Z" transform="translate(-3324.803 -2377.884)" fill="#f5ae8b"/>
      <g id="Group_10177" data-name="Group 10177" transform="translate(157.668 377.654)">
        <g id="Group_10176" data-name="Group 10176" transform="translate(4.256 4.498)">
          <path id="Path_5096" data-name="Path 5096" d="M3804.839,2936.445a15.694,15.694,0,0,0,4.031-1.114,1.115,1.115,0,1,0-1.018-1.983c-1.789.916-8.737,1.9-13.284,1.282a1.114,1.114,0,0,0-.3,2.208A38.593,38.593,0,0,0,3804.839,2936.445Z" transform="translate(-3793.306 -2933.224)" fill="#f5ae8b"/>
          <path id="Path_5097" data-name="Path 5097" d="M3827.357,2948.6a14.145,14.145,0,0,0,3.584-.954,1.114,1.114,0,1,0-1.08-1.948c-1.152.637-8.2,1.633-10.605,1.182a1.113,1.113,0,1,0-.411,2.189A31.057,31.057,0,0,0,3827.357,2948.6Z" transform="translate(-3813.292 -2943.234)" fill="#f5ae8b"/>
          <path id="Path_5098" data-name="Path 5098" d="M3831.3,2964.463a6.222,6.222,0,0,0,1.514-.411,1.115,1.115,0,0,0-.98-2c-.933.457-7.038.862-9.172.149a1.115,1.115,0,0,0-.7,2.115C3823.933,2964.974,3828.659,2964.917,3831.3,2964.463Z" transform="translate(-3815.938 -2956.522)" fill="#f5ae8b"/>
          <path id="Path_5099" data-name="Path 5099" d="M3831.035,2976.528a3.414,3.414,0,0,0,.462-.11,1.115,1.115,0,1,0-.715-2.112c-.956.324-5.512.055-6.842-.811a1.114,1.114,0,1,0-1.218,1.865C3824.531,2976.541,3829.146,2976.854,3831.035,2976.528Z" transform="translate(-3816.766 -2965.756)" fill="#f5ae8b"/>
        </g>
        <path id="Path_5100" data-name="Path 5100" d="M3780.487,2925.689a5.887,5.887,0,0,0,3.819-2.044c1.358-1.674,1.625-4.155.819-7.585l-.164-.984-1.135.145c-2.956.586-4.689-.209-4.994-.95-.241-.584.5-1.21.879-1.48a6.891,6.891,0,0,0,2.564-1.5,1.114,1.114,0,0,0-1.541-1.61c-1.037,1-2.551,1.237-3.872,1.657-3.4,1.082-6.037,3.9-6.122,6.567a7.86,7.86,0,0,0,1.853,5.878C3773.843,2925.1,3777.169,2926.222,3780.487,2925.689Z" transform="translate(-3770.733 -2909.367)" fill="#f5ae8b"/>
      </g>
      <path id="Path_5101" data-name="Path 5101" d="M3426.3,2732.726q-9.646,4.123-19.289,8.245-2.745-6.428-5.5-12.86c-5.5-12.86,13.793-21.106,19.289-8.244Q3423.549,2726.3,3426.3,2732.726Z" transform="translate(-3312.666 -2372.701)" fill="#ffd96f"/>
      <path id="Path_5102" data-name="Path 5102" d="M3210.1,2665.076a4.2,4.2,0,0,1-4.189,4.189h-27.5a4.2,4.2,0,0,1-4.189-4.189v-18.7a4.2,4.2,0,0,1,4.189-4.189h27.5a4.2,4.2,0,0,1,4.189,4.189Z" transform="translate(-3129.016 -2314.908)" fill="#55b9a1"/>
      <path id="Path_5103" data-name="Path 5103" d="M3183.161,2866.349a3.151,3.151,0,0,1-3.143,3.143h-18.265a3.152,3.152,0,0,1-3.143-3.143v-33.237a3.152,3.152,0,0,1,3.143-3.143h18.265a3.151,3.151,0,0,1,3.143,3.143Z" transform="translate(-3116.348 -2467.286)" fill="#55b9a1"/>
      <path id="Path_5104" data-name="Path 5104" d="M3220.2,2740.858a3.676,3.676,0,0,1-3.665,3.665h-26.2a3.676,3.676,0,0,1-3.665-3.665v-66.353a3.676,3.676,0,0,1,3.665-3.665h26.2a3.676,3.676,0,0,1,3.665,3.665Z" transform="translate(-3139.117 -2338.157)" fill="#2c6764"/>
      <g id="Group_10178" data-name="Group 10178" transform="translate(60.398 340.628)">
        <path id="Path_5105" data-name="Path 5105" d="M3254.81,2985.575v-3.562a5.012,5.012,0,0,1,.486-2.257,3.64,3.64,0,0,1,1.373-1.523,4.182,4.182,0,0,1,4.121,0,3.636,3.636,0,0,1,1.371,1.523,5.007,5.007,0,0,1,.488,2.257v3.562Zm6.35-3.471a2.641,2.641,0,0,0-.654-1.876,2.6,2.6,0,0,0-3.552,0,2.634,2.634,0,0,0-.656,1.876v1.657h4.861V2982.1Z" transform="translate(-3254.81 -2927.783)" fill="#b1dcde"/>
        <path id="Path_5106" data-name="Path 5106" d="M3261.194,2938.25h1.455v6.069h-7.839V2938.4h1.456v4.122h1.7v-3.641h1.41v3.641h1.814v-4.267Z" transform="translate(-3254.81 -2895.779)" fill="#b1dcde"/>
        <path id="Path_5107" data-name="Path 5107" d="M3254.81,2905.854v-1.813h6.361v-3.931h1.478v5.745Z" transform="translate(-3254.81 -2864.829)" fill="#b1dcde"/>
        <path id="Path_5108" data-name="Path 5108" d="M3254.81,2886.9v-1.814h7.839v1.814Z" transform="translate(-3254.81 -2852.641)" fill="#b1dcde"/>
        <path id="Path_5109" data-name="Path 5109" d="M3254.81,2835.48l7.839,3.394v1.792l-7.839,3.382v-1.96l5.6-2.385-5.6-2.419Z" transform="translate(-3254.81 -2812.385)" fill="#b1dcde"/>
        <path id="Path_5110" data-name="Path 5110" d="M3261.194,2799.84h1.455v6.071h-7.839v-5.924h1.456v4.122h1.7v-3.641h1.41v3.641h1.814v-4.269Z" transform="translate(-3254.81 -2783.464)" fill="#b1dcde"/>
        <path id="Path_5111" data-name="Path 5111" d="M3262.649,2757.3l-2.183,1.512v1.671h2.183v1.813h-7.839V2758.9a4.387,4.387,0,0,1,.347-1.81,2.591,2.591,0,0,1,2.5-1.6,2.556,2.556,0,0,1,2.476,1.614l2.521-1.759v1.948Zm-6.009.46a1.9,1.9,0,0,0-.353,1.242v1.478h2.732V2759a1.878,1.878,0,0,0-.358-1.242,1.411,1.411,0,0,0-2.021,0Z" transform="translate(-3254.81 -2747.362)" fill="#b1dcde"/>
        <path id="Path_5112" data-name="Path 5112" d="M3259.872,2716.029h2.777v1.813h-2.8l-5.04,3.035v-1.927l3.484-2.095-3.484-2.095v-1.781Z" transform="translate(-3254.81 -2712.98)" fill="#b1dcde"/>
      </g>
      <g id="Group_10180" data-name="Group 10180" transform="translate(240.311 509.735)">
        <path id="Path_5113" data-name="Path 5113" d="M4209.219,3621.779c.019-1.4,1.846-3.416,4.061-4.47l16.48-7.323c3.648.051,4.048-.091,7.7-.042,3.754,3.465,5.01,8.616,3.3,12.517l-31.544-.062C4209.212,3622.2,4209.216,3621.994,4209.219,3621.779Z" transform="translate(-4209.184 -3609.934)" fill="#e5a344"/>
        <path id="Path_5114" data-name="Path 5114" d="M4240.641,3676.112a8.29,8.29,0,0,1-1.164,1.921c-10.716-.153-19.692.1-30.407-.047,0,0,.009-.83.027-1.936Z" transform="translate(-4209.07 -3663.585)" fill="#d7d6d6"/>
      </g>
      <path id="Path_5115" data-name="Path 5115" d="M4295.232,2954.627l-33.493-6.267c-9.255,48.344,8.722,85.545,5.994,125.886l11.7.518c7.229-24.936,6.293-46.449-1.083-58.6C4285.25,2996.785,4292.071,2973.81,4295.232,2954.627Z" transform="translate(-4009.33 -2563.355)" fill="#f18e7f"/>
      <g id="Group_10181" data-name="Group 10181" transform="translate(283.02 503.288)">
        <path id="Path_5116" data-name="Path 5116" d="M4435.673,3595.191c-.386-1.352.787-3.8,2.605-5.449l13.68-11.749c3.509-1,3.85-1.25,7.359-2.253,4.591,2.242,7.275,6.812,6.755,11.041l-30.229,9.006C4435.787,3595.6,4435.732,3595.4,4435.673,3595.191Z" transform="translate(-4435.6 -3575.74)" fill="#f3c252"/>
        <path id="Path_5117" data-name="Path 5117" d="M4467.129,3634.31a8.126,8.126,0,0,1-.563,2.172c-10.308,2.937-18.831,5.76-29.136,8.7,0,0-.228-.8-.53-1.861Z" transform="translate(-4436.655 -3623.268)" fill="#d7d6d6"/>
      </g>
      <g id="Group_10182" data-name="Group 10182" transform="translate(254.295 371.388)">
        <path id="Path_5118" data-name="Path 5118" d="M4321.818,2891.831a19.471,19.471,0,0,0-38.3,7.032C4294.194,2899.964,4311.645,2896.559,4321.818,2891.831Z" transform="translate(-4283.243 -2876.135)" fill="#e51f5c"/>
        <path id="Path_5119" data-name="Path 5119" d="M4323.933,3023.948c-.724-17.54.343-34.443-2.856-51.585.281-.522.532-1.062.762-1.608a19.52,19.52,0,0,0,1.187-11.3c0-.019-.01-.04-.016-.061-10.173,4.729-27.626,8.131-38.3,7.031.026.156.049.314.079.471.23,1.176,2.96,10.612,3.185,11.414,12.034,42.924,27.5,64.8,40.2,100.693l10.289-2.489C4336.711,3054.279,4333.3,3035.188,4323.933,3023.948Z" transform="translate(-4284.434 -2943.694)" fill="#f5ae8b"/>
      </g>
      <path id="Path_5120" data-name="Path 5120" d="M4258.43,3352.8c.1,5.23,1.44,10.718,6.286,3.874.517,5.217,6.333,5.81,8.6,1.463.339,4.938,7.494,5.615,7.688.253,2.37,4.64,10.309,3.78,11.35-1.463,1.226,6.508,10.941,3.609,10.383-2.279.424,5.982,8.265,3.307,7.581-2.264,2.421,7.257,9.779,3.467,9.382-3.052.138,2.913,2.458,5.275,4.5,2.443,2.572-3.563-3.55-12.2-4.245-15.688Z" transform="translate(-4008.814 -2877.984)" fill="#eaf6fd"/>
      <g id="Group_10183" data-name="Group 10183" transform="translate(242.656 314.114)">
        <path id="Path_5121" data-name="Path 5121" d="M4270.12,2629.619c-5.977-13.674-3.975-17.864-3.613-34.21.4-18.082-11.089-24.613-21.534-22.762-11.823,2.1-21.308,20.746-22.788,26.825a20.653,20.653,0,0,0,.686,12.62c5.59-2.1,10.377-7.292,12.611-16.736,3.218-13.608,21.331-11.631,20.847,2.345-.839,24.176-15.256,53.2-29.053,65.12-1.9,13.25-.705,49.3,1.22,70.885,16.189,2.792,55.815-.852,63.855-10.837C4289.329,2682.938,4277.727,2647.028,4270.12,2629.619Z" transform="translate(-4221.512 -2572.345)" fill="#56b99f"/>
        <path id="Path_5122" data-name="Path 5122" d="M4262.178,2657c.486-13.976-17.626-15.956-20.847-2.345-2.234,9.443-7.021,14.639-12.611,16.736,1.9,5.225,5.325,9.836,7.081,16.226,2.223,8.081-.437,18.85-2.677,34.5C4246.92,2710.2,4261.339,2681.173,4262.178,2657Z" transform="translate(-4227.361 -2631.638)" fill="#27a499"/>
      </g>
      <path id="Path_5123" data-name="Path 5123" d="M4302.033,2559.609c.609.966-2.611,4.091-7.193,6.979s-8.789,4.446-9.4,3.48,2.611-4.091,7.193-6.979S4301.423,2558.644,4302.033,2559.609Z" transform="translate(-4030.672 -2247.664)" fill="#eaf6fd"/>
      <path id="Path_5124" data-name="Path 5124" d="M4316.936,2565.4c2.032,2.641-.116,7.7-4.8,11.306s-10.126,4.382-12.159,1.74.115-7.7,4.8-11.306S4314.9,2562.758,4316.936,2565.4Z" transform="translate(-4041.908 -2251.325)" fill="#eaf6fd"/>
      <path id="Path_5125" data-name="Path 5125" d="M4317.846,2491.193c-4.172.541-6.686-1.354-6.686-5.047v-15.671a6.687,6.687,0,0,1,13.373,0v15.671C4324.533,2489.84,4322.018,2490.652,4317.846,2491.193Z" transform="translate(-4051.602 -2170.143)" fill="#f5ae8b"/>
      <path id="Path_5126" data-name="Path 5126" d="M4314.155,2514.906c-2.8,2.329-3.961,5.56-2.589,7.213s4.761,1.107,7.565-1.226,3.961-5.558,2.589-7.213S4316.96,2512.576,4314.155,2514.906Z" transform="translate(-4051.463 -2209.853)" fill="#f18e7f"/>
      <path id="Path_5127" data-name="Path 5127" d="M4250.25,2367.833c-4.773,9.615-2.084,20.665,6,24.681s18.514-.524,23.289-10.137,2.087-20.665-6-24.681S4255.023,2358.217,4250.25,2367.833Z" transform="translate(-4000.26 -2082.864)" fill="#f5ae8b"/>
      <path id="Path_5128" data-name="Path 5128" d="M4268.267,2435.929a.4.4,0,0,1-.345-.2,4.281,4.281,0,0,0-3.959-2.342.394.394,0,0,1-.085-.782,5.082,5.082,0,0,1,4.73,2.739.392.392,0,0,1-.15.535A.381.381,0,0,1,4268.267,2435.929Z" transform="translate(-4012.949 -2144.818)" fill="#dfe9f0"/>
      <path id="Path_5129" data-name="Path 5129" d="M4266.349,2447.421c-.185.924.051,1.75.526,1.844s1.01-.575,1.195-1.5-.051-1.748-.526-1.844S4266.534,2446.5,4266.349,2447.421Z" transform="translate(-4015.188 -2155.636)" fill="#86371b"/>
      <path id="Path_5130" data-name="Path 5130" d="M4262.94,2492.78c-.713,3.763-4.97,5.483-4.97,1.565Z" transform="translate(-4008.441 -2193.667)" fill="#fff"/>
      <path id="Path_5131" data-name="Path 5131" d="M4238.1,2449.73c-1.044,3.618-4.085,3.635-3.327,4.738a4.793,4.793,0,0,0,3.042,1.772Z" transform="translate(-3989.521 -2158.734)" fill="#f5ae8b"/>
      <path id="Path_5132" data-name="Path 5132" d="M4252.377,2437.374a5.147,5.147,0,1,1,5.146-5.147A5.154,5.154,0,0,1,4252.377,2437.374Zm0-9.551a4.4,4.4,0,1,0,4.4,4.4A4.41,4.41,0,0,0,4252.377,2427.823Z" transform="translate(-3999.727 -2140.354)" fill="#86371b"/>
      <path id="Path_5133" data-name="Path 5133" d="M4310.819,2457.62a.371.371,0,0,1-.307-.577l.16-.239c.571-.849,1.28-1.9,1.014-2.851-.323-1.143-1.846-1.655-3.137-1.976a20.471,20.471,0,0,0-7.654-.468.371.371,0,0,1-.111-.733,21.249,21.249,0,0,1,7.944.481c1.488.367,3.247.984,3.673,2.494.36,1.278-.458,2.492-1.112,3.467l-.157.236A.379.379,0,0,1,4310.819,2457.62Z" transform="translate(-4042.926 -2159.435)" fill="#86371b"/>
      <path id="Path_5134" data-name="Path 5134" d="M4301.026,2371.757c-.223-4.376-2.93-6.75-7.062-7.372,1.363-2.811,2.585-6.493.7-9.353-1.638-2.485-5.126-3.069-6.7-5.584-1.672-2.67-.691-4.508-.558-7.128.26-5.094-7.591-9.947-12.651-7.964-.888-2.4-3.368-2.666-6.338-2.445-4.976.372-10.733,3.9-14.549,7.163-1.6,1.373-4.348,4.072-3.443,6.5,1.254,3.35,8.209,3.844,11.169,3.382.113,2.015.638,3.5,2.449,4.508,1.459.816,4.626.677,5.341,2.455.68,1.7-1.51,4.112-1.808,5.752-.473,2.6.807,2.568,2.076,4.225,1.065,1.39.756,1.309-.258,3.02-1.118,1.887-2.225,3.811-1.88,6.1,1.343,8.891,15.813,11.74,22.668,9.981C4296.164,2383.454,4301.356,2378.263,4301.026,2371.757Z" transform="translate(-4002.168 -2063.076)" fill="#dfe9f0"/>
      <path id="Path_5135" data-name="Path 5135" d="M4336.209,2436.787c-2.9,0-5.354-.952-5.954-4.957a13,13,0,0,1,1.917-8.614c1.014-1.786,1.316-2.981.952-3.758-.522-1.12-2.545-1.486-5.107-1.951-1.414-.256-2.206-.681-2.491-1.333-.39-.9.3-1.978,1.03-3.126a12.494,12.494,0,0,0,1.1-1.974,2.626,2.626,0,0,0,.086-2.189c-.641-1.314-2.817-1.946-4.921-2.554-2.392-.694-4.868-1.412-5.548-3.2-.423-1.111-.105-2.483.971-4.195a.27.27,0,0,1,.457.287c-.98,1.559-1.282,2.775-.924,3.716.584,1.536,2.93,2.217,5.2,2.875,2.319.673,4.51,1.308,5.254,2.835a3.13,3.13,0,0,1-.071,2.626,13.066,13.066,0,0,1-1.144,2.063c-.653,1.024-1.268,1.989-.992,2.621.2.46.9.8,2.094,1.018,2.819.513,4.856.882,5.5,2.253.45.962.15,2.274-.973,4.251a12.479,12.479,0,0,0-1.853,8.269c.633,4.231,3.427,4.808,7.428,4.374a.268.268,0,1,1,.059.533A18.788,18.788,0,0,1,4336.209,2436.787Z" transform="translate(-4056.416 -2117.414)" fill="#a2afbb"/>
      <path id="Path_5136" data-name="Path 5136" d="M4366.981,2530.566a6.632,6.632,0,0,1-4.382-1.55,4.021,4.021,0,0,1-1.274-3.98,11.548,11.548,0,0,1,2.271-4.325,15.565,15.565,0,0,0,1.833-2.985.27.27,0,0,1,.5.207,15.949,15.949,0,0,1-1.893,3.092,10.981,10.981,0,0,0-2.181,4.118,3.51,3.51,0,0,0,1.108,3.475,6.456,6.456,0,0,0,5.911,1.131.269.269,0,1,1,.16.515A6.98,6.98,0,0,1,4366.981,2530.566Z" transform="translate(-4092.229 -2213.776)" fill="#a2afbb"/>
      <path id="Path_5137" data-name="Path 5137" d="M4390.117,2420.807a.275.275,0,0,1-.161-.053.271.271,0,0,1-.056-.377c1.478-1.993,3.631-5.581,1.442-7.229a6.391,6.391,0,0,0-2.392-.858c-1.678-.374-3.581-.8-3.616-3.215a6.679,6.679,0,0,1,.554-2.449c.266-.713.476-1.274.253-1.625s-.89-.567-2.052-.671c-.314-.028-.8-.021-1.372-.013-2.061.028-4.885.066-5.782-1.26a2.038,2.038,0,0,1-.028-2,.269.269,0,1,1,.5.207,1.519,1.519,0,0,0-.021,1.491c.733,1.086,3.5,1.047,5.327,1.024.583-.01,1.086-.015,1.428.015,1.376.122,2.136.407,2.458.92.364.577.1,1.282-.2,2.1a6.186,6.186,0,0,0-.521,2.251c.03,1.994,1.5,2.319,3.194,2.7a6.752,6.752,0,0,1,2.6.952c1.925,1.45,1.465,4.208-1.333,7.979A.255.255,0,0,1,4390.117,2420.807Z" transform="translate(-4104.754 -2119.102)" fill="#a2afbb"/>
      <path id="Path_5138" data-name="Path 5138" d="M4437.268,2508.211a5.892,5.892,0,0,1-3.912-1.35,2.722,2.722,0,0,1-1.029-2.945,4.593,4.593,0,0,1,3.942-2.636.27.27,0,0,1,.045.538,4.035,4.035,0,0,0-3.476,2.268,2.19,2.19,0,0,0,.875,2.374,5.966,5.966,0,0,0,5.664.886,4.8,4.8,0,0,0,3.462-3.313c1.029-4.344-3.022-5.865-6.6-7.206-.526-.2-1.033-.388-1.5-.581-1.563-.643-2.443-1.438-2.7-2.43-.379-1.493.778-3.179,1.958-4.633a.269.269,0,1,1,.418.34c-1.556,1.912-2.11,3.156-1.855,4.159.208.817.986,1.491,2.379,2.064.462.191.963.377,1.484.573,3.405,1.279,8.067,3.028,6.929,7.834a5.391,5.391,0,0,1-3.822,3.7A7.505,7.505,0,0,1,4437.268,2508.211Z" transform="translate(-4149.639 -2190.669)" fill="#a2afbb"/>
      <path id="Path_5139" data-name="Path 5139" d="M4279.162,2373.345h-.021a.269.269,0,0,1-.249-.289,1.373,1.373,0,0,0-.379-1.15c-.982-.958-3.588-.7-5.312-.53-.494.049-.919.09-1.229.1-3.416.058-6.851-.189-8.8-2.408a3.46,3.46,0,0,1-.7-3.78c.992-2.436,4.433-4.465,6.846-4.651a.266.266,0,0,1,.289.247.269.269,0,0,1-.247.288c-2.212.172-5.485,2.1-6.39,4.317a2.919,2.919,0,0,0,.6,3.222c1.806,2.057,5.1,2.289,8.388,2.225.288-.006.7-.045,1.186-.094,1.823-.179,4.58-.451,5.739.681a1.9,1.9,0,0,1,.541,1.574A.27.27,0,0,1,4279.162,2373.345Z" transform="translate(-4011.867 -2086.435)" fill="#a2afbb"/>
      <path id="Path_5140" data-name="Path 5140" d="M4310.756,2369.581a.279.279,0,0,1-.068-.01.27.27,0,0,1-.194-.328.823.823,0,0,0-.1-.77c-.558-.665-2.694-.5-4.58-.35-2.119.164-4.122.32-4.992-.411a2.461,2.461,0,0,1-.928-2.517c.383-1.729,2.474-3.428,4.11-3.867a.269.269,0,1,1,.14.52c-1.486.4-3.392,1.967-3.724,3.463a1.925,1.925,0,0,0,.747,1.989c.7.59,2.687.436,4.606.287,2.208-.173,4.3-.336,5.034.543a1.335,1.335,0,0,1,.205,1.25A.272.272,0,0,1,4310.756,2369.581Z" transform="translate(-4042.414 -2086.991)" fill="#a2afbb"/>
      <path id="Path_5141" data-name="Path 5141" d="M4381.872,2369.6a.274.274,0,0,1-.168-.058,4.43,4.43,0,0,0-2.958-.728,3.1,3.1,0,0,1-2.374-.615,3.752,3.752,0,0,1-.667-2.8,8.258,8.258,0,0,1,.219-1.373c.244-1.137.494-2.313-.255-3.041-.959-.933-3.578-.538-5.1-.043a.27.27,0,0,1-.166-.513c1.419-.46,4.427-1.016,5.647.17.959.935.666,2.319.405,3.539a8.012,8.012,0,0,0-.208,1.28,3.37,3.37,0,0,0,.519,2.406c.43.447,1.152.448,1.987.448a4.92,4.92,0,0,1,3.292.843.271.271,0,0,1-.168.482Z" transform="translate(-4099.52 -2085.834)" fill="#a2afbb"/>
      <path id="Path_5142" data-name="Path 5142" d="M4033.96,2717.469c20.658-5.718,45.429-13,51-37.6,1.52-6.716,5.74-14.336,12.294-11.433,8.1,3.588,5.414,15.049,2.648,20.833-10.718,22.413-37.29,33.474-64.825,36.717Z" transform="translate(-3826.664 -2335.693)" fill="#f5ae8b"/>
      <g id="Group_10185" data-name="Group 10185" transform="translate(188.725 375.293)">
        <g id="Group_10184" data-name="Group 10184" transform="translate(0 4.496)">
          <path id="Path_5143" data-name="Path 5143" d="M3951,2923.915a15.717,15.717,0,0,1-4.031-1.114,1.115,1.115,0,0,1,1.018-1.983c1.787.917,8.737,1.9,13.284,1.282a1.114,1.114,0,1,1,.3,2.208A38.6,38.6,0,0,1,3951,2923.915Z" transform="translate(-3944.306 -2920.693)" fill="#f5ae8b"/>
          <path id="Path_5144" data-name="Path 5144" d="M3939.616,2936.071a14.169,14.169,0,0,1-3.586-.954,1.114,1.114,0,0,1,1.08-1.949c1.152.637,8.2,1.633,10.605,1.182a1.114,1.114,0,0,1,.413,2.189A30.974,30.974,0,0,1,3939.616,2936.071Z" transform="translate(-3935.457 -2930.702)" fill="#f5ae8b"/>
          <path id="Path_5145" data-name="Path 5145" d="M3941.442,2951.937a6.19,6.19,0,0,1-1.514-.411,1.113,1.113,0,0,1,.979-2c.933.456,7.04.862,9.172.151a1.115,1.115,0,1,1,.705,2.115C3948.808,2952.448,3944.084,2952.391,3941.442,2951.937Z" transform="translate(-3938.578 -2943.996)" fill="#f5ae8b"/>
          <path id="Path_5146" data-name="Path 5146" d="M3951.194,2964a3.5,3.5,0,0,1-.462-.111,1.115,1.115,0,0,1,.715-2.112c.958.324,5.513.055,6.842-.811a1.114,1.114,0,1,1,1.218,1.865C3957.7,2964.014,3953.083,2964.327,3951.194,2964Z" transform="translate(-3947.238 -2953.229)" fill="#f5ae8b"/>
        </g>
        <path id="Path_5147" data-name="Path 5147" d="M3984.663,2898.814c-1.32-.42-2.834-.662-3.871-1.657a1.115,1.115,0,0,0-1.542,1.61,6.887,6.887,0,0,0,2.564,1.5c.375.27,1.12.9.878,1.48-.305.739-2.038,1.537-4.994.95l-1.054-.207-.247,1.046c-.807,3.43-.54,5.911.818,7.585a5.981,5.981,0,0,0,3.819,2.042c2.136.368,6.787-.4,7.9-1.908a8.991,8.991,0,0,0,1.853-5.878C3990.7,2902.719,3988.066,2899.895,3984.663,2898.814Z" transform="translate(-3968.311 -2896.847)" fill="#f5ae8b"/>
      </g>
      <path id="Path_5148" data-name="Path 5148" d="M4048.172,2915.123c-1.073-.662-3.531-1.576-3.837-.2-.275,1.229.345,1.719,1.757,2.458.151.1.151.1,0-.022-2.455.366-2.442,2.035-.14,2.73-1.955,1.767-1.171,4.057,1.438,2.93-1.49,1.17-2.143,3.1-.762,4.215,1.563,1.252,3.6-1.046,5.386-2.029Z" transform="translate(-3835.004 -2535.641)" fill="#eaf6fd"/>
      <path id="Path_5149" data-name="Path 5149" d="M4061.627,2691.57c-4.261,2.34-1.87,12.434,5.19,13.754,16.123,3.014,55.917-20.739,61.366-49.008,2.72-14.108-13.216-21.666-19.672-8.829C4097.359,2676.031,4079.687,2681.655,4061.627,2691.57Z" transform="translate(-3847.396 -2313.867)" fill="#56b99f"/>
      <path id="Path_5150" data-name="Path 5150" d="M4312.816,2468.348l.2-.164a22.27,22.27,0,0,0,3.507-3.631c1.459-1.91,2.057-3.995,1.6-5.579a3.6,3.6,0,0,0-4.214-2.473,23.1,23.1,0,0,0-3.71,1.11c-1,.358-2.038.73-2.97.963l-.3.073.1.289a30.173,30.173,0,0,0,5.6,9.221Zm1.184-11.295a3.04,3.04,0,0,1,3.587,2.076c.4,1.393-.175,3.343-1.508,5.089a21.711,21.711,0,0,1-3.218,3.371,30.033,30.033,0,0,1-5.2-8.548c.875-.238,1.812-.573,2.723-.9A22.693,22.693,0,0,1,4314,2457.053Z" transform="translate(-4048.17 -2164.166)" fill="#fff"/>
      <path id="Path_5151" data-name="Path 5151" d="M4233,2462.142a.276.276,0,0,1,.389-.036c1.246,1.039,5.925,2.1,11.133,1.3l.1-.015c.356-.058.752-.143,1.211-.256a.267.267,0,0,1,.332.177,29.476,29.476,0,0,0,5.477,9.023.285.285,0,0,1,.077.209.289.289,0,0,1-.1.2c-3.8,3.141-8.364,4.968-12.736,6.474a.207.207,0,0,1-.046.009.276.276,0,0,1-.235-.07c-2.69-2.511-6.107-6.506-7.113-11.29A5.713,5.713,0,0,1,4233,2462.142Z" transform="translate(-3991.781 -2168.725)" fill="#fff"/>
      <path id="Path_5152" data-name="Path 5152" d="M4327.048,2455.827c-1.269,2.572-.913,5.343.8,6.184s4.121-.564,5.388-3.139.913-5.341-.8-6.184S4328.315,2453.252,4327.048,2455.827Z" transform="translate(-4063.879 -2160.936)" fill="#f5ae8b"/>
    </g>
  </g>
</svg>
