<svg xmlns="http://www.w3.org/2000/svg" xmlns:xlink="http://www.w3.org/1999/xlink" width="100" height="100" viewBox="0 0 100 100">
  <defs>
    <clipPath id="clip-path">
      <path id="Path_5639" data-name="Path 5639" d="M384.625,180.18a.81.81,0,0,0-.754-.715.821.821,0,0,0-.248.01,1.1,1.1,0,0,0-.72.591.293.293,0,0,0,.214.432,4.6,4.6,0,0,0,1.36-.035.192.192,0,0,0,.159-.208C384.63,180.234,384.63,180.209,384.625,180.18Z" transform="translate(-382.865 -179.46)"/>
    </clipPath>
  </defs>
  <g id="Group_10478" data-name="Group 10478" transform="translate(-157 -347)">
    <g id="Ellipse_104" data-name="Ellipse 104" transform="translate(157 347)" fill="#ffe78a" stroke="#000" stroke-width="3">
      <circle cx="50" cy="50" r="50" stroke="none"/>
      <circle cx="50" cy="50" r="48.5" fill="none"/>
    </g>
    <g id="Group_10362" data-name="Group 10362" transform="translate(166 371.179)">
      <g id="Group_10361" data-name="Group 10361">
        <g id="Group_10360" data-name="Group 10360">
          <g id="Group_10359" data-name="Group 10359">
            <g id="Group_10356" data-name="Group 10356">
              <g id="Group_10355" data-name="Group 10355">
                <g id="Group_10354" data-name="Group 10354" opacity="0.61">
                  <g id="Group_10353" data-name="Group 10353">
                    <g id="Group_10346" data-name="Group 10346">
                      <g id="Group_10343" data-name="Group 10343" transform="translate(0 37.579)" opacity="0.41">
                        <path id="Path_5588" data-name="Path 5588" d="M306.047,253.087a1.732,1.732,0,0,1-.06-2.2c.511-.571,1.727-.9,2.268-.253s-.228,1.573-.417,2.388C307.586,254.15,306.593,253.738,306.047,253.087Z" transform="translate(-305.62 -250.276)" fill="#ff9455"/>
                      </g>
                      <g id="Group_10344" data-name="Group 10344" transform="translate(78.518 30.363)" opacity="0.41">
                        <path id="Path_5589" data-name="Path 5589" d="M466.28,236.2a2.063,2.063,0,0,1,.313,2.556c-.506.809-1.827,1.539-2.507.933s.079-1.9.194-2.9C464.439,235.4,465.6,235.6,466.28,236.2Z" transform="translate(-463.807 -235.739)" fill="#ff9455"/>
                      </g>
                      <g id="Group_10345" data-name="Group 10345" transform="translate(41.159)" opacity="0.41">
                        <path id="Path_5590" data-name="Path 5590" d="M389.056,175.472a2.648,2.648,0,0,1,3.261-.586c1.077.6,2.1,2.234,1.38,3.152s-2.447.035-3.738-.04C388.158,177.889,388.332,176.39,389.056,175.472Z" transform="translate(-388.54 -174.567)" fill="#ff9455"/>
                      </g>
                    </g>
                    <g id="Group_10349" data-name="Group 10349" transform="translate(3.986 2.643)" opacity="0.28">
                      <g id="Group_10348" data-name="Group 10348">
                        <g id="Group_10347" data-name="Group 10347">
                          <path id="Path_5591" data-name="Path 5591" d="M314.921,231.031c-.774-4.571.467-8.473.779-12.955.293-4.244-.978-7.813-1.683-11.853a29.971,29.971,0,0,1,.367-11.208c1.072-4.825,3.549-9.3,7.113-12.022,5.554-4.244,12.965-3.748,19.1-.824,2.571,1.221,5.058,2.849,7.813,3.261,4.016.6,7.922-1.454,11.833-2.685,5.326-1.678,11.168-1.8,16.191.844a18.332,18.332,0,0,1,9.272,17.244c-.213,3.38-1.31,6.721-.923,10.081.392,3.405,2.1,6.259,3,9.466a27.144,27.144,0,0,1,.67,10.414,5.6,5.6,0,0,1-5.554,4.844H320.436a5.562,5.562,0,0,1-5.51-4.562C314.926,231.061,314.921,231.046,314.921,231.031Z" transform="translate(-313.651 -179.892)" fill="#ff9455"/>
                        </g>
                      </g>
                    </g>
                    <g id="Group_10352" data-name="Group 10352" transform="translate(13.474 17.949)" opacity="0.66">
                      <g id="Group_10351" data-name="Group 10351">
                        <g id="Group_10350" data-name="Group 10350" opacity="0.47">
                          <path id="Path_5592" data-name="Path 5592" d="M387.492,228.738a14.755,14.755,0,0,0-3.792-8.895c-3.48-3.648-8.751-4.572-13.362-3.728-1.936.352-3.852.978-5.832.784-2.889-.288-5.43-2.258-8.061-3.7-3.579-1.966-7.679-3.023-11.486-2.169a10.662,10.662,0,0,0-8.274,9.5c-.194,2.2,1.752,6.085,1.137,8.17-.62,2.12-5.162,8.6-5.053,13.536.094,4.2.874,5.932,2.025,7.907a2.074,2.074,0,0,0,1.792,1.037H382.2a2.066,2.066,0,0,0,1.966-1.42,9.421,9.421,0,0,0,.065-6.458c-.859-2.656,1.479-4.844,2.383-7.316A17.522,17.522,0,0,0,387.492,228.738Z" transform="translate(-332.766 -210.729)" fill="#ff9455"/>
                        </g>
                      </g>
                    </g>
                  </g>
                </g>
              </g>
            </g>
            <g id="Group_10358" data-name="Group 10358" transform="translate(80.326 14.892)">
              <g id="Group_10357" data-name="Group 10357">
                <path id="Path_5593" data-name="Path 5593" d="M467.45,204.57" transform="translate(-467.45 -204.57)" fill="#fff" stroke="#fca97c" stroke-width="0.5"/>
              </g>
            </g>
          </g>
        </g>
      </g>
    </g>
    <g id="Group_10369" data-name="Group 10369" transform="translate(174.111 370.272)">
      <circle id="Ellipse_94" data-name="Ellipse 94" cx="12.588" cy="12.588" r="12.588" transform="translate(1.223 26.354) rotate(-86.721)" fill="#f9b361"/>
      <circle id="Ellipse_95" data-name="Ellipse 95" cx="10.275" cy="10.275" r="10.275" transform="translate(0 15.19) rotate(-47.663)" fill="#fff"/>
      <g id="Group_10367" data-name="Group 10367" transform="translate(5.335 5.344)">
        <g id="Group_10363" data-name="Group 10363" transform="translate(4.295 0.533)">
          <path id="Path_5594" data-name="Path 5594" d="M358.784,186.253h0a.278.278,0,0,1-.109-.377l.635-1.152a.278.278,0,0,1,.377-.109h0a.278.278,0,0,1,.109.377l-.635,1.152A.282.282,0,0,1,358.784,186.253Z" transform="translate(-350.063 -184.58)" fill="#fd4932"/>
          <path id="Path_5595" data-name="Path 5595" d="M341.5,217.623h0a.278.278,0,0,1-.109-.377l.635-1.152a.278.278,0,0,1,.377-.109h0a.278.278,0,0,1,.109.377l-.635,1.152A.278.278,0,0,1,341.5,217.623Z" transform="translate(-341.36 -200.379)" fill="#fd4932"/>
        </g>
        <g id="Group_10364" data-name="Group 10364" transform="translate(0.543 4.285)">
          <path id="Path_5596" data-name="Path 5596" d="M365.2,209.564h0a.278.278,0,0,1,.377-.109l1.152.635a.278.278,0,0,1,.109.377h0a.278.278,0,0,1-.377.109l-1.152-.635A.278.278,0,0,1,365.2,209.564Z" transform="translate(-349.599 -200.843)" fill="#fd4932"/>
          <path id="Path_5597" data-name="Path 5597" d="M333.835,192.284h0a.278.278,0,0,1,.377-.109l1.152.635a.278.278,0,0,1,.109.377h0a.278.278,0,0,1-.377.109l-1.152-.635A.278.278,0,0,1,333.835,192.284Z" transform="translate(-333.8 -192.14)" fill="#fd4932"/>
        </g>
        <g id="Group_10365" data-name="Group 10365" transform="translate(0 6.319)">
          <path id="Path_5598" data-name="Path 5598" d="M367.268,196.774h0a.275.275,0,0,1,.189-.342l.645-.184a.275.275,0,0,1,.342.189h0a.275.275,0,0,1-.189.342l-.645.184A.273.273,0,0,1,367.268,196.774Z" transform="translate(-350.107 -196.237)" fill="#fd4932"/>
          <path id="Path_5599" data-name="Path 5599" d="M332.718,206.739h0a.275.275,0,0,1,.189-.342l.8-.228a.275.275,0,0,1,.343.189h0a.275.275,0,0,1-.189.343l-.8.228A.275.275,0,0,1,332.718,206.739Z" transform="translate(-332.707 -201.233)" fill="#fd4932"/>
        </g>
        <g id="Group_10366" data-name="Group 10366" transform="translate(6.323)">
          <path id="Path_5600" data-name="Path 5600" d="M355.656,218.058h0a.275.275,0,0,1,.342.189l.184.645a.275.275,0,0,1-.189.342h0a.275.275,0,0,1-.342-.189l-.184-.645A.275.275,0,0,1,355.656,218.058Z" transform="translate(-350.487 -200.902)" fill="#fd4932"/>
          <path id="Path_5601" data-name="Path 5601" d="M345.647,183.518h0a.275.275,0,0,1,.342.189l.228.8a.275.275,0,0,1-.189.342h0a.275.275,0,0,1-.342-.189l-.228-.8A.271.271,0,0,1,345.647,183.518Z" transform="translate(-345.446 -183.507)" fill="#fd4932"/>
        </g>
      </g>
      <g id="Group_10368" data-name="Group 10368" transform="translate(12.736 8.774)">
        <path id="Path_5602" data-name="Path 5602" d="M349.465,196.122h0a.307.307,0,0,1-.377-.208l-1.459-5.108a.307.307,0,0,1,.208-.377h0a.307.307,0,0,1,.377.208l1.459,5.108A.3.3,0,0,1,349.465,196.122Z" transform="translate(-347.618 -190.418)" fill="#fd4932"/>
        <path id="Path_5603" data-name="Path 5603" d="M350.869,200.9h0a.307.307,0,0,1,.208-.377l4.269-1.216a.307.307,0,0,1,.377.208h0a.307.307,0,0,1-.208.377l-4.269,1.216A.307.307,0,0,1,350.869,200.9Z" transform="translate(-349.249 -194.89)" fill="#fd4932"/>
      </g>
      <path id="Path_5604" data-name="Path 5604" d="M351.049,201.4a1.11,1.11,0,1,1-.432-1.509A1.109,1.109,0,0,1,351.049,201.4Z" transform="translate(-335.562 -186.343)" fill="#f9b361"/>
    </g>
    <g id="Group_10377" data-name="Group 10377" transform="translate(175.775 390.006)">
      <g id="Group_10373" data-name="Group 10373" transform="translate(48.028 21.622)">
        <g id="Group_10372" data-name="Group 10372" transform="translate(1.377 1.632)">
          <circle id="Ellipse_96" data-name="Ellipse 96" cx="7.331" cy="7.331" r="7.331" transform="translate(0 14.27) rotate(-76.714)" fill="#390028"/>
          <circle id="Ellipse_97" data-name="Ellipse 97" cx="4.145" cy="4.145" r="4.145" transform="translate(4.674 4.826)" fill="#fff"/>
        </g>
        <path id="Path_5607" data-name="Path 5607" d="M422.07,256.06h9.9a7.452,7.452,0,0,1,7.455,7.455H422.07Z" transform="translate(-422.07 -256.06)" fill="#f94a3d"/>
      </g>
      <path id="Path_5608" data-name="Path 5608" d="M424.726,229.2l-6.041-8.22a6.784,6.784,0,0,1-1.122-2.4l-.03-.119,1.861-.457a.266.266,0,0,0,.194-.318l-1.032-4.234a1,1,0,0,0-1.206-.735l-1.827.447a2.811,2.811,0,0,0-2.065,3.4c0,.025.015.045.02.069h0l1.787,7.326,1.434-2.224v20.48l2.864,2.611,5.564-8.845A6.2,6.2,0,0,0,424.726,229.2Z" transform="translate(-369.664 -212.592)" fill="#ff7664"/>
      <path id="Path_5609" data-name="Path 5609" d="M417.558,218.554l-.025-.109,1.861-.457a.266.266,0,0,0,.194-.318l-1.033-4.234a1,1,0,0,0-1.206-.735l-1.827.447a2.808,2.808,0,0,0-2.065,3.4c0,.025.015.045.02.07h0l.462,1.891,3.544-.03A.6.6,0,0,0,417.558,218.554Z" transform="translate(-369.664 -212.587)" fill="#ff5e4d"/>
      <path id="Path_5610" data-name="Path 5610" d="M378.28,276.788h17.79a5.156,5.156,0,0,0,5.157-5.157v-.561H375.59v3.023A2.687,2.687,0,0,0,378.28,276.788Z" transform="translate(-350.633 -241.997)" fill="#ff7664"/>
      <path id="Path_5611" data-name="Path 5611" d="M363.211,259.1l-29.31-2.571a.439.439,0,0,1-.4-.472,12.936,12.936,0,0,1,.139-1.31,9.2,9.2,0,0,1,9.029-7.455h18.772a1,1,0,0,1,.854,1.519l-1.127,1.861a5.961,5.961,0,0,0,.963,7.381Z" transform="translate(-329.433 -230.021)" fill="#ff7664"/>
      <path id="Path_5612" data-name="Path 5612" d="M363.182,247.2H342.638a9.185,9.185,0,0,0-9.2,9.2h0l15.447,1.206s-2.348-1-2.348-6.363c0-4.1,5.708-4.14,5.708-4.14" transform="translate(-329.405 -229.925)" fill="#f94a3d"/>
      <path id="Path_5613" data-name="Path 5613" d="M352.178,247.2h-10.26c-2.755,0-7.743,3.043-8.339,7.128a14.724,14.724,0,0,0-.149,2.07h0l9.332.73s-1.509-.447-1.077-5.887c.323-4.085,3.6-4.14,3.6-4.14" transform="translate(-329.4 -229.925)" fill="#390028" opacity="0.25"/>
      <g id="Group_10374" data-name="Group 10374" transform="translate(0 2.16)">
        <path id="Path_5614" data-name="Path 5614" d="M329.074,233.225h11.893a1.335,1.335,0,0,0,1.395-1.266V218.116a1.335,1.335,0,0,0-1.395-1.266H329.034a3.333,3.333,0,0,0-3.484,3.162v10.017A3.365,3.365,0,0,0,329.074,233.225Z" transform="translate(-325.431 -216.85)" fill="#ff7664"/>
        <path id="Path_5615" data-name="Path 5615" d="M329.16,247.238h11.893c.769,0,1.395-1.623,1.395-2.323,0,0-16.787-.4-16.727-.174A3.462,3.462,0,0,0,329.16,247.238Z" transform="translate(-325.516 -230.863)" fill="#ff5e4d"/>
        <path id="Path_5616" data-name="Path 5616" d="M342.362,221.208v-3.092a1.335,1.335,0,0,0-1.395-1.266H329.034a3.333,3.333,0,0,0-3.484,3.162v1.266Z" transform="translate(-325.431 -216.85)" fill="#ff5e4d"/>
        <path id="Path_5617" data-name="Path 5617" d="M342.008,245.156h-16.45a.248.248,0,0,1,0-.5h16.45a.246.246,0,0,1,.248.248A.249.249,0,0,1,342.008,245.156Z" transform="translate(-325.31 -230.856)" fill="#ff4628"/>
        <path id="Path_5618" data-name="Path 5618" d="M342.008,226h-16.45a.248.248,0,0,1,0-.5h16.45a.246.246,0,0,1,.248.248A.249.249,0,0,1,342.008,226Z" transform="translate(-325.31 -221.206)" fill="#ff4628"/>
      </g>
      <g id="Group_10375" data-name="Group 10375" transform="translate(15.59 11.059)">
        <path id="Path_5619" data-name="Path 5619" d="M375.536,243.3a.606.606,0,0,1-.586.695l-13.993-.154A3.257,3.257,0,0,1,358,241.549l-1.137-3.221a2.3,2.3,0,0,1,1.772-3.162l13.4-.387a2.915,2.915,0,0,1,2.829,2.73Z" transform="translate(-356.718 -234.778)" fill="#f94a3d"/>
      </g>
      <path id="Path_5620" data-name="Path 5620" d="M373.02,234.779l-13.4.387a1.929,1.929,0,0,0-.953.333l.913,2.586a3.257,3.257,0,0,0,2.953,2.288l13.66.154-.347-3.018A2.922,2.922,0,0,0,373.02,234.779Z" transform="translate(-342.111 -223.719)" fill="#390028" opacity="0.22"/>
      <path id="Path_5621" data-name="Path 5621" d="M391.61,237.854a3.42,3.42,0,0,0-.2-.546l-4.562-9.118h0a3.8,3.8,0,0,0-1.891,4.825l1.037,2.626a12.881,12.881,0,0,1,.9,4.735v2.651a6.453,6.453,0,0,1-6.453,6.453H373.6v-.015l-19.487-1.712v4.586h29.613c1.866,0,4.294-1.737,5.673-4.279a25.568,25.568,0,0,0,2.348-7.222A6.516,6.516,0,0,0,391.61,237.854Z" transform="translate(-339.815 -220.401)" fill="#ff5e4d"/>
      <path id="Path_5622" data-name="Path 5622" d="M423.974,214.917c.367,1.509.055,2.879-.7,3.063s-1.663-.888-2.03-2.4-.055-2.879.7-3.063S423.607,213.408,423.974,214.917Z" transform="translate(-373.548 -212.499)" fill="#ffd98b"/>
      <path id="Path_5623" data-name="Path 5623" d="M423.483,213.907c.213.869.03,1.658-.4,1.767s-.958-.511-1.171-1.38-.03-1.658.4-1.767S423.27,213.039,423.483,213.907Z" transform="translate(-373.916 -212.507)" fill="#fff" opacity="0.39"/>
      <path id="Path_5624" data-name="Path 5624" d="M408.561,219.794l-5.3,1.291a.377.377,0,0,1-.457-.278l-.139-.571a.377.377,0,0,1,.278-.457l5.3-1.291a.377.377,0,0,1,.457.278l.139.571A.385.385,0,0,1,408.561,219.794Z" transform="translate(-364.265 -215.51)" fill="#390028"/>
      <path id="Path_5625" data-name="Path 5625" d="M413.837,220.439l-.74.179a.578.578,0,0,1-.7-.427l-.377-1.554,1.3-.318Z" transform="translate(-368.98 -215.431)" fill="#390028"/>
      <path id="Path_5626" data-name="Path 5626" d="M403.091,222.525h0a.754.754,0,0,1-.913-.556l-.079-.328a.754.754,0,0,1,.556-.913h0a.754.754,0,0,1,.913.556l.079.328A.754.754,0,0,1,403.091,222.525Z" transform="translate(-363.972 -216.632)" fill="#390028"/>
      <g id="Group_10376" data-name="Group 10376" transform="translate(3.043 23.252)">
        <circle id="Ellipse_98" data-name="Ellipse 98" cx="7.331" cy="7.331" r="7.331" transform="translate(0 14.27) rotate(-76.714)" fill="#390028"/>
        <circle id="Ellipse_99" data-name="Ellipse 99" cx="4.145" cy="4.145" r="4.145" transform="translate(4.676 4.828)" fill="#fff"/>
      </g>
      <path id="Path_5627" data-name="Path 5627" d="M360.82,277h-9.55a2,2,0,0,1-2.06-1.936h0a2,2,0,0,1,2.06-1.936h9.55a2,2,0,0,1,2.06,1.936h0A2,2,0,0,1,360.82,277Z" transform="translate(-337.347 -243.035)" fill="#f94a3d"/>
      <path id="Path_5628" data-name="Path 5628" d="M349.538,274.859a2.169,2.169,0,1,1-2.169-2.169A2.171,2.171,0,0,1,349.538,274.859Z" transform="translate(-335.327 -242.813)" fill="#390028"/>
      <circle id="Ellipse_100" data-name="Ellipse 100" cx="2.169" cy="2.169" r="2.169" transform="translate(56.049 30.021)" fill="#390028"/>
    </g>
    <g id="Group_10379" data-name="Group 10379" transform="translate(201.314 381.901)">
      <g id="Group_10378" data-name="Group 10378">
        <path id="Path_5629" data-name="Path 5629" d="M398.048,206.831a1.257,1.257,0,0,0-.561-.978l-.889-.576a1.155,1.155,0,0,0-1.226-.05l-5.49-1.082-4.661-6.1-3.2,4.988,4.313,5.1,7.3.045a14.579,14.579,0,0,0,2.03.938,1.5,1.5,0,0,0,1.549-1.36l.015-.184.169.3a.359.359,0,0,0,.184.159.375.375,0,0,0,.506-.387Z" transform="translate(-379.409 -197.117)" fill="#f9a06e"/>
        <path id="Path_5630" data-name="Path 5630" d="M386.2,201.327l-5.023,3.926-4.418-4.6,6.175-4.487,3.365,4.323A.592.592,0,0,1,386.2,201.327Z" transform="translate(-376.76 -196.17)" fill="#364cc9"/>
      </g>
    </g>
    <g id="Group_10399" data-name="Group 10399" transform="translate(198.928 367.535)">
      <g id="Group_10398" data-name="Group 10398">
        <g id="Group_10382" data-name="Group 10382" transform="translate(6.516 2.869)">
          <g id="Group_10381" data-name="Group 10381">
            <g id="Group_10380" data-name="Group 10380">
              <path id="Path_5631" data-name="Path 5631" d="M388.062,174.627a1.494,1.494,0,1,1-1.43-1.618A1.527,1.527,0,0,1,388.062,174.627Z" transform="translate(-385.077 -173.007)" fill="#f94a3d"/>
            </g>
          </g>
        </g>
        <g id="Group_10395" data-name="Group 10395" transform="translate(1.696 2.046)">
          <path id="Path_5632" data-name="Path 5632" d="M382.173,173.106a1.932,1.932,0,0,0-2-1.7l-2.209-.055a1.736,1.736,0,0,0-1.936,1.6l.089,4.418-.74,4.785a1.213,1.213,0,0,0,1.077,1.32l1.707.263a1.206,1.206,0,0,0,1.425-.933l.377-2.447.134-.015a1.944,1.944,0,0,0,1.707-2.4l.278-3.7Z" transform="translate(-375.366 -171.348)" fill="#ffac79"/>
          <g id="Group_10394" data-name="Group 10394" transform="translate(3.722 3.169)">
            <g id="Group_10383" data-name="Group 10383" transform="translate(1.362 3.996)">
              <path id="Path_5633" data-name="Path 5633" d="M385.85,186.052a.492.492,0,0,1,.521.169" transform="translate(-385.73 -185.91)" fill="#ffac79"/>
              <path id="Path_5634" data-name="Path 5634" d="M386.25,186.219a.13.13,0,0,1-.1-.05.363.363,0,0,0-.382-.124.126.126,0,0,1-.154-.084.123.123,0,0,1,.079-.154.614.614,0,0,1,.655.213.126.126,0,0,1-.03.174A.119.119,0,0,1,386.25,186.219Z" transform="translate(-385.609 -185.784)" fill="#ff755f"/>
            </g>
            <g id="Group_10388" data-name="Group 10388" transform="translate(0.277)">
              <g id="Group_10387" data-name="Group 10387">
                <g id="Group_10386" data-name="Group 10386">
                  <g id="Group_10385" data-name="Group 10385">
                    <g id="Group_10384" data-name="Group 10384">
                      <path id="Path_5635" data-name="Path 5635" d="M383.521,178.337a.7.7,0,0,0,.318-.015c.114-.02.223-.035.323-.05s.213-.02.328-.025a.765.765,0,0,0,.313-.06c.079-.045.1-.154-.01-.268a.992.992,0,0,0-1.325.154C383.382,178.213,383.431,178.312,383.521,178.337Z" transform="translate(-383.423 -177.733)" fill="#390028"/>
                    </g>
                  </g>
                </g>
              </g>
            </g>
            <g id="Group_10389" data-name="Group 10389" transform="translate(2.042 0.967)">
              <path id="Path_5636" data-name="Path 5636" d="M387.468,179.92a.4.4,0,0,0,.412.4h0a.231.231,0,0,1,.238.233v.035a.519.519,0,0,1-.506.526l-.392,0" transform="translate(-387.101 -179.801)" fill="#ffac79"/>
              <path id="Path_5637" data-name="Path 5637" d="M387.1,181.124a.124.124,0,1,1,0-.248l.392-.01a.375.375,0,0,0,.273-.119.386.386,0,0,0,.109-.278v-.035a.117.117,0,0,0-.035-.079.1.1,0,0,0-.079-.03.535.535,0,0,1-.541-.521.123.123,0,0,1,.124-.124h0a.123.123,0,0,1,.124.124.285.285,0,0,0,.283.278h.015a.356.356,0,0,1,.357.352v.035a.625.625,0,0,1-.179.457.617.617,0,0,1-.447.194l-.4,0Z" transform="translate(-386.98 -179.68)" fill="#ff755f"/>
            </g>
            <g id="Group_10392" data-name="Group 10392" transform="translate(0 0.857)">
              <g id="Group_10390" data-name="Group 10390" clip-path="url(#clip-path)">
                <path id="Path_5638" data-name="Path 5638" d="M384.625,180.18a.81.81,0,0,0-.754-.715.821.821,0,0,0-.248.01,1.1,1.1,0,0,0-.72.591.293.293,0,0,0,.214.432,4.6,4.6,0,0,0,1.36-.035.192.192,0,0,0,.159-.208C384.63,180.234,384.63,180.209,384.625,180.18Z" transform="translate(-382.865 -179.46)" fill="#fff"/>
              </g>
              <g id="Group_10391" data-name="Group 10391" clip-path="url(#clip-path)">
                <path id="Path_5640" data-name="Path 5640" d="M386.161,180.32a.579.579,0,1,1-.6-.491A.552.552,0,0,1,386.161,180.32Z" transform="translate(-383.945 -179.645)" fill="#390028"/>
              </g>
            </g>
            <g id="Group_10393" data-name="Group 10393" transform="translate(0.623 2.828)">
              <path id="Path_5642" data-name="Path 5642" d="M385.264,184.077s-.844.129-.884-.387" transform="translate(-384.251 -183.561)" fill="#ffac79"/>
              <path id="Path_5643" data-name="Path 5643" d="M384.909,184.085a1,1,0,0,1-.6-.164.51.51,0,0,1-.189-.357.123.123,0,0,1,.114-.134.126.126,0,0,1,.134.114.223.223,0,0,0,.094.179,1.008,1.008,0,0,0,.65.094.126.126,0,1,1,.04.248A1.383,1.383,0,0,1,384.909,184.085Z" transform="translate(-384.119 -183.429)" fill="#ff755f"/>
            </g>
          </g>
          <path id="Path_5644" data-name="Path 5644" d="M380.087,187.6a2.329,2.329,0,0,0,2.239.988l-.169.913C382.072,189.5,379.993,189.491,380.087,187.6Z" transform="translate(-377.742 -179.533)" fill="#ff755f" opacity="0.41"/>
        </g>
        <g id="Group_10397" data-name="Group 10397">
          <path id="Path_5645" data-name="Path 5645" d="M375.091,181.943l.685,1.251.978-2.253c.124-.328-.486.293-.645-.025l-.134-.273-.069-.01A.847.847,0,0,0,375.091,181.943Z" transform="translate(-373.458 -173.975)" fill="#390028"/>
          <g id="Group_10396" data-name="Group 10396" transform="translate(0 0.005)">
            <path id="Path_5646" data-name="Path 5646" d="M373.921,175.275c1.539.442,1.841-1.722,2.194-2.472a1.778,1.778,0,0,1,2.3-.859,5.487,5.487,0,0,0,2.993.392l.114-1.35a3.216,3.216,0,0,0-2.938-3.475l-3.162-.263a3.216,3.216,0,0,0-3.475,2.938s.015,1.911.045,2.819A2.333,2.333,0,0,0,373.921,175.275Z" transform="translate(-371.95 -167.237)" fill="#f94a3d"/>
          </g>
          <path id="Path_5647" data-name="Path 5647" d="M382.336,170.976A3.216,3.216,0,0,0,379.4,167.5l-3.162-.263a3.2,3.2,0,0,0-2.685,1.092,3.2,3.2,0,0,1,2.214-.65l3.162.263a3.216,3.216,0,0,1,2.938,3.475l-.079.938.437-.03Z" transform="translate(-372.756 -167.227)" fill="#ff7664"/>
          <path id="Path_5648" data-name="Path 5648" d="M387.645,176.864l-2.631-.089a.77.77,0,0,1-.744-.794h0l3.971.134-.005.2A.571.571,0,0,1,387.645,176.864Z" transform="translate(-378.154 -171.635)" fill="#390028"/>
          <path id="Path_5649" data-name="Path 5649" d="M375.093,179.068h-.03a.834.834,0,1,1,.859-.8h0A.822.822,0,0,1,375.093,179.068Zm0-1.3a.452.452,0,0,0-.313.124.444.444,0,0,0-.144.323.462.462,0,1,0,.477-.447Z" transform="translate(-373.113 -172.35)" fill="#fff"/>
        </g>
      </g>
    </g>
    <g id="Group_10404" data-name="Group 10404" transform="translate(194.471 379.98)">
      <g id="Group_10403" data-name="Group 10403">
        <g id="Group_10402" data-name="Group 10402">
          <g id="Group_10401" data-name="Group 10401">
            <g id="Group_10400" data-name="Group 10400">
              <path id="Path_5650" data-name="Path 5650" d="M376.73,195.779a4.581,4.581,0,0,0-.263-.759,4.163,4.163,0,0,0-2.561-2.179,10.543,10.543,0,0,0-3-.352,21.814,21.814,0,0,0-2.189-.179,4.165,4.165,0,0,0-3.549,2.527,7.487,7.487,0,0,0-.338,1.842c-.313,3.633-1.7,10.141-1.851,13.784-.089,2.159,1.449,3.266,1.375,5.425l-.015-1.782,12.27.7.089-2.512c.1-2.844.164-5.688.2-8.532q.022-2.137.03-4.274A14.714,14.714,0,0,0,376.73,195.779Z" transform="translate(-362.973 -192.3)" fill="#4d5dda"/>
            </g>
          </g>
        </g>
      </g>
      <path id="Path_5651" data-name="Path 5651" d="M375.156,214.248h0c-.844-.7-3.723-3.494-4.413-5.708l-.208.159c-.01.094-.025.189-.035.283.208,1.931,1.9,3.886,2.929,4.914A1.582,1.582,0,0,0,375.156,214.248Z" transform="translate(-366.764 -200.479)" fill="#353535" opacity="0.27"/>
      <path id="Path_5652" data-name="Path 5652" d="M385.242,207.48l.347-.318L381.4,202.77Z" transform="translate(-372.253 -197.573)" fill="#353535" opacity="0.27"/>
    </g>
    <g id="Group_10406" data-name="Group 10406" transform="translate(203.27 390.007)">
      <g id="Group_10405" data-name="Group 10405">
        <path id="Path_5653" data-name="Path 5653" d="M395.343,217.3l-.4-1.1-.005,0-.06-.238a1.234,1.234,0,0,0-.74-.849l-.983-.392a1.138,1.138,0,0,0-1.211.194l-.477,0-5.1-.561L384.83,212.5,380.7,216l1.34,1.464a3.032,3.032,0,0,0,2.338.983l6.646-.223a11.972,11.972,0,0,0,1.961.467,1.494,1.494,0,0,0,1.251-1.633l-.02-.179.129.149-.065.084.472.546a.342.342,0,0,0,.471.045A.353.353,0,0,0,395.343,217.3Z" transform="translate(-380.7 -212.5)" fill="#ffac79"/>
      </g>
      <path id="Path_5654" data-name="Path 5654" d="M390.125,215.775l-1.975.318s1.628-.789,1.613-.745a2.782,2.782,0,0,0,.362.447" transform="translate(-384.452 -213.934)" fill="#ff755f" opacity="0.41"/>
    </g>
    <g id="Group_10415" data-name="Group 10415" transform="translate(194.309 398.505)">
      <g id="Group_10414" data-name="Group 10414">
        <g id="Group_10408" data-name="Group 10408">
          <path id="Path_5655" data-name="Path 5655" d="M382.607,230.394l-.427-.015.005-.025L362.7,229.62l-.05,2.328a5.855,5.855,0,0,0,6.5,6.066l10.865-.283-.531,10.98,3.981-.382,2.988-13.938A3.885,3.885,0,0,0,382.607,230.394Z" transform="translate(-362.647 -229.62)" fill="#390028"/>
        </g>
        <g id="Group_10413" data-name="Group 10413" transform="translate(16.63 17.755)">
          <g id="Group_10412" data-name="Group 10412">
            <g id="Group_10409" data-name="Group 10409">
              <path id="Path_5656" data-name="Path 5656" d="M404.727,270.165a2.63,2.63,0,0,0-2.5-2.755l-1.777-.089.084-1.727-4.174-.2-.213,4.358,4.174.2h0Z" transform="translate(-396.15 -265.39)" fill="#4d5dda"/>
            </g>
            <rect id="Rectangle_17533" data-name="Rectangle 17533" width="0.63" height="8.587" transform="translate(0.001 4.541) rotate(-87.186)" fill="#f7eee6"/>
            <g id="Group_10411" data-name="Group 10411" transform="translate(3.073 1.15)">
              <g id="Group_10410" data-name="Group 10410">
                <path id="Path_5657" data-name="Path 5657" d="M404.958,268.721a.2.2,0,0,1-.174-.089.217.217,0,0,1-.015-.243c.238-.432.477-.66.7-.68a.374.374,0,0,1,.338.164.355.355,0,0,1,.079.357c-.074.208-.367.372-.874.481h0A.209.209,0,0,1,404.958,268.721Zm.541-.764h-.01c-.094.01-.268.144-.472.5.422-.1.606-.228.635-.308,0-.01.015-.05-.04-.119S405.519,267.956,405.5,267.956Z" transform="translate(-403.549 -267.706)" fill="#eaeaea"/>
                <path id="Path_5658" data-name="Path 5658" d="M402.921,269.124a.644.644,0,0,1-.442-.129.426.426,0,0,1-.134-.4.4.4,0,0,1,.218-.347c.228-.1.6,0,1.107.328a.239.239,0,0,1,.079.318.229.229,0,0,1-.144.109A2.307,2.307,0,0,1,402.921,269.124Zm-.164-.66a.208.208,0,0,0-.089.015c-.015.005-.065.03-.079.149h0c-.015.114.025.159.05.179.119.1.457.089.9-.035A1.741,1.741,0,0,0,402.757,268.464Zm-.288.154Z" transform="translate(-402.341 -267.961)" fill="#eaeaea"/>
              </g>
            </g>
            <path id="Path_5659" data-name="Path 5659" d="M403.921,270.506a.132.132,0,0,1-.114-.069.121.121,0,0,1,.06-.164.92.92,0,0,0,.422-.834.12.12,0,0,1,.119-.129.123.123,0,0,1,.129.119,1.159,1.159,0,0,1-.561,1.072C403.956,270.5,403.941,270.506,403.921,270.506Z" transform="translate(-400 -267.364)" fill="#eaeaea"/>
          </g>
          <path id="Path_5660" data-name="Path 5660" d="M398.287,269.806h-.045a.865.865,0,0,1-.615-.293.885.885,0,0,1-.228-.645.9.9,0,0,1,.933-.849.865.865,0,0,1,.615.293.9.9,0,0,1-.66,1.494Zm0-1.539a.647.647,0,0,0-.645.611.624.624,0,0,0,.164.462.614.614,0,0,0,.447.208.644.644,0,0,0,.675-.611.624.624,0,0,0-.164-.462.614.614,0,0,0-.447-.208Z" transform="translate(-396.778 -266.714)" fill="#eaeaea"/>
        </g>
      </g>
    </g>
    <g id="Group_10417" data-name="Group 10417" transform="translate(211.865 388.229)">
      <path id="Path_5661" data-name="Path 5661" d="M398.615,209.36l1.479-.362a2.423,2.423,0,0,1,3.008,1.613h0a2.419,2.419,0,0,1-1.926,2.819l-1,.243a1.2,1.2,0,0,1-1.484-.794l-.655-2.68A.729.729,0,0,1,398.615,209.36Z" transform="translate(-398.018 -208.917)" fill="#390028"/>
      <path id="Path_5662" data-name="Path 5662" d="M411.082,215.454a.246.246,0,0,1-.213-.124l-1.678-2.9a1.325,1.325,0,0,0-1.459-.62l-2.541.62a.247.247,0,0,1-.114-.481l2.541-.62a1.831,1.831,0,0,1,2.005.859l1.678,2.9a.245.245,0,0,1-.089.338A.306.306,0,0,1,411.082,215.454Z" transform="translate(-401.476 -210.106)" fill="#390028"/>
    </g>
    <g id="Group_10421" data-name="Group 10421" transform="translate(169.326 363)">
      <g id="Group_10420" data-name="Group 10420">
        <path id="Path_5663" data-name="Path 5663" d="M440.154,199.287a.392.392,0,1,1-.392-.387A.389.389,0,0,1,440.154,199.287Z" transform="translate(-376.307 -178.643)" fill="#f9b361"/>
        <path id="Path_5664" data-name="Path 5664" d="M448.364,175.532a.392.392,0,0,1-.784,0,.392.392,0,0,1,.784,0Z" transform="translate(-380.442 -166.682)" fill="#f9b361"/>
        <ellipse id="Ellipse_101" data-name="Ellipse 101" cx="0.392" cy="0.382" rx="0.392" ry="0.382" transform="translate(4.164 60.551)" fill="#f9b361"/>
        <path id="Path_5665" data-name="Path 5665" d="M464.794,253.817a.385.385,0,0,1-.392.382.385.385,0,1,1,.392-.382Z" transform="translate(-388.717 -206.107)" fill="#f9b361"/>
        <path id="Path_5666" data-name="Path 5666" d="M393.4,158.472a.392.392,0,0,1-.784,0,.392.392,0,0,1,.784,0Z" transform="translate(-352.762 -158.09)" fill="#f9b361"/>
        <path id="Path_5667" data-name="Path 5667" d="M313.1,175.177a.385.385,0,0,1-.392.382.385.385,0,1,1,.392-.382Z" transform="translate(-312.32 -166.501)" fill="#f9b361"/>
        <path id="Path_5668" data-name="Path 5668" d="M439.894,227.147a.392.392,0,1,1-.392-.387A.4.4,0,0,1,439.894,227.147Z" transform="translate(-376.176 -192.675)" fill="#f9b361"/>
        <path id="Path_5669" data-name="Path 5669" d="M461.047,202.424a.2.2,0,0,1-.194.194.191.191,0,0,1-.194-.194.2.2,0,0,1,.194-.194A.194.194,0,0,1,461.047,202.424Z" transform="translate(-387.029 -180.321)" fill="#f9b361"/>
        <circle id="Ellipse_102" data-name="Ellipse 102" cx="0.194" cy="0.194" r="0.194" transform="translate(77.14 31.246)" fill="#f9b361"/>
        <circle id="Ellipse_103" data-name="Ellipse 103" cx="0.194" cy="0.194" r="0.194" transform="translate(6.577 49.686)" fill="#f9b361"/>
        <path id="Path_5670" data-name="Path 5670" d="M319.316,231.418a.279.279,0,0,1-.283.278.282.282,0,0,1-.283-.278.279.279,0,0,1,.283-.278A.282.282,0,0,1,319.316,231.418Z" transform="translate(-315.558 -194.881)" fill="#f9b361"/>
      </g>
    </g>
  </g>
</svg>
