<svg id="india-svgrepo-com_1_" data-name="india-svgrepo-com (1)" xmlns="http://www.w3.org/2000/svg" width="34.257" height="23.169" viewBox="0 0 34.257 23.169">
  <path id="Path_21" data-name="Path 21" d="M0,304v4.524a3.193,3.193,0,0,0,3.31,3.2H30.893a3.193,3.193,0,0,0,3.31-3.2V304Z" transform="translate(0 -288.554)" fill="#359846"/>
  <path id="Path_22" data-name="Path 22" d="M30.893,80H3.31A3.193,3.193,0,0,0,0,83.2v4.524H34.2V83.2A3.193,3.193,0,0,0,30.893,80Z" transform="translate(0 -80)" fill="#ea8634"/>
  <rect id="Rectangle_26" data-name="Rectangle 26" width="34" height="7" transform="translate(0.257 9.169)" fill="#fcfbf0"/>
  <path id="Path_23" data-name="Path 23" d="M324.247,311.723a3.288,3.288,0,0,0,3.42-3.2V304H315.2Z" transform="translate(-293.465 -288.554)" fill="#21872f"/>
  <path id="Path_24" data-name="Path 24" d="M75.583,80H48l9.157,7.723H78.893V83.2A3.193,3.193,0,0,0,75.583,80Z" transform="translate(-44.69 -80)" fill="#e27423"/>
  <path id="Path_25" data-name="Path 25" d="M189.378,199.723H201.79V192H180Z" transform="translate(-167.588 -184.277)" fill="#f7f4e2"/>
  <path id="Path_26" data-name="Path 26" d="M75.583,80H48l25.541,7.723h5.351V83.2A3.193,3.193,0,0,0,75.583,80Z" transform="translate(-44.69 -80)" fill="#d86619"/>
  <path id="Path_27" data-name="Path 27" d="M420.027,193.545V192H414.4Z" transform="translate(-385.824 -184.277)" fill="#f2e9c2"/>
  <path id="Path_28" data-name="Path 28" d="M34.2,368.055a3.172,3.172,0,0,1-3.31,3.255H3.31A3.285,3.285,0,0,1,0,368" transform="translate(0 -348.141)" fill="#167a20"/>
  <path id="Path_29" data-name="Path 29" d="M201.075,197.6a3.475,3.475,0,1,0,3.475,3.475A3.461,3.461,0,0,0,201.075,197.6Zm2.869,3.862c0,.055.055.165.11.165-.055.166-.055.331-.11.5-.055-.055-.165,0-.221.055s0,.165.055.221c-.055.165-.165.276-.221.441a.136.136,0,0,0-.221.055.168.168,0,0,0,0,.221l-.165.165-1.214-1.379-.5-.386.055-.055.5.386,1.6.827-1.434-1.1-.552-.221c0-.055,0-.055.055-.11l.552.221,1.765.386-1.71-.552-.607-.11v-.11l.607.055,1.82-.11-1.82-.11-.607.055v-.11l.607-.11,1.71-.552-1.765.386-.552.221c0-.055,0-.055-.055-.11l.552-.221,1.545-.993-1.6.827-.5.386-.055-.055.5-.386,1.214-1.379.165.165a.168.168,0,0,0,0,.221.332.332,0,0,0,.221.055,1.109,1.109,0,0,1,.221.441c-.055.055-.11.11-.055.221.055.055.11.11.221.055a1.611,1.611,0,0,1,.11.5c-.055,0-.11.11-.11.165s.11.165.165.11v.441C204,201.3,203.944,201.351,203.944,201.462Zm-4.8-2.7a.168.168,0,0,0,.221,0,.332.332,0,0,0,.055-.221,1.109,1.109,0,0,1,.441-.221c.055.055.11.11.221.055.055-.055.11-.11.055-.221a1.611,1.611,0,0,1,.5-.11c0,.055.11.11.165.11s.166-.11.11-.165h.441c0,.055.055.165.11.165s.165-.055.165-.11c.166.055.331.055.5.11-.055.055,0,.166.055.221s.165,0,.221-.055c.165.055.276.165.441.221a.136.136,0,0,0,.055.221.168.168,0,0,0,.221,0l.165.165-1.379,1.214-.386.5-.055-.055.386-.5.827-1.6-1.1,1.489-.221.552c-.055,0-.055,0-.11-.055l.221-.552.386-1.765-.552,1.71-.11.607h-.11l.055-.607-.055-1.82-.11,1.82.055.607h-.11l-.11-.607-.552-1.71.386,1.765.221.552c-.055,0-.055,0-.11.055l-.221-.552-.993-1.545.827,1.6.386.5-.055.055-.386-.5-1.379-1.214C198.979,198.869,199.034,198.814,199.145,198.759Zm-.221,4.468-.165-.165a.168.168,0,0,0,0-.221.332.332,0,0,0-.221-.055,1.109,1.109,0,0,1-.221-.441c.055-.055.11-.11.055-.221-.055-.055-.11-.11-.221-.055a1.611,1.611,0,0,1-.11-.5c.055,0,.11-.11.11-.165s-.11-.166-.165-.11v-.441c.055,0,.165-.055.165-.11s-.055-.165-.11-.165c.055-.165.055-.331.11-.5.055.055.166,0,.221-.055s0-.165-.055-.221c.055-.165.165-.276.221-.441a.136.136,0,0,0,.221-.055c.055-.11.055-.165,0-.221l.165-.165,1.214,1.379.5.386-.055.055-.5-.386-1.6-.827,1.545.993.552.221c0,.055,0,.055-.055.11l-.552-.221-1.765-.386,1.71.552.607.11v.11l-.607-.055-1.876.11,1.82.11.607-.055v.11l-.607.11-1.71.552,1.765-.386.552-.221c0,.055,0,.055.055.11l-.552.221-1.545.993,1.6-.827.5-.386.055.055-.5.386Zm1.931.883c0-.055-.055-.165-.11-.165s-.165.055-.165.11c-.165-.055-.331-.055-.5-.11.055-.055,0-.165-.055-.221s-.165,0-.221.055c-.166-.055-.276-.165-.441-.221a.136.136,0,0,0-.055-.221.168.168,0,0,0-.221,0l-.165-.165,1.379-1.214.386-.5.055.055-.386.5-.827,1.6.993-1.545.221-.552c.055,0,.055,0,.11.055l-.221.552-.386,1.765.552-1.71.11-.607h.11l-.055.607.11,1.82.11-1.82-.055-.607h.11l.11.607.552,1.71-.386-1.765-.221-.552c.055,0,.055,0,.11-.055l.221.552.993,1.545-.827-1.6-.386-.5.055-.055.386.5,1.379,1.214-.166.165a.168.168,0,0,0-.221,0,.332.332,0,0,0-.055.221,1.109,1.109,0,0,1-.441.221c-.055-.055-.11-.11-.221-.055s-.11.11-.055.221a1.61,1.61,0,0,1-.5.11c0-.055-.11-.11-.165-.11s-.166.11-.11.166h-.441Z" transform="translate(-183.974 -189.491)" fill="#7d7dbc"/>
  <g id="Group_21" data-name="Group 21" transform="translate(14.453 8.109)">
    <path id="Path_30" data-name="Path 30" d="M259.2,257.6l.166.166v-.055Z" transform="translate(-255.78 -253.463)" fill="#6060b2"/>
    <path id="Path_31" data-name="Path 31" d="M212.248,197.6a3.631,3.631,0,0,0-2.648,1.214l.331.276.165-.165.166-.165a.168.168,0,0,0,.221,0,.332.332,0,0,0,.055-.221c.055-.055.165-.055.221-.11l.827,1.6.386.5-.055.055-.386-.5-1.379-1.214,1.158,1.324.166.11.331.276h0l.938.772.055-.055.5.386,1.6.827c-.055.055-.055.165-.11.221a.136.136,0,0,0-.221.055.168.168,0,0,0,0,.221h0l.331.276a3.549,3.549,0,0,0,.827-2.262A3.449,3.449,0,0,0,212.248,197.6Zm-.276,2.924-.221-.552-.993-1.489a.287.287,0,0,1,.221-.11c.055.055.11.11.221.055.055-.055.11-.11.055-.221.055,0,.165-.055.221-.055l.386,1.765.221.552C212.027,200.524,212.027,200.524,211.972,200.524Zm.331-.055.055-.607-.11-1.82-.11,1.82.055.607h-.11l-.11-.607-.552-1.71c.055,0,.165-.055.221-.055,0,.055.11.11.165.11s.165-.11.11-.165h.441c0,.055.055.165.11.165s.165-.055.165-.11c.055,0,.165.055.221.055l-.552,1.71-.11.607Zm.11.055.221-.552.386-1.765c.055,0,.165.055.221.055-.055.055,0,.165.055.221s.165,0,.221-.055c.055.055.165.055.221.11l-.993,1.434-.221.552Zm2.482,1.655c-.055.055,0,.165.055.221-.055.055-.055.165-.11.221l-1.489-1.048-.552-.221c0-.055,0-.055.055-.11l.552.221,1.765.386c0,.055-.055.165-.055.221A.287.287,0,0,0,214.9,202.179Zm.386-1.324v.441c-.055,0-.165.055-.165.11s.055.165.11.165c0,.055-.055.166-.055.221l-1.71-.552-.607-.11v-.11l.607.055,1.82-.11-1.82-.11-.607.055v-.11l.607-.11,1.71-.552c0,.055.055.165.055.221-.055,0-.11.11-.11.165C215.117,200.8,215.172,200.855,215.282,200.855Zm-.386-.883c.055.055.11.11.221.055,0,.055.055.165.055.221l-1.765.386-.552.221c0-.055,0-.055-.055-.11l.552-.221,1.489-.993a.287.287,0,0,1,.11.221C214.9,199.807,214.841,199.917,214.9,199.972Zm-.055-.386-1.6.827-.5.386-.055-.055.5-.386,1.214-1.379-1.379,1.214-.386.5-.055-.055.386-.5.827-1.6c.055.055.165.055.221.11a.136.136,0,0,0,.055.221.168.168,0,0,0,.221,0l.165.165.165.166a.168.168,0,0,0,0,.221.332.332,0,0,0,.221.055C214.786,199.42,214.841,199.476,214.841,199.586Z" transform="translate(-209.6 -197.6)" fill="#6060b2"/>
  </g>
</svg>
